<?xml version="1.0" standalone="no"?>
<!DOCTYPE svg PUBLIC "-//W3C//DTD SVG 1.1//EN" "http://www.w3.org/Graphics/SVG/1.1/DTD/svg11.dtd" >
<svg xmlns="http://www.w3.org/2000/svg" xmlns:xlink="http://www.w3.org/1999/xlink" version="1.1">
<metadata>
Created by FontForge 20161116 at Sat Dec 17 02:32:55 2011
 By Jimmy Wärting
Copyright (c) 2011, TypeTogether (www.type-together.com), with Reserved Font Names "Crete" and "Crete Round"
</metadata>
<defs>
<font id="CreteRound-Regular" horiz-adv-x="500" >
  <font-face 
    font-family="Crete Round"
    font-weight="400"
    font-stretch="normal"
    units-per-em="1000"
    panose-1="2 0 5 3 5 0 0 2 0 4"
    ascent="800"
    descent="-200"
    x-height="495"
    cap-height="679"
    bbox="-134 -277 1028 990"
    underline-thickness="50"
    underline-position="-100"
    unicode-range="U+000D-FB04"
  />
<missing-glyph 
 />
    <glyph glyph-name=".notdef" 
 />
    <glyph glyph-name=".null" horiz-adv-x="0" 
 />
    <glyph glyph-name=".null" horiz-adv-x="0" 
 />
    <glyph glyph-name="nonmarkingreturn" horiz-adv-x="333" 
 />
    <glyph glyph-name="CR" unicode="&#xd;" horiz-adv-x="200" 
 />
    <glyph glyph-name="space" unicode=" " horiz-adv-x="200" 
 />
    <glyph glyph-name="exclam" unicode="!" horiz-adv-x="253" 
d="M138 156h-24q-11 0 -15 4t-5 15l-22 335v149q0 11 4 15t15 4h70q11 0 15 -4t4 -15v-151l-22 -333q-1 -11 -5 -15t-15 -4zM175.5 1q-17.5 -18 -49 -18t-50 17.5t-18.5 44t19 44.5t49 18t48.5 -17t18.5 -44t-17.5 -45z" />
    <glyph glyph-name="quotedbl" unicode="&#x22;" horiz-adv-x="374" 
d="M125 457h-28q-12 0 -16.5 3.5t-5.5 15.5l-12 83q-3 16 -3 38v63q0 11 4 15t15 4h64q11 0 15 -4t4 -15v-65q0 -20 -3 -38l-12 -81q-1 -12 -5.5 -15.5t-16.5 -3.5zM277 457h-28q-12 0 -16.5 3.5t-5.5 15.5l-12 83q-3 16 -3 38v63q0 11 4 15t15 4h64q11 0 15 -4t4 -15v-65
q0 -20 -3 -38l-12 -81q-1 -12 -5.5 -15.5t-16.5 -3.5z" />
    <glyph glyph-name="numbersign" unicode="#" horiz-adv-x="563" 
d="M183 330h-103q-10 0 -13.5 3t-3.5 14v2q0 11 3.5 14t13.5 3h110l28 148q1 10 5.5 13.5t15.5 3.5h2q17 0 14 -17l-28 -148h132l26 148q1 10 5.5 13.5t15.5 3.5h2q17 0 14 -17l-26 -148h110q10 0 13.5 -3t3.5 -14v-2q0 -11 -3.5 -14t-13.5 -3h-117l-21 -123h115
q11 0 14 -3.5t3 -13.5v-2q0 -10 -3 -13.5t-14 -3.5h-122l-30 -171q-1 -10 -5 -13.5t-15 -3.5h-2q-10 0 -13.5 3.5t-1.5 13.5l30 171h-133l-32 -171q-1 -10 -5 -13.5t-15 -3.5h-2q-10 0 -13.5 3.5t-1.5 13.5l32 171h-97q-11 0 -14 3.5t-3 13.5v2q0 10 3 13.5t14 3.5h103z
M352 330h-132l-23 -123h134z" />
    <glyph glyph-name="dollar" unicode="$" horiz-adv-x="431" 
d="M165 -98h-4q-11 0 -14.5 4t-2.5 15l9 64q-52 3 -83.5 11.5t-35 13t-3.5 15.5v106q0 11 4 15t15 4h48q11 0 15 -4t3 -15l-3 -54q15 -12 50 -17l20 152q-89 32 -115 64q-31 37 -31 89q0 71 51.5 117t138.5 49l6 46q2 11 6.5 15t15.5 4h4q11 0 14.5 -4t1.5 -15l-6 -47
q37 -2 68 -10t34.5 -12.5t3.5 -15.5v-106q0 -11 -4 -15t-15 -4h-48q-11 0 -14.5 4t-2.5 15l5 53q-21 10 -38 13l-18 -139q87 -34 101.5 -48.5t29.5 -31.5q27 -31 27 -88q0 -73 -54.5 -117t-148.5 -45l-8 -62q-2 -11 -6.5 -15t-15.5 -4zM205 57q85 2 85 65q0 27 -16 43.5
t-51 31.5zM216 454q-75 -5 -75 -60q0 -24 14 -39t45 -30z" />
    <glyph glyph-name="percent" unicode="%" horiz-adv-x="832" 
d="M85.5 335.5q-45.5 50.5 -45.5 138t49 135.5t118 48t113 -46.5t44 -135.5t-45.5 -139.5t-116.5 -50.5t-116.5 50.5zM146.5 562q-18.5 -29 -18.5 -91t18 -90t57 -28q74 0 74 119q0 63 -17 91t-56 28t-57.5 -29zM513.5 33.5q-45.5 50.5 -45.5 138t49 135.5t118 48t113 -46.5
t44 -135.5t-45.5 -139.5t-116.5 -50.5t-116.5 50.5zM556 166q0 -115 75 -115q38 0 56 28.5t18 91t-17 90.5t-56 28t-57.5 -29t-18.5 -94zM607 638l-308 -638q-5 -11 -10 -14t-17 -3h-39q-13 0 -13 8q0 4 2 9l307 638q5 11 10 14t17 3h40q13 0 13 -8q0 -4 -2 -9z" />
    <glyph glyph-name="ampersand" unicode="&#x26;" horiz-adv-x="647" 
d="M588 320h-45v-261q0 -18 -16 -27q-42 -22 -103.5 -36t-117.5 -14q-226 0 -226 194q0 73 40 122t97 62q-121 44 -121 154q0 78 54.5 130t154.5 52q178 0 179 -164q1 -11 -3 -15t-15 -4h-53q-12 0 -16 4t-5 15q-3 40 -23 60t-68 20t-73.5 -29.5t-25.5 -74.5t28.5 -75
t97.5 -30h260q11 0 15 -4t4 -15v-46q0 -11 -4 -15t-15 -3zM224.5 282q-39.5 -38 -39.5 -97t34 -89.5t100.5 -30.5t113.5 28v227h-94q-75 0 -114.5 -38z" />
    <glyph glyph-name="quotesingle" unicode="'" horiz-adv-x="222" 
d="M125 457h-28q-12 0 -16.5 3.5t-5.5 15.5l-12 83q-3 16 -3 38v63q0 11 4 15t15 4h64q11 0 15 -4t4 -15v-65q0 -20 -3 -38l-12 -81q-1 -12 -5.5 -15.5t-16.5 -3.5z" />
    <glyph glyph-name="parenleft" unicode="(" horiz-adv-x="336" 
d="M301 -85v-46q0 -11 -4 -15t-15 -4h-105q-12 0 -16.5 3.5t-5.5 15.5l-72 419q-1 10 -1 19t1 19l62 401q1 12 5.5 15.5t16.5 3.5h105q11 0 15 -4t4 -15v-49q0 -11 -4 -15t-15 -3l-43 3l-53 -356l61 -377l45 3q11 1 15 -3t4 -15z" />
    <glyph glyph-name="parenright" unicode=")" horiz-adv-x="336" 
d="M35 -131v46q0 11 4 15t15 3l45 -3l61 377l-53 356l-43 -3q-11 -1 -15 3t-4 15v49q0 11 4 15t15 4h105q12 0 16.5 -3.5t5.5 -15.5l62 -401q1 -10 1 -19t-1 -19l-72 -419q-1 -12 -5.5 -15.5t-16.5 -3.5h-105q-11 0 -15 4t-4 15z" />
    <glyph glyph-name="asterisk" unicode="*" horiz-adv-x="486" 
d="M205 610l14 117q2 11 6 15t15 4h5q11 0 15 -4t6 -15l11 -117l109 49q17 9 27 -10q3 -6 3 -13t-9 -14l-99 -68l100 -72q9 -7 9 -14t-4 -13l-2 -1q-6 -10 -11 -11.5t-16 3.5l-105 49l-14 -115q-2 -11 -6 -15t-15 -4h-4q-11 0 -15 4t-6 15l-12 115l-108 -49q-6 -3 -13 -3
t-13 12q-4 4 -4 13t9 16l98 68l-98 71q-9 7 -9 14q0 5 5 15q6 10 11.5 11.5t15.5 -3.5z" />
    <glyph glyph-name="plus" unicode="+" horiz-adv-x="530" 
d="M54 330h173v173q0 11 4 15t15 4h35q11 0 15 -4t4 -15v-173h176q11 0 15 -4t4 -15v-27q0 -11 -4 -15t-15 -4h-176v-188q0 -11 -4 -15t-15 -4h-35q-11 0 -15 4t-4 15v188h-173q-11 0 -15 4t-4 15v27q0 11 4 15t15 4z" />
    <glyph glyph-name="comma" unicode="," horiz-adv-x="292" 
d="M169 -58l-55 -87q-7 -12 -13 -12q-2 0 -16.5 5.5t-16.5 10.5t2 16l36 106q-1 2 -6.5 8t-8 9t-7 9.5t-7 11.5l-5.5 11q-5 11 -5 34t19.5 42t54 19t54.5 -18.5t20 -54t-46 -110.5z" />
    <glyph glyph-name="hyphen" unicode="-" horiz-adv-x="282" 
d="M233 218h-184q-11 0 -15 4t-4 15v59q0 11 4 15t15 4h184q11 0 15 -4t4 -15v-59q0 -11 -4 -15t-15 -4z" />
    <glyph glyph-name="period" unicode="." horiz-adv-x="279" 
d="M126 -19q-35 0 -55 19.5t-20 49t21 49.5t54 20t54 -19t21 -49t-20 -50t-55 -20z" />
    <glyph glyph-name="slash" unicode="/" horiz-adv-x="449" 
d="M395 745q15 0 15 -8q0 -4 -2 -10l-295 -810q-4 -11 -8.5 -14.5t-16.5 -3.5h-39q-15 0 -15 8q0 4 2 10l294 810q4 11 8.5 14.5t16.5 3.5h40z" />
    <glyph glyph-name="zero" unicode="0" horiz-adv-x="576" 
d="M35 252q0 74 22.5 130t60.5 88q76 61 179 61t173.5 -65t70.5 -205t-72 -206.5t-186 -66.5t-181 67.5t-67 196.5zM152 253q0 -85 32.5 -134t102.5 -49t104.5 44.5t34.5 140.5q0 192 -137 192t-137 -194z" />
    <glyph glyph-name="one" unicode="1" horiz-adv-x="339" 
d="M44 511h168q11 0 15 -4t4 -15v-413h69q11 1 15 -3t4 -15v-42q0 -11 -4 -15t-15 -4h-250q-11 0 -15 4t-4 15v42q0 11 4 15t15 3h69v353l-75 -4q-11 -1 -15 3t-4 15v46q0 11 4 15t15 4z" />
    <glyph glyph-name="two" unicode="2" horiz-adv-x="526" 
d="M231 447q-88 0 -100 -86q-2 -11 -6 -15t-15 -4h-52q-18 0 -18 15q0 82 57 128t148 46t142.5 -42.5t51.5 -127.5q0 -136 -175 -241q-28 -17 -67 -38h206l-4 50q-1 11 3 15t15 4h47q11 0 15 -4t4 -15v-166q0 -11 -4 -15t-15 -4h-47q-11 0 -15 4t-3 15l3 34h-340
q-11 0 -15 4t-4 15v41q0 18 17 26q104 54 175 110q89 69 89 157q0 44 -20 69t-73 25z" />
    <glyph glyph-name="three" unicode="3" horiz-adv-x="483" 
d="M218 -141q-198 0 -198 172q0 15 18 15h56q12 0 15.5 -3.5t5.5 -15.5q4 -46 29 -65.5t78 -19.5t81.5 26t28.5 89q0 107 -107 112q-11 1 -31 1h-29q-11 0 -15 4t-4 15v44q0 11 4 14.5t35 5.5t45 4q90 17 90 103.5t-91 86.5t-101 -86q-2 -11 -6 -15t-15 -4h-53q-11 0 -15 4
t-3 15q4 84 60.5 127t145.5 43t137.5 -41t48.5 -117q0 -109 -129 -156q59 -8 101 -48.5t42 -112.5q0 -90 -61 -143.5t-163 -53.5z" />
    <glyph glyph-name="four" unicode="4" horiz-adv-x="524" 
d="M486 15h-83v-129q0 -11 -4 -15t-15 -4h-72q-11 0 -15 4t-4 15v129h-244q-11 0 -15 4t-4 15v44q0 20 10 35l237 382q10 16 29 16h79q11 0 15 -4t4 -15v-393h82q11 0 15 -4t4 -15v-46q0 -11 -4 -15t-15 -4zM294 394l-182 -295h182v295z" />
    <glyph glyph-name="five" unicode="5" horiz-adv-x="475" 
d="M403 415h-227l-21 -149q47 27 101 27q79 0 129.5 -52t50.5 -155.5t-60 -165t-166 -61.5q-190 0 -199 170q0 11 3.5 15t14.5 4h59q11 0 15 -4t6 -15q8 -87 99 -87q116 0 116 132.5t-105 132.5q-51 0 -96 -34q-10 -7 -18.5 -7t-15.5 3l-11 5q-11 5 -13.5 9.5t-1.5 16.5
l33 292q2 11 6 15t15 4h286q11 0 15 -4t4 -15v-58q0 -11 -4 -15t-15 -4z" />
    <glyph glyph-name="six" unicode="6" horiz-adv-x="546" 
d="M312 656q157 0 170 -149q1 -11 -2.5 -15t-14.5 -4h-55q-12 0 -16 4t-6 15q-10 65 -83 65q-146 0 -151 -221q53 74 151 74t148.5 -54.5t50.5 -152.5t-60.5 -164t-164.5 -66q-237 0 -237 307q0 182 70.5 271.5t199.5 89.5zM276 338q-43 0 -76 -20q-44 -27 -44 -94
t27.5 -110.5t92.5 -43.5q118 0 118 134t-118 134z" />
    <glyph glyph-name="seven" unicode="7" horiz-adv-x="461" 
d="M333 415h-304q-11 0 -15 4t-4 15v58q0 11 4 15t15 4h403q11 0 15 -4t4 -15v-44q0 -20 -8 -36l-253 -528q-8 -17 -27 -17h-75q-19 0 -11 17z" />
    <glyph glyph-name="eight" unicode="8" horiz-adv-x="534" 
d="M38 153q0 113 130 182q-50 29 -75 62.5t-25 88.5q0 81 59 125.5t145.5 44.5t134.5 -40.5t48 -98t-28.5 -93t-81.5 -70.5q81 -35 113 -73.5t32 -103.5q0 -85 -62 -137t-171.5 -52t-164 45.5t-54.5 119.5zM379 163q0 54 -49 86q-35 23 -84 45q-102 -59 -102 -134
q0 -93 117.5 -93t117.5 96zM351 506q0 72 -80 72q-42 0 -68 -20t-26 -58t23 -63t65 -47q27 19 42.5 32t29.5 36t14 48z" />
    <glyph glyph-name="nine" unicode="9" horiz-adv-x="546" 
d="M239 -142q-165 0 -176 149q-1 11 3 15t15 4h55q12 0 16 -3.5t8 -26.5q11 -54 83 -54q144 0 149 221q-53 -74 -151.5 -74t-148.5 58t-50 156.5t60 163t172 64.5q230 0 230 -303q0 -370 -265 -370zM270 176q46 0 78.5 25t39.5 69q2 11 2 35q0 59 -28 101.5t-92 42.5
q-118 0 -118 -136.5t118 -136.5z" />
    <glyph glyph-name="colon" unicode=":" horiz-adv-x="279" 
d="M126 -19q-35 0 -55 19.5t-20 49t21 49.5t54 20t54 -19t21 -49t-20 -50t-55 -20zM126 378q-35 0 -55 19.5t-20 49t21 49.5t54 20t54 -19t21 -49t-20 -50t-55 -20z" />
    <glyph glyph-name="semicolon" unicode=";" horiz-adv-x="300" 
d="M169 -58l-55 -87q-7 -12 -13 -12q-2 0 -16.5 5.5t-16.5 10.5t2 16l36 106q-1 2 -6.5 8t-8 9t-7 9.5t-7 11.5l-5.5 11q-5 11 -5 34t19.5 42t54 19t54.5 -18.5t20 -54t-46 -110.5zM147 378q-35 0 -55 19.5t-20 49t21 49.5t54 20t54 -19t21 -49t-20 -50t-55 -20z" />
    <glyph glyph-name="less" unicode="&#x3c;" horiz-adv-x="530" 
d="M477 465v-40q0 -12 -3 -16.5t-14 -9.5l-321 -131l321 -139q11 -5 14 -10t3 -17v-42q0 -13 -8 -13q-4 0 -9 2l-390 175q-17 8 -17 27v30q0 12 3 16.5t14 9.5l390 170q5 2 8 2q9 0 9 -14z" />
    <glyph glyph-name="equal" unicode="=" horiz-adv-x="530" 
d="M35 339v27q0 11 4 15t15 4h422q11 0 15 -4t4 -15v-27q0 -11 -4 -15t-15 -4h-422q-11 0 -15 4t-4 15zM35 160v27q0 11 4 15t15 4h422q11 0 15 -4t4 -15v-27q0 -11 -4 -15t-15 -4h-422q-11 0 -15 4t-4 15z" />
    <glyph glyph-name="greater" unicode="&#x3e;" horiz-adv-x="530" 
d="M391 268l-324 132q-14 6 -14 21v48q0 11 7 11q3 0 7 -2l396 -172q14 -6 14 -21v-38q0 -15 -14 -21l-396 -179q-4 -2 -7 -2q-7 0 -7 11v50q0 15 14 21z" />
    <glyph glyph-name="question" unicode="?" horiz-adv-x="465" 
d="M226 158h-48q-11 0 -15 4t-4 15v170q0 11 3.5 15.5t14.5 7.5q144 32 144 144q0 105 -96 105q-87 0 -97 -86q-2 -11 -6 -15t-15 -4h-53q-18 0 -18 15q0 81 56 124t144.5 43t141 -44.5t52.5 -131.5t-50.5 -140t-134.5 -75v-128q0 -11 -4 -15t-15 -4zM250.5 1
q-17.5 -18 -49 -18t-50 17.5t-18.5 44t19 44.5t49 18t48.5 -17t18.5 -44t-17.5 -45z" />
    <glyph glyph-name="at" unicode="@" horiz-adv-x="848" 
d="M47 229q0 178 108.5 287t284 109t271.5 -92t96 -264q0 -100 -37 -178q-20 -42 -60.5 -66.5t-88.5 -24.5q-96 0 -98 63q-52 -63 -138 -63q-58 0 -98.5 32t-40.5 100q0 76 48 112.5t107.5 46t115.5 9.5v24q0 47 -18.5 69.5t-63 22.5t-62 -13t-21.5 -40q-2 -11 -6 -15
t-16 -4h-45q-11 0 -14.5 4t-2.5 15q7 68 59 97.5t125 29.5q166 0 166 -153v-240q0 -49 33 -49q54 0 83.5 60.5t29.5 154.5q0 153 -85 238.5t-241.5 85.5t-249.5 -100t-93 -262t95 -243.5t250 -81.5q31 0 52 2t24.5 -1t5.5 -14v-2q3 -18 -15 -19q-36 -3 -71 -3
q-172 0 -278 87q-52 44 -81.5 115t-29.5 164zM519 147v89q-102 -3 -133 -22q-15 -8 -27 -25.5t-12 -42.5q0 -68 76 -68q45 0 70.5 20.5t25.5 48.5z" />
    <glyph glyph-name="A" unicode="A" horiz-adv-x="696" 
d="M214 214l-46 -135h60q15 0 15 -15v-49q0 -15 -15 -15h-213q-15 0 -15 15v49q0 15 15 15h59l200 586q6 14 20 14h97q14 0 20 -14l202 -586h68q15 0 15 -15v-49q0 -15 -15 -15h-251q-15 0 -15 15v49q0 15 15 15h62l-47 135h-231zM329 583l-95 -294h189z" />
    <glyph glyph-name="B" unicode="B" horiz-adv-x="587" 
d="M39 15v49q0 15 15 15h53v519h-52q-15 0 -15 15v51q0 16 15 16q120 5 228 5t172.5 -41.5t64.5 -118.5q0 -56 -34.5 -97.5t-81.5 -60.5q77 -12 117.5 -57t40.5 -110q0 -85 -63 -137.5t-167 -59.5q-43 -3 -138 -3h-140q-15 0 -15 15zM219 315v-238h45q88 0 136.5 28t48.5 97
q0 113 -158 113h-72zM219 604v-206h38q148 0 148 103q0 58 -36 80.5t-103 22.5h-47z" />
    <glyph glyph-name="C" unicode="C" horiz-adv-x="629" 
d="M43 336q0 96 28.5 169t75.5 113q92 78 208.5 78t209.5 -51q13 -7 13 -20v-129q0 -15 -15 -15h-56q-15 0 -14 15l3 70q-62 42 -141 42q-192 0 -192 -256q0 -80 19 -139.5t67 -98.5t128 -39t120 32l-4 70q-1 15 14 15h57q15 0 15 -15v-127q0 -14 -10 -19q-88 -43 -201 -43
q-164 0 -244.5 93t-80.5 255z" />
    <glyph glyph-name="D" unicode="D" horiz-adv-x="679" 
d="M55 679q128 6 190 6t92.5 -2.5t69.5 -10.5t69.5 -21.5t61.5 -38.5t52 -58q46 -76 46 -196q0 -181 -100 -269.5t-273 -88.5h-208q-15 0 -15 15v49q0 15 15 15h52v519h-52q-15 0 -15 15v51q0 15 15 15zM455.5 150q60.5 72 60.5 197t-56.5 190t-176.5 65h-64v-524h66
q110 0 170.5 72z" />
    <glyph glyph-name="E" unicode="E" horiz-adv-x="555" 
d="M220 599v-213h149l-4 51q-1 15 14 15h56q15 0 15 -15v-177q0 -15 -15 -15h-56q-15 0 -14 15l3 48h-148v-230h229l-4 71q-1 15 14 15h56q15 0 15 -15v-134q0 -15 -15 -15h-460q-15 0 -15 15v49q0 15 15 15h53v519h-53q-15 0 -15 15v51q0 15 15 15h440q15 0 15 -15v-134
q0 -15 -15 -15h-56q-15 0 -14 15l4 69h-209z" />
    <glyph glyph-name="F" unicode="F" horiz-adv-x="540" 
d="M220 599v-208h159l-4 51q-1 15 14 15h56q15 0 15 -15v-177q0 -15 -15 -15h-56q-15 0 -14 15l3 48h-158v-234h103q15 0 15 -15v-49q0 -15 -15 -15h-268q-15 0 -15 15v49q0 15 15 15h53v519h-53q-15 0 -15 15v51q0 15 15 15h450q15 0 15 -15v-134q0 -15 -15 -15h-56
q-15 0 -14 15l4 69h-219z" />
    <glyph glyph-name="G" unicode="G" horiz-adv-x="695" 
d="M607 234v-170q0 -14 -14 -21q-43 -23 -106.5 -39t-134 -16t-134.5 27t-102 76q-73 96 -73 250q0 94 28.5 165.5t75.5 111.5q92 78 211.5 78t205.5 -53q14 -8 14 -22v-125q0 -15 -15 -15h-57q-15 0 -14 15l3 67q-63 45 -136.5 45t-118 -36.5t-61 -90t-16.5 -129
t18.5 -135.5t67 -100t126 -40t129.5 35v122h-64q-15 0 -15 15v50q0 15 15 15h220q15 0 15 -15v-50q0 -15 -15 -15h-53z" />
    <glyph glyph-name="H" unicode="H" horiz-adv-x="743" 
d="M220 598v-206h303v206h-53q-15 0 -15 15v51q0 15 15 15h218q15 0 15 -15v-51q0 -15 -15 -15h-53v-519h53q15 0 15 -15v-49q0 -15 -15 -15h-218q-15 0 -15 15v49q0 15 15 15h53v227h-303v-227h53q15 0 15 -15v-49q0 -15 -15 -15h-218q-15 0 -15 15v49q0 15 15 15h53v519
h-53q-15 0 -15 15v51q0 15 15 15h218q15 0 15 -15v-51q0 -15 -15 -15h-53z" />
    <glyph glyph-name="I" unicode="I" horiz-adv-x="328" 
d="M220 598v-519h53q15 0 15 -15v-49q0 -15 -15 -15h-218q-15 0 -15 15v49q0 15 15 15h53v519h-53q-15 0 -15 15v51q0 15 15 15h218q15 0 15 -15v-51q0 -15 -15 -15h-53z" />
    <glyph glyph-name="J" unicode="J" horiz-adv-x="329" 
d="M109 -38v636h-53q-15 0 -15 15v51q0 15 15 15h218q15 0 15 -15v-51q0 -15 -15 -15h-53v-640q0 -198 -183 -198q-69 0 -113 21q-7 3 -7 8.5t2 10.5l18 52q5 15 18 10q34 -13 73.5 -13t59.5 26t20 87z" />
    <glyph glyph-name="K" unicode="K" horiz-adv-x="664" 
d="M220 598v-214h52l186 214h-53q-15 0 -15 15v51q0 15 15 15h204q15 0 15 -15v-53q0 -15 -15 -15h-51l-198 -231l199 -286h65q15 0 15 -15v-49q0 -15 -15 -15h-128q-15 0 -24 12l-201 290h-51v-223h53q15 0 15 -15v-49q0 -15 -15 -15h-218q-15 0 -15 15v49q0 15 15 15h53
v519h-53q-15 0 -15 15v51q0 15 15 15h218q15 0 15 -15v-51q0 -15 -15 -15h-53z" />
    <glyph glyph-name="L" unicode="L" horiz-adv-x="525" 
d="M220 598v-519h209l-4 70q-1 15 14 15h56q15 0 15 -15v-197q0 -15 -15 -15h-56q-15 0 -14 15l3 48h-373q-15 0 -15 15v49q0 15 15 15h53v519h-53q-15 0 -15 15v51q0 15 15 15h238q15 0 15 -15v-51q0 -15 -15 -15h-73z" />
    <glyph glyph-name="M" unicode="M" horiz-adv-x="909" 
d="M476 0h-66q-15 0 -21 14l-194 493v-428h63q15 0 15 -15v-49q0 -15 -15 -15h-203q-15 0 -15 15v49q0 15 15 15h53v519h-53q-15 0 -15 15v51q0 15 15 15h175q16 0 20 -14l206 -537l211 537q4 14 20 14h167q15 0 15 -15v-51q0 -15 -15 -15h-53v-519h53q15 0 15 -15v-49
q0 -15 -15 -15h-220q-15 0 -15 15v49q0 15 15 15h60v427l-197 -492q-6 -14 -21 -14z" />
    <glyph glyph-name="N" unicode="N" horiz-adv-x="743" 
d="M645 598v-583q0 -15 -15 -15h-73q-15 0 -23 12l-339 501v-434h83q15 0 15 -15v-49q0 -15 -15 -15h-223q-15 0 -15 15v49q0 15 15 15h53v519h-53q-15 0 -15 15v51q0 15 15 15h147q14 0 23 -13l333 -506v438h-53q-15 0 -15 15v51q0 15 15 15h193q15 0 15 -15v-51
q0 -15 -15 -15h-53z" />
    <glyph glyph-name="O" unicode="O" horiz-adv-x="692" 
d="M43 333q0 100 30 174.5t79 113.5q93 75 202 75q37 0 71 -6t77 -26.5t73.5 -55t52 -98.5t21.5 -149q0 -180 -88.5 -276.5t-227 -96.5t-214.5 88t-76 257zM345 82q179 0 179 263t-182 263q-64 0 -105.5 -34.5t-57.5 -86t-16 -119.5q0 -286 182 -286z" />
    <glyph glyph-name="P" unicode="P" horiz-adv-x="565" 
d="M40 15v49q0 15 15 15h52v520h-52q-15 0 -15 15v50q0 15 15 15q128 6 209 6q266 0 266 -195q0 -101 -65 -160t-177 -59q-44 0 -69 3v-195h83q15 0 15 -15v-49q0 -15 -15 -15h-247q-15 0 -15 15zM219 602v-251q9 -1 46 -1q150 0 150 133q0 48 -24.5 75.5t-57 35.5t-78.5 8
h-36z" />
    <glyph glyph-name="Q" unicode="Q" horiz-adv-x="692" 
d="M357 -11l-24 -1q-139 0 -214.5 87.5t-75.5 256.5q0 81 20.5 145.5t52 104.5t74.5 66q76 48 164 48q37 0 71 -6t77 -27t73.5 -55.5t52 -98.5t21.5 -149q0 -126 -45 -210.5t-123 -126.5q19 -69 91 -131q11 -9 2 -21l-23 -28q-5 -6 -10.5 -6t-11.5 3q-132 68 -172 149z
M345 82q179 0 179 263t-182 263q-64 0 -105.5 -35t-57.5 -86.5t-16 -119.5q0 -285 182 -285z" />
    <glyph glyph-name="R" unicode="R" horiz-adv-x="616" 
d="M40 15v49q0 15 15 15h52v520h-52q-15 0 -15 15v50q0 15 15 15q128 6 213 6q260 0 260 -186q0 -65 -33 -114.5t-88 -75.5l117 -230h62q15 0 15 -15v-49q0 -15 -15 -15h-132q-15 0 -22 13l-136 269h-20q-32 0 -57 3v-206h63q15 0 15 -15v-49q0 -15 -15 -15h-227
q-15 0 -15 15zM219 602v-241q8 -1 23 -1q81 0 126 32t45 96q0 114 -158 114h-36z" />
    <glyph glyph-name="S" unicode="S" horiz-adv-x="517" 
d="M283 696q74 0 148 -22q14 -4 14 -18v-138q0 -15 -15 -15h-56q-15 0 -14 15l3 67q-40 24 -89 24t-78.5 -23.5t-29.5 -65.5t27 -68.5t77 -45.5t67 -26t49.5 -26t48 -37.5t29 -49.5t13.5 -69q0 -99 -62.5 -154.5t-177.5 -55.5q-85 0 -168 26q-14 4 -14 18v159q0 15 15 15h56
q15 0 14 -15l-4 -83q13 -12 43.5 -22.5t62.5 -10.5q124 0 124 101q0 49 -33 77.5t-85.5 46t-79.5 31t-55 35.5q-56 42 -56 129t60 144t166 57z" />
    <glyph glyph-name="T" unicode="T" horiz-adv-x="593" 
d="M436 0h-278q-15 0 -15 15v49q0 15 15 15h82v520h-135l5 -78q1 -15 -14 -15h-61q-15 0 -15 15v143q0 15 15 15h523q15 0 15 -15v-143q0 -15 -15 -15h-61q-15 0 -14 15l5 78h-135v-520h83q15 0 15 -15v-49q0 -15 -15 -15z" />
    <glyph glyph-name="U" unicode="U" horiz-adv-x="713" 
d="M205 598v-314q0 -50 5 -82.5t20 -63.5q29 -60 124.5 -60t132.5 52t37 151v317h-53q-15 0 -15 15v51q0 15 15 15h202q15 0 15 -15v-51q0 -15 -15 -15h-53v-338q0 -110 -52 -186q-28 -40 -81.5 -63t-129.5 -23q-148 0 -206 64.5t-58 196.5v349h-53q-15 0 -15 15v51
q0 15 15 15h218q15 0 15 -15v-51q0 -15 -15 -15h-53z" />
    <glyph glyph-name="V" unicode="V" horiz-adv-x="684" 
d="M269 14l-187 584h-62q-15 0 -15 15v51q0 15 15 15h254q15 0 15 -15v-51q0 -15 -15 -15h-61l142 -479l162 479h-64q-15 0 -15 15v51q0 15 15 15h211q15 0 15 -15v-51q0 -15 -15 -15h-53l-205 -584q-6 -14 -20 -14h-97q-14 0 -20 14z" />
    <glyph glyph-name="W" unicode="W" horiz-adv-x="997" 
d="M216 15l-144 583h-52q-15 0 -15 15v51q0 15 15 15h250q15 0 15 -15v-51q0 -15 -15 -15h-71l107 -465l146 532q4 14 19 14h82q15 0 19 -14l145 -535l115 468h-66q-15 0 -15 15v51q0 15 15 15h211q15 0 15 -15v-51q0 -15 -15 -15h-53l-154 -583q-4 -15 -19 -15h-94
q-15 0 -19 14l-140 498l-134 -498q-4 -14 -19 -14h-110q-15 0 -19 15z" />
    <glyph glyph-name="X" unicode="X" horiz-adv-x="677" 
d="M176 78h63q15 0 15 -15v-48q0 -15 -15 -15h-218q-15 0 -15 15v48q0 15 15 15h53l195 260l-190 260h-54q-15 0 -15 15v51q0 15 15 15h250q15 0 15 -15v-51q0 -15 -15 -15h-61l129 -180l131 180h-56q-15 0 -15 15v51q0 15 15 15h211q15 0 15 -15v-51q0 -15 -15 -15h-52
l-185 -242l199 -278h61q15 0 15 -15v-48q0 -15 -15 -15h-262q-15 0 -15 15v48q0 15 15 15h64l-136 191z" />
    <glyph glyph-name="Y" unicode="Y" horiz-adv-x="664" 
d="M279 257l-202 341h-52q-15 0 -15 15v51q0 15 15 15h254q15 0 15 -15v-51q0 -15 -15 -15h-71l144 -246l143 246h-67q-15 0 -15 15v51q0 15 15 15h211q15 0 15 -15v-51q0 -15 -15 -15h-53l-195 -328v-192h53q15 0 15 -15v-48q0 -15 -15 -15h-218q-15 0 -15 15v48
q0 15 15 15h53v179z" />
    <glyph glyph-name="Z" unicode="Z" horiz-adv-x="588" 
d="M63 679h472q15 0 15 -15v-48q0 -15 -9 -27l-376 -511h306l-6 71q-1 15 14 15h59q15 0 15 -15v-197q0 -15 -15 -15h-56q-15 0 -14 15l3 48h-425q-15 0 -15 15v48q0 15 9 27l372 511h-279l5 -80q1 -15 -14 -15h-61q-15 0 -15 15v143q0 15 15 15z" />
    <glyph glyph-name="bracketleft" unicode="[" horiz-adv-x="337" 
d="M309 -83v-48q0 -11 -4 -15t-15 -4h-145q-11 0 -15 4t-4 15v858q0 11 4 15t15 4h145q11 0 15 -4t4 -15v-51q0 -11 -4 -15t-15 -3l-68 5v-733l68 5q11 1 15 -3t4 -15z" />
    <glyph glyph-name="backslash" unicode="\" horiz-adv-x="434" 
d="M400 -93q0 -8 -15 -8h-39q-12 0 -16.5 3.5t-8.5 14.5l-295 810q-2 6 -2 10q0 8 15 8h40q12 0 16.5 -3.5t8.5 -14.5l294 -810q2 -6 2 -10z" />
    <glyph glyph-name="bracketright" unicode="]" horiz-adv-x="337" 
d="M28 -131v48q0 11 4 15t15 3l68 -5v733l-68 -5q-11 -1 -15 3t-4 15v51q0 11 4 15t15 4h145q11 0 15 -4t4 -15v-858q0 -11 -4 -15t-15 -4h-145q-11 0 -15 4t-4 15z" />
    <glyph glyph-name="asciicircum" unicode="^" horiz-adv-x="584" 
d="M394 328l-115 259l-116 -259q-6 -14 -21 -14h-66q-10 0 -10 7q0 3 2 7l168 348q6 14 21 14h47q15 0 21 -14l168 -348q2 -4 2 -7q0 -7 -11 -7h-69q-15 0 -21 14z" />
    <glyph glyph-name="underscore" unicode="_" 
d="M488 -161h-476q-11 0 -15 4t-4 15v19q0 11 4 15t15 4h476q11 0 15 -4t4 -15v-19q0 -11 -4 -15t-15 -4z" />
    <glyph glyph-name="grave" unicode="`" 
d="M195 715q-4 7 -4 12t14 5h72q12 0 16.5 -3.5t8.5 -14.5l43 -116q2 -6 2 -9q0 -9 -15 -9h-44q-20 0 -28 17z" />
    <glyph glyph-name="a" unicode="a" horiz-adv-x="524" 
d="M328 297v35q0 71 -40 89q-19 8 -55 8q-68 0 -82 -64q-3 -15 -15 -15h-64q-16 0 -14 15q4 73 59 107t140 34q179 0 179 -164v-263h43q15 0 15 -15v-49q0 -15 -15 -15h-118q-13 0 -15 15l-7 46q-54 -73 -156 -73q-64 0 -106 33.5t-42 107.5q0 97 81 133q67 31 160 34
q19 0 52 1zM330 151v77q-96 0 -118 -9t-39 -18q-32 -17 -32 -62q0 -69 79 -69q52 0 81 24.5t29 56.5z" />
    <glyph glyph-name="b" unicode="b" horiz-adv-x="584" 
d="M89 79v584h-54q-15 0 -15 15v53q0 15 15 15h151q15 0 15 -15v-311q24 40 64.5 63t87.5 23q92 0 144 -61t52 -190.5t-59.5 -198t-156.5 -68.5q-55 0 -95.5 19.5t-58.5 48.5l-6 -41q-1 -15 -15 -15h-122q-15 0 -15 15v49q0 15 15 15h53zM201 302v-177q12 -18 46.5 -35
t67.5 -17q121 0 121 171q0 124 -56 156q-24 14 -66 14t-77.5 -30.5t-35.5 -81.5z" />
    <glyph glyph-name="c" unicode="c" horiz-adv-x="468" 
d="M149 254q0 -182 141 -182q45 0 105 27q15 6 21 -9l18 -44q5 -14 -8 -21q-61 -37 -154 -37q-121 0 -179 68.5t-58 186t59.5 190.5t177.5 73q90 0 133 -49t43 -125q0 -13 -17 -13h-60q-16 0 -17 15q-5 88 -89 88q-60 0 -88 -41.5t-28 -126.5z" />
    <glyph glyph-name="d" unicode="d" horiz-adv-x="583" 
d="M495 79h43q15 0 15 -15v-49q0 -15 -15 -15h-113q-13 0 -15 15l-8 59q-51 -86 -163 -86q-98 0 -151 61.5t-53 191t61.5 197.5t158.5 68q44 0 78 -16.5t50 -39.5v213h-53q-15 0 -15 15v53q0 15 15 15h150q15 0 15 -15v-652zM383 188v176q-13 20 -45.5 37t-65.5 17
q-124 0 -124 -168q0 -129 56 -161q24 -14 66 -14t77.5 31t35.5 82z" />
    <glyph glyph-name="e" unicode="e" horiz-adv-x="489" 
d="M265 -12q-119 0 -174.5 69.5t-55.5 184t59 189.5t170 75q55 0 94.5 -20.5t60.5 -55.5q40 -68 40 -157q0 -42 -4 -46t-15 -4h-294q5 -72 35.5 -111.5t105.5 -39.5q55 0 113 26q14 7 20 -8l19 -46q5 -12 -9 -20q-66 -36 -165 -36zM146 297h208q2 125 -98 125
q-59 0 -83.5 -37.5t-26.5 -87.5z" />
    <glyph glyph-name="f" unicode="f" horiz-adv-x="358" 
d="M209 414v-335h106q15 0 15 -15v-49q0 -15 -15 -15h-280q-15 0 -15 15v49q0 15 15 15h62v335h-62q-15 0 -15 15v51q0 15 15 15h62v97q0 120 75 153q31 14 85 14t110 -25q9 -4 9 -10t-1 -9l-15 -50q-5 -12 -17 -7q-40 18 -76 18t-47 -23.5t-11 -84.5v-73h121q15 0 15 -15
v-51q0 -15 -15 -15h-121z" />
    <glyph glyph-name="g" unicode="g" horiz-adv-x="570" 
d="M490 413v-355q0 -64 -5 -119q-8 -85 -62.5 -132t-154.5 -47t-168 30q-12 5 -8 20l18 53q4 14 20 8q61 -25 123.5 -25t93.5 30t31 106v78q-44 -72 -142 -72t-149.5 63t-51.5 191.5t60.5 196t152 67.5t147.5 -65l10 39q5 15 18 15h122q15 0 15 -15v-52q0 -15 -15 -15h-55z
M378 187v178q-4 6 -12.5 15t-37 23.5t-61.5 14.5q-53 0 -86 -39.5t-33 -126.5t24 -132.5t93 -45.5q44 0 78.5 31t34.5 82z" />
    <glyph glyph-name="h" unicode="h" horiz-adv-x="599" 
d="M20 679v52q0 15 15 15h151q15 0 15 -15v-308q56 83 155 83q155 0 155 -170v-257h59q15 0 15 -15v-49q0 -15 -15 -15h-219q-15 0 -15 15v49q0 15 15 15h48v207q0 63 -16 92t-66 29t-83 -30t-33 -68v-230h61q15 0 15 -15v-49q0 -15 -15 -15h-227q-15 0 -15 15v49
q0 15 15 15h54v585h-54q-15 0 -15 15z" />
    <glyph glyph-name="i" unicode="i" horiz-adv-x="294" 
d="M206 79h63q15 0 15 -15v-49q0 -15 -15 -15h-238q-15 0 -15 15v49q0 15 15 15h63v334h-54q-15 0 -15 15v52q0 15 15 15h151q15 0 15 -15v-401zM66 635q0 31 19.5 51.5t52 20.5t52 -20.5t19.5 -51.5t-20 -51t-52.5 -20t-51.5 20t-19 51z" />
    <glyph glyph-name="j" unicode="j" horiz-adv-x="289" 
d="M206 480v-521q0 -199 -177 -199q-76 0 -120 21q-9 5 -9 10.5t1 9.5l20 55q5 13 19 8q33 -12 70 -12q84 0 84 117v444h-54q-15 0 -15 15v52q0 15 15 15h151q15 0 15 -15zM66 635q0 31 19.5 51.5t52 20.5t52 -20.5t19.5 -51.5t-20 -51t-52.5 -20t-51.5 20t-19 51z" />
    <glyph glyph-name="k" unicode="k" horiz-adv-x="566" 
d="M206 731v-399h51l155 152q11 11 26 11h78q15 0 15 -15v-52q0 -15 -15 -15h-61l-110 -107l137 -227h59q15 0 15 -15v-49q0 -15 -15 -15h-129q-14 0 -23 13l-150 242h-33v-176h53q15 0 15 -15v-49q0 -15 -15 -15h-218q-15 0 -15 15v49q0 15 15 15h53v586h-54q-15 0 -15 15
v51q0 15 15 15h151q15 0 15 -15z" />
    <glyph glyph-name="l" unicode="l" horiz-adv-x="294" 
d="M206 731v-652h63q15 0 15 -15v-49q0 -15 -15 -15h-238q-15 0 -15 15v49q0 15 15 15h63v585h-54q-15 0 -15 15v52q0 15 15 15h151q15 0 15 -15z" />
    <glyph glyph-name="m" unicode="m" horiz-adv-x="893" 
d="M25 428v52q0 15 15 15h137q13 0 15 -15l8 -58q52 84 156 84t137 -88q54 88 157 88q155 0 155 -170v-257h57q15 0 15 -15v-49q0 -15 -15 -15h-220q-15 0 -15 15v49q0 15 15 15h51v207q0 63 -16 92t-64.5 29t-77.5 -26t-29 -61v-241h48q15 0 15 -15v-49q0 -15 -15 -15h-205
q-15 0 -15 15v49q0 15 15 15h45v207q0 63 -16 92t-65.5 29t-78 -29.5t-28.5 -68.5v-230h61q15 0 15 -15v-49q0 -15 -15 -15h-226q-15 0 -15 15v49q0 15 15 15h53v334h-54q-15 0 -15 15z" />
    <glyph glyph-name="n" unicode="n" horiz-adv-x="604" 
d="M25 427v53q0 15 15 15h136q13 0 16 -15l9 -58q56 84 160 84q155 0 155 -170v-257h58q15 0 15 -15v-49q0 -15 -15 -15h-218q-15 0 -15 15v49q0 15 15 15h48v207q0 63 -16 92t-66 29t-83 -30t-33 -68v-230h62q15 0 15 -15v-49q0 -15 -15 -15h-227q-15 0 -15 15v49
q0 15 15 15h53v334h-54q-15 0 -15 14z" />
    <glyph glyph-name="o" unicode="o" horiz-adv-x="532" 
d="M35 240q0 75 23 130t60 83q71 53 154 53q61 0 103 -19t65.5 -44t40 -72t16.5 -110q0 -134 -67.5 -203.5t-172.5 -69.5t-163.5 63.5t-58.5 188.5zM265 70q60 0 87.5 44.5t27.5 132.5t-27.5 132.5t-89.5 44.5q-115 0 -115 -162q0 -192 117 -192z" />
    <glyph glyph-name="p" unicode="p" horiz-adv-x="584" 
d="M89 -151v564h-54q-15 0 -15 15v52q0 15 15 15h136q12 0 15 -15l10 -60q51 86 157 86q92 0 144 -60.5t52 -178.5q0 -143 -61 -211t-157 -68q-79 0 -130 42v-180h106q15 0 15 -15v-50q0 -15 -15 -15h-271q-15 0 -15 15v49q0 15 15 15h53zM201 304v-191q16 -16 49 -29
t65 -13q58 0 89.5 39.5t31.5 133.5q0 128 -56 157q-24 13 -66 13t-77.5 -29.5t-35.5 -80.5z" />
    <glyph glyph-name="q" unicode="q" horiz-adv-x="575" 
d="M495 -152h53q15 0 15 -15v-48q0 -15 -15 -15h-150q-15 0 -15 15v278q-47 -75 -145.5 -75t-150.5 63t-52 190t61.5 196t158.5 69q47 0 85.5 -18.5t58.5 -48.5l10 41q5 15 16 15h125q15 0 15 -15v-52q0 -15 -15 -15h-55v-565zM383 189v175q-4 6 -12.5 15t-37 23.5
t-61.5 14.5q-56 0 -90 -40t-34 -123q0 -134 56 -166q24 -14 67 -14t77.5 31.5t34.5 83.5z" />
    <glyph glyph-name="r" unicode="r" horiz-adv-x="451" 
d="M255 477.5q38 28.5 83 28.5t69 -8q12 -4 12 -18v-135q0 -15 -15 -15h-65q-15 0 -14 15l4 58q-5 1 -17 1q-46 0 -76 -37.5t-30 -100.5v-187h110q15 0 15 -15v-49q0 -15 -15 -15h-275q-15 0 -15 15v49q0 15 15 15h53v334h-54q-15 0 -15 15v52q0 15 15 15h132q14 0 17 -15
l11 -71q17 40 55 68.5z" />
    <glyph glyph-name="s" unicode="s" horiz-adv-x="441" 
d="M107 462q51 44 129 44t135 -18q14 -4 14 -18v-106q0 -15 -15 -15h-58q-16 0 -13 15l5 51q-30 16 -66 16q-80 0 -80 -56q0 -29 26 -46t63 -27.5t74.5 -24t63.5 -46t26 -82.5q0 -76 -53 -118.5t-149 -42.5q-67 0 -141 20q-13 4 -13 19v106q0 15 15 15h58q15 0 14 -15
l-3 -52q27 -20 77 -20q89 0 89 63q0 32 -25.5 50.5t-62 28.5t-73.5 22.5t-62.5 44t-25.5 82.5q0 66 51 110z" />
    <glyph glyph-name="t" unicode="t" horiz-adv-x="369" 
d="M199 413v-252q0 -47 12 -68t45 -21t64 14q11 4 16 -8l18 -46q1 -3 1 -8.5t-10 -11.5q-48 -24 -114 -24q-89 0 -117 46q-20 30 -23 58q-4 38 -4 80v241h-57q-15 0 -15 15v52q0 15 15 15h57v135q0 15 15 15h82q15 0 15 -15v-135h101q15 0 15 -15v-52q0 -15 -15 -15h-101z
" />
    <glyph glyph-name="u" unicode="u" horiz-adv-x="599" 
d="M510 79h44q15 0 15 -15v-49q0 -15 -15 -15h-112q-12 0 -15 15l-9 56q-64 -83 -168 -83q-162 0 -162 170v255h-53q-15 0 -15 15v52q0 15 15 15h150q15 0 15 -15v-292q0 -60 15.5 -85.5t66 -25.5t83.5 30t33 68v238h-63q-15 0 -15 15v52q0 15 15 15h160q15 0 15 -15v-401z
" />
    <glyph glyph-name="v" unicode="v" horiz-adv-x="519" 
d="M165 481l116 -370l105 302h-51q-15 0 -15 15v52q0 15 15 15h146q12 0 16 -7t4 -12.5t-2 -10.5l-171 -451q-4 -14 -20 -14h-86q-14 0 -20 14l-137 399h-50q-15 0 -15 15v52q0 15 15 15h131q15 0 19 -14z" />
    <glyph glyph-name="w" unicode="w" horiz-adv-x="781" 
d="M165 480l91 -357l99 358q4 14 19 14h80q15 0 19 -14l102 -360l89 292h-48q-15 0 -15 15v52q0 15 15 15h128q12 0 16.5 -6.5t4.5 -11.5t-1 -9l-138 -454q-4 -14 -19 -14h-90q-15 0 -19 15l-95 353l-99 -354q-4 -14 -19 -14h-90q-15 0 -19 14l-109 399h-52q-15 0 -15 15v52
q0 15 15 15h131q15 0 19 -15z" />
    <glyph glyph-name="x" unicode="x" horiz-adv-x="553" 
d="M520 480v-52q0 -15 -15 -15h-60l-112 -150l113 -184h69q15 0 15 -15v-49q0 -15 -15 -15h-131q-14 0 -23 13l-98 166l-73 -100h55q15 0 15 -15v-49q0 -15 -15 -15h-207q-15 0 -15 15v49q0 15 15 15h52l127 169l-100 165h-64q-15 0 -15 15v52q0 15 15 15h125q15 0 22 -13
l88 -155l64 86h-37q-15 0 -15 15v52q0 15 15 15h190q15 0 15 -15z" />
    <glyph glyph-name="y" unicode="y" horiz-adv-x="519" 
d="M165 481l117 -364l104 296h-51q-15 0 -15 15v52q0 15 15 15h146q12 0 16 -7t4 -12.5t-2 -10.5l-214 -559q-15 -38 -25.5 -58.5t-29.5 -43.5q-37 -44 -109 -44t-118 22q-8 4 -8 10t1 9l17 49q4 13 19 9q48 -16 78.5 -16t47 15.5t34.5 64.5l25 66l-152 424h-50
q-15 0 -15 15v52q0 15 15 15h131q15 0 19 -14z" />
    <glyph glyph-name="z" unicode="z" horiz-adv-x="452" 
d="M422 141l-1 -126q0 -15 -15 -15h-356q-15 0 -15 15v58q0 15 9 27l249 315h-166l2 -53q1 -15 -14 -15h-55q-15 0 -15 15v118q0 15 15 15h343q15 0 15 -15v-56q0 -15 -9 -27l-255 -319h185l-2 63q-1 15 14 15h56q15 0 15 -15z" />
    <glyph glyph-name="braceleft" unicode="{" horiz-adv-x="328" 
d="M137 273h-78q-11 0 -15 4t-4 15v48q0 11 4 15t15 4h78l-27 368q-1 11 3 15t15 4h153q11 0 15 -4t4 -15v-51q0 -11 -4 -15t-15 -3l-68 5v-733l68 5q11 1 15 -3t4 -15v-48q0 -11 -4 -15t-15 -4h-153q-11 0 -15 4t-3 15z" />
    <glyph glyph-name="bar" unicode="|" horiz-adv-x="257" 
d="M167 726v-808q0 -11 -4 -15t-15 -4h-39q-11 0 -15 4t-4 15v808q0 11 4 15t15 4h39q11 0 15 -4t4 -15z" />
    <glyph glyph-name="braceright" unicode="}" horiz-adv-x="330" 
d="M281 273h-78l27 -404q1 -11 -3 -15t-15 -4h-153q-11 0 -15 4t-4 15v48q0 11 4 15t15 3l68 -5v733l-68 -5q-11 -1 -15 3t-4 15v51q0 11 4 15t15 4h153q11 0 15 -4t3 -15l-27 -368h78q11 0 15 -4t4 -15v-48q0 -11 -4 -15t-15 -4z" />
    <glyph glyph-name="asciitilde" unicode="~" horiz-adv-x="636" 
d="M104.5 335.5q32.5 32.5 70.5 32.5t134.5 -27.5t125.5 -27.5t41.5 7.5t12.5 27t15 19.5h37q15 0 15 -19q0 -68 -30 -100t-77 -32t-144.5 27t-120 27t-31 -9.5t-8.5 -32.5q0 -13 -14 -13h-44q-15 0 -15 16q0 72 32.5 104.5z" />
    <glyph glyph-name="uni00A0" unicode="&#xa0;" horiz-adv-x="200" 
 />
    <glyph glyph-name="exclamdown" unicode="&#xa1;" horiz-adv-x="253" 
d="M114 338h24q11 0 15 -4t5 -15l22 -333v-151q0 -11 -4 -15t-15 -4h-70q-11 0 -15 4t-4 15v149l22 335q1 11 5 15t15 4zM76.5 493.5q18.5 17.5 50 17.5t49 -18t17.5 -45t-18.5 -44t-48.5 -17t-49 18t-19 44.5t18.5 44z" />
    <glyph glyph-name="cent" unicode="&#xa2;" horiz-adv-x="468" 
d="M224 -62h-4q-11 0 -14.5 4t-1.5 15l11 84q-151 35 -151 232q0 102 54.5 168.5t159.5 67.5l9 68q2 11 6.5 15t15.5 4h4q11 0 14.5 -4t1.5 -15l-9 -70q59 -11 90.5 -53t31.5 -105q1 -11 -3 -15t-15 -4h-44q-12 0 -15.5 3.5t-5.5 15.5q-6 66 -50 79l-41 -308q9 -2 40 -2
t79 20q18 8 24 -10l12 -35q4 -11 2.5 -16t-11.5 -10q-64 -33 -137 -33h-21l-10 -77q-2 -11 -6.5 -15t-15.5 -4zM267 431q-50 -4 -75.5 -44.5t-25.5 -109.5q0 -105 61 -146z" />
    <glyph glyph-name="sterling" unicode="&#xa3;" horiz-adv-x="454" 
d="M141 0l-108 -4q-7 0 -11 2.5t-6 14.5l-3 12q-1 5 -1 13.5t19 22.5q58 43 61 172h-41q-11 0 -14.5 4t-2.5 15l3 24q2 11 6 15t15 4h38l4 65q6 89 56 130t127 41q45 0 111 -16q11 -3 14.5 -7.5t3.5 -16.5v-107q0 -11 -4 -15t-15 -4h-42q-11 0 -15 4t-3 15l4 51
q-28 19 -65.5 19t-52.5 -20t-18 -67l-4 -72h144q11 0 14.5 -4t1.5 -15l-3 -26q-1 -12 -5.5 -15.5t-16.5 -3.5h-139q-2 -50 -13.5 -80t-42.5 -68h211l-4 52q-1 11 3 15t15 4h48q11 0 15 -4t4 -15v-116q0 -11 -4 -15t-15 -4h-269z" />
    <glyph glyph-name="yen" unicode="&#xa5;" horiz-adv-x="523" 
d="M215 220h-104q-11 0 -15 4t-4 15v13q0 11 4 15t15 4h82l-122 160h-35q-11 0 -15 3.5t-4 14.5v43q0 11 4 15t15 4h191q11 0 15 -4t4 -15v-43q0 -11 -4 -14.5t-15 -3.5h-42l93 -127l94 127h-42q-11 0 -15 3.5t-4 14.5v43q0 11 4 15t15 4h151q11 0 15 -4t4 -15v-43
q0 -11 -4 -14.5t-15 -3.5h-32l-120 -160h82q11 0 15 -4t4 -15v-13q0 -11 -4 -15t-15 -4h-104v-44h104q11 0 15 -4t4 -15v-13q0 -11 -4 -15t-15 -4h-104v-46h33q11 1 15 -3t4 -15v-42q0 -11 -4 -15t-15 -4h-157q-11 0 -15 4t-4 15v42q0 11 4 15t15 3h32v46h-104q-11 0 -15 4
t-4 15v13q0 11 4 15t15 4h104v44z" />
    <glyph glyph-name="brokenbar" unicode="&#xa6;" horiz-adv-x="257" 
d="M167 214v-296q0 -11 -4 -15t-15 -4h-39q-11 0 -15 4t-4 15v296q0 11 4 15t15 4h39q11 0 15 -4t4 -15zM109 745h39q11 0 15 -4t4 -15v-264q0 -11 -4 -15t-15 -4h-39q-11 0 -15 4t-4 15v264q0 11 4 15t15 4z" />
    <glyph glyph-name="section" unicode="&#xa7;" horiz-adv-x="573" 
d="M270.5 65q-29.5 52 -82.5 119.5t-74.5 99.5t-40 79t-18.5 94q0 102 67 170t183 68q197 0 197 -156q0 -7 -3 -10.5t-14 -3.5h-50q-11 0 -15 4t-6 15q-11 75 -89.5 75t-78.5 -59q0 -53 109 -185q49 -59 59.5 -76t23.5 -37.5t18 -32t13.5 -31t11.5 -34.5q9 -43 9 -70
q0 -118 -73.5 -196.5t-182.5 -78.5q-78 0 -125 33t-52 120q-1 11 2.5 15t14.5 4h49q12 0 15.5 -3.5t5.5 -15.5q6 -77 81 -77q32 0 53.5 17.5t21.5 59t-29.5 93.5zM379 -50q25 56 25 117t-26.5 115.5t-63.5 98.5t-73 89q-74 91 -74 172q0 12 2 25l-6 3q-19 -43 -19 -95.5
t27 -101.5t64 -94t73 -93q73 -99 73 -201q0 -17 -2 -35z" />
    <glyph glyph-name="dieresis" unicode="&#xa8;" 
d="M373.5 611.5q-17.5 -16.5 -45 -16.5t-44.5 16.5t-17 45t17 44.5t45 16q62 0 62 -60q0 -29 -17.5 -45.5zM170.5 611.5q-17.5 -16.5 -45 -16.5t-44.5 16.5t-17 45t17 44.5t45 16q62 0 62 -60q0 -29 -17.5 -45.5z" />
    <glyph glyph-name="copyright" unicode="&#xa9;" horiz-adv-x="880" 
d="M178.5 592.5q100.5 100.5 259 100.5t261.5 -99.5t103 -252.5t-102 -253t-265.5 -100t-260 98t-96.5 252t100.5 254.5zM209 110q88 -88 228.5 -88t231 86t90.5 229t-92 232t-233.5 89t-227 -88t-85.5 -230t88 -230zM449 480q-96 0 -96 -134q0 -66 20 -100.5t70 -34.5
q34 0 52 11.5t22 41.5q2 11 6 15t15 4h23q11 0 15 -4t3 -15q-2 -53 -37.5 -85t-104.5 -32q-89 0 -130 54.5t-41 141.5t45.5 144t138.5 57q63 0 95.5 -32t34.5 -85q0 -11 -4 -15t-15 -4h-23q-11 0 -15 4t-6 15q-7 53 -68 53z" />
    <glyph glyph-name="ordfeminine" unicode="&#xaa;" horiz-adv-x="530" 
d="M308 547v25q0 31 -11.5 47.5t-46.5 16.5t-48 -11.5t-18 -34.5q-3 -10 -11 -10h-53q-10 0 -10 10q4 54 44 80t111.5 26t100 -31t28.5 -86v-186h30q11 0 11 -11v-37q0 -11 -11 -11h-92q-9 0 -11 11l-5 33q-38 -53 -111 -53q-46 0 -76 24t-30 77q0 58 37 82q19 13 36.5 21
t46.5 11q39 5 89 7zM310 444v53q-67 0 -81 -6t-25 -13q-20 -12 -20 -44q0 -47 49 -47q37 0 57 17t20 40z" />
    <glyph glyph-name="guillemotleft" unicode="&#xab;" horiz-adv-x="493" 
d="M190 492h58q19 0 11 -17l-95 -187l92 -187q8 -17 -11 -17h-60q-20 0 -27 17l-85 169q-3 8 -3 16.5t4 17.5l88 171q8 17 28 17zM356 492h58q13 0 13 -8q0 -4 -2 -9l-95 -187l92 -187q8 -17 -11 -17h-60q-20 0 -27 17l-85 169q-3 8 -3 16.5t4 17.5l88 171q8 17 28 17z" />
    <glyph glyph-name="logicalnot" unicode="&#xac;" horiz-adv-x="530" 
d="M476 167h-25q-11 0 -15 4t-4 15v99h-378q-11 0 -15 4t-4 15v27q0 11 4 15t15 4h422q11 0 15 -4t4 -15v-145q0 -11 -4 -15t-15 -4z" />
    <glyph glyph-name="uni00AD" unicode="&#xad;" horiz-adv-x="282" 
d="M233 218h-184q-11 0 -15 4t-4 15v39q0 11 4 15t15 4h184q11 0 15 -4t4 -15v-39q0 -11 -4 -15t-15 -4z" />
    <glyph glyph-name="registered" unicode="&#xae;" horiz-adv-x="498" 
d="M115.5 692q50.5 50 129.5 50t131 -49.5t52 -126t-51 -126.5t-133 -50t-130.5 49t-48.5 126t50.5 127zM135.5 455q42.5 -42 110 -42t111 41t43.5 110t-44 112t-112.5 43t-109.5 -42t-41 -111t42.5 -111zM232 481h-57q-8 0 -8 7v7q0 7 7 7h12v134h-11q-8 0 -8 8v11q0 8 9 8
h71q63 0 63 -48q0 -33 -34 -47l34 -66h18q8 0 8 -7v-7q0 -7 -8 -7h-39q-8 0 -10 6l-36 73h-23v-58h12q8 0 8 -9v-4q0 -8 -8 -8zM237 636h-17v-52h16q38 0 38 29q0 23 -37 23z" />
    <glyph glyph-name="macron" unicode="&#xaf;" 
d="M380 622h-260q-11 0 -15 4t-4 15v43q0 11 4 15t15 4h260q11 0 15 -4t4 -15v-43q0 -11 -4 -15t-15 -4z" />
    <glyph glyph-name="degree" unicode="&#xb0;" horiz-adv-x="336" 
d="M168 668q-40 0 -67.5 -27.5t-27.5 -67.5t27.5 -67.5t67.5 -27.5t67.5 27.5t27.5 67.5t-27.5 67.5t-67.5 27.5zM168 435q-57 0 -97.5 40.5t-40.5 97.5t40.5 97.5t97.5 40.5t97.5 -40.5t40.5 -97.5t-40.5 -97.5t-97.5 -40.5z" />
    <glyph glyph-name="plusminus" unicode="&#xb1;" horiz-adv-x="530" 
d="M54 337h173v173q0 11 4 15t15 4h35q11 0 15 -4t4 -15v-173h176q11 0 15 -4t4 -15v-27q0 -11 -4 -15t-15 -4h-176v-207h176q11 0 15 -4t4 -15v-27q0 -11 -4 -15t-15 -4h-422q-11 0 -15 4t-4 15v27q0 11 4 15t15 4h173v207h-173q-11 0 -15 4t-4 15v27q0 11 4 15t15 4z" />
    <glyph glyph-name="twosuperior" unicode="&#xb2;" horiz-adv-x="345" 
d="M161 696q-56 0 -64 -49q-2 -12 -6.5 -15.5t-16.5 -3.5h-29q-11 0 -14 3.5t-3 10.5q0 55 40 86t100 31q138 0 138 -121q0 -99 -147 -185h143q15 0 15 -15v-35q0 -15 -15 -15h-237q-11 0 -15 4t-4 15v16q0 17 17 27q71 45 114.5 89.5t43.5 95.5q0 30 -13 45.5t-47 15.5z
" />
    <glyph glyph-name="threesuperior" unicode="&#xb3;" horiz-adv-x="335" 
d="M155 701q-50 0 -59 -40q-3 -12 -7.5 -15.5t-15.5 -3.5h-23q-12 0 -15.5 4t-2.5 15q4 49 42 73.5t96 24.5t91.5 -25.5t33.5 -71.5q0 -56 -64 -87q31 -6 52 -27.5t21 -58.5q0 -55 -41.5 -86t-110.5 -31q-130 0 -130 104q0 7 3 10.5t14 3.5h35q11 0 15 -4t6 -15
q6 -42 59 -42q70 0 70 56q0 28 -14 40q-20 16 -89 16q-11 0 -15 4t-4 15v20q0 11 4 15t20 4t38 2q53 5 53 52.5t-62 47.5z" />
    <glyph glyph-name="acute" unicode="&#xb4;" 
d="M180 580q-15 0 -15 9q0 3 2 9l42 116q4 11 8.5 14.5t16.5 3.5h72q14 0 14 -5t-4 -12l-65 -118q-5 -10 -10.5 -13.5t-17.5 -3.5h-43z" />
    <glyph glyph-name="mu" unicode="&#xb5;" horiz-adv-x="599" 
d="M510 79h44q15 0 15 -15v-49q0 -15 -15 -15h-112q-12 0 -15 15l-9 56q-58 -78 -154 -78q-41 0 -71 10v-190q0 -15 -15 -15h-75q-15 0 -15 15v667q0 15 15 15h82q15 0 15 -15v-294q0 -60 15.5 -85.5t66 -25.5t83.5 31t33 69v305q0 15 15 15h82q15 0 15 -15v-401z" />
    <glyph glyph-name="paragraph" unicode="&#xb6;" horiz-adv-x="525" 
d="M466 597h-49v-558q0 -199 -177 -199q-56 0 -107 18q-10 4 -12.5 9t1.5 15l16 45q4 11 8.5 13t25 -5t59.5 -7t58 28t19 92v228h-28q-105 0 -162.5 51.5t-57.5 149.5q0 58 23.5 99t63.5 62q75 41 178 41h141q11 0 15 -4t4 -15v-45q0 -11 -4 -15t-15 -3z" />
    <glyph glyph-name="periodcentered" unicode="&#xb7;" horiz-adv-x="253" 
d="M126 279q-35 0 -55 19.5t-20 49t21 49.5t54 20t54 -19t21 -49t-20 -50t-55 -20z" />
    <glyph glyph-name="cedilla" unicode="&#xb8;" 
d="M240 3h42l-22 -35l16 -14q38 -33 38 -62q0 -41 -96 -105q-5 -3 -10.5 -3t-10.5 6l-8 10q-4 5 -4 10t5 10q41 36 41 56t-22 37l-9 7q-10 9 -3 21z" />
    <glyph glyph-name="onesuperior" unicode="&#xb9;" horiz-adv-x="301" 
d="M73 749h113q11 0 15 -4t4 -15v-275h46q11 1 15 -3t4 -15v-30q0 -11 -4 -15t-15 -4h-174q-11 0 -15 4t-4 15v30q0 11 4 15t15 3h43v229l-47 -2q-11 -1 -15 3t-4 15v30q0 11 4 15t15 4z" />
    <glyph glyph-name="ordmasculine" unicode="&#xba;" horiz-adv-x="532" 
d="M213 686.5q28 9.5 53.5 9.5t43.5 -2t43 -12.5t42 -28t29 -51.5t12 -81q0 -94 -50 -144.5t-127 -50.5t-120 45.5t-43 134.5q0 53 17 92t44.5 59t55.5 29.5zM179 526q0 -138 85.5 -138t85.5 124.5t-86 124.5q-43 0 -64 -31t-21 -80z" />
    <glyph glyph-name="guillemotright" unicode="&#xbb;" horiz-adv-x="493" 
d="M79 84q-14 0 -14 5t4 12l95 188l-93 186q-8 17 11 17h60q20 0 27 -17l85 -169q3 -8 3 -16.5t-4 -17.5l-88 -171q-5 -10 -10.5 -13.5t-17.5 -3.5h-58zM245 84q-14 0 -14 5t4 12l95 188l-93 186q-8 17 11 17h60q20 0 27 -17l85 -169q3 -8 3 -16.5t-4 -17.5l-88 -171
q-5 -10 -10.5 -13.5t-17.5 -3.5h-58z" />
    <glyph glyph-name="onequarter" unicode="&#xbc;" horiz-adv-x="900" 
d="M118 642h113q11 0 15 -4t4 -15v-275h46q11 1 15 -3t4 -15v-30q0 -11 -4 -15t-15 -4h-174q-11 0 -15 4t-4 15v30q0 11 4 15t15 3h43v229l-47 -2q-11 -1 -15 3t-4 15v30q0 11 4 15t15 4zM680 662l-320 -662q-8 -17 -27 -17h-39q-13 0 -13 8q0 4 2 9l319 662q8 17 27 17h40
q19 0 11 -17zM754 0h-50q-15 0 -15 15v58h-146q-11 0 -15 4t-4 15v19q0 17 11 34l137 201q11 15 30 15h48q11 0 15 -4t4 -15v-211h44q11 0 15 -4t4 -15v-20q0 -11 -4 -15t-15 -4h-44v-58q0 -15 -15 -15zM689 281l-102 -150h102v150z" />
    <glyph glyph-name="onehalf" unicode="&#xbd;" horiz-adv-x="900" 
d="M118 642h113q11 0 15 -4t4 -15v-275h46q11 1 15 -3t4 -15v-30q0 -11 -4 -15t-15 -4h-174q-11 0 -15 4t-4 15v30q0 11 4 15t15 3h43v229l-47 -2q-11 -1 -15 3t-4 15v30q0 11 4 15t15 4zM653 662l-320 -662q-5 -11 -10 -14t-17 -3h-39q-13 0 -13 8q0 4 2 9l319 662
q5 11 10 14t17 3h40q19 0 11 -17zM671 308q-56 0 -64 -49q-2 -12 -6.5 -15.5t-16.5 -3.5h-29q-11 0 -14 3.5t-3 10.5q0 55 40 86t100 31q138 0 138 -121q0 -99 -147 -185h143q15 0 15 -15v-35q0 -15 -15 -15h-237q-11 0 -15 4t-4 15v16q0 17 17 27q71 45 114.5 89.5
t43.5 95.5q0 30 -13 45.5t-47 15.5z" />
    <glyph glyph-name="threequarters" unicode="&#xbe;" horiz-adv-x="900" 
d="M201 594q-50 0 -59 -40q-3 -12 -7.5 -15.5t-15.5 -3.5h-23q-12 0 -15.5 4t-2.5 15q4 49 42 73.5t96 24.5t91.5 -25.5t33.5 -71.5q0 -56 -64 -87q31 -6 52 -27.5t21 -58.5q0 -55 -41.5 -86t-110.5 -31q-130 0 -130 104q0 7 3 10.5t14 3.5h35q11 0 15 -4t6 -15
q6 -42 59 -42q70 0 70 56q0 28 -14 40q-20 16 -89 16q-11 0 -15 4t-4 15v20q0 11 4 15t20 4t38 2q53 5 53 52.5t-62 47.5zM681 662l-320 -662q-5 -11 -10 -14t-17 -3h-39q-13 0 -13 8q0 4 2 9l319 662q5 11 10 14t17 3h40q19 0 11 -17zM754 0h-50q-15 0 -15 15v58h-146
q-11 0 -15 4t-4 15v19q0 17 11 34l137 201q11 15 30 15h48q11 0 15 -4t4 -15v-211h44q11 0 15 -4t4 -15v-20q0 -11 -4 -15t-15 -4h-44v-58q0 -15 -15 -15zM689 281l-102 -150h102v150z" />
    <glyph glyph-name="questiondown" unicode="&#xbf;" horiz-adv-x="465" 
d="M239 336h48q11 0 15 -4t4 -15v-170q0 -11 -3.5 -15.5t-14.5 -7.5q-144 -32 -144 -144q0 -105 96 -105q87 0 97 86q2 11 6 15t15 4h53q18 0 18 -15q0 -81 -56 -124t-144.5 -43t-141 44.5t-52.5 131.5t50.5 140t134.5 75v128q0 11 4 15t15 4zM214.5 493q17.5 18 49 18
t50 -17.5t18.5 -44t-19 -44.5t-49 -18t-48.5 17t-18.5 44t17.5 45z" />
    <glyph glyph-name="Agrave" unicode="&#xc0;" horiz-adv-x="696" 
d="M214 214l-46 -135h60q15 0 15 -15v-49q0 -15 -15 -15h-213q-15 0 -15 15v49q0 15 15 15h59l200 586q6 14 20 14h97q14 0 20 -14l202 -586h68q15 0 15 -15v-49q0 -15 -15 -15h-251q-15 0 -15 15v49q0 15 15 15h62l-47 135h-231zM329 583l-95 -294h189zM342 841l41 -92
q2 -5 2 -9q0 -8 -13 -8h-40q-19 0 -30 15l-65 96q-4 5 -4 10t12 5h70q19 0 27 -17z" />
    <glyph glyph-name="Aacute" unicode="&#xc1;" horiz-adv-x="696" 
d="M214 214l-46 -135h60q15 0 15 -15v-49q0 -15 -15 -15h-213q-15 0 -15 15v49q0 15 15 15h59l200 586q6 14 20 14h97q14 0 20 -14l202 -586h68q15 0 15 -15v-49q0 -15 -15 -15h-251q-15 0 -15 15v49q0 15 15 15h62l-47 135h-231zM329 583l-95 -294h189zM312 746l45 98
q6 14 21 14h78q9 0 9 -4t-3 -8l-70 -102q-8 -12 -23 -12h-48q-11 0 -11 7q0 3 2 7z" />
    <glyph glyph-name="Acircumflex" unicode="&#xc2;" horiz-adv-x="696" 
d="M214 214l-46 -135h60q15 0 15 -15v-49q0 -15 -15 -15h-213q-15 0 -15 15v49q0 15 15 15h59l200 586q6 14 20 14h97q14 0 20 -14l202 -586h68q15 0 15 -15v-49q0 -15 -15 -15h-251q-15 0 -15 15v49q0 15 15 15h62l-47 135h-231zM329 583l-95 -294h189zM258 732h-55
q-9 0 -9 4t3 8l82 107q9 12 24 12h76q15 0 24 -12l82 -107q3 -4 3 -8t-9 -4h-57q-16 0 -25 12l-58 71l-57 -71q-9 -12 -24 -12z" />
    <glyph glyph-name="Atilde" unicode="&#xc3;" horiz-adv-x="696" 
d="M214 214l-46 -135h60q15 0 15 -15v-49q0 -15 -15 -15h-213q-15 0 -15 15v49q0 15 15 15h59l200 586q6 14 20 14h97q14 0 20 -14l202 -586h68q15 0 15 -15v-49q0 -15 -15 -15h-251q-15 0 -15 15v49q0 15 15 15h62l-47 135h-231zM329 583l-95 -294h189zM200 837.5
q22 20.5 50 20.5t94 -20.5t89 -20.5q34 0 34 27q0 13 15 13h24q12 0 12 -14q0 -50 -21.5 -74.5t-54 -24.5t-98.5 19t-81 19q-30 0 -30 -22q0 -7 -2 -8.5t-10 -1.5h-31q-12 0 -12 14q0 53 22 73.5z" />
    <glyph glyph-name="Adieresis" unicode="&#xc4;" horiz-adv-x="696" 
d="M214 214l-46 -135h60q15 0 15 -15v-49q0 -15 -15 -15h-213q-15 0 -15 15v49q0 15 15 15h59l200 586q6 14 20 14h97q14 0 20 -14l202 -586h68q15 0 15 -15v-49q0 -15 -15 -15h-251q-15 0 -15 15v49q0 15 15 15h62l-47 135h-231zM329 583l-95 -294h189zM493.5 754.5
q-17.5 -16.5 -45 -16.5t-44.5 16.5t-17 45t17 44.5t45 16q62 0 62 -60q0 -29 -17.5 -45.5zM290.5 754.5q-17.5 -16.5 -45 -16.5t-44.5 16.5t-17 45t17 44.5t45 16q62 0 62 -60q0 -29 -17.5 -45.5z" />
    <glyph glyph-name="Aring" unicode="&#xc5;" horiz-adv-x="696" 
d="M214 214l-46 -135h60q15 0 15 -15v-49q0 -15 -15 -15h-213q-15 0 -15 15v49q0 15 15 15h59l200 586q6 14 20 14h97q14 0 20 -14l202 -586h68q15 0 15 -15v-49q0 -15 -15 -15h-251q-15 0 -15 15v49q0 15 15 15h62l-47 135h-231zM329 583l-95 -294h189zM415 735
q-28 -30 -73.5 -30t-71.5 29t-26 71.5t28.5 71.5t72.5 29t71 -28t27 -70.5t-28 -72.5zM344 854q-42 0 -42 -48q0 -21 11 -35t31 -14t31.5 14t11.5 35.5t-11.5 34.5t-31.5 13z" />
    <glyph glyph-name="AE" unicode="&#xc6;" horiz-adv-x="879" 
d="M437 214h-198l-71 -135h52q11 1 15 -3t4 -15v-42q0 -11 -4 -15t-15 -4h-201q-11 0 -15 4t-4 15v42q0 11 4 15t15 3h48l277 520h-48q-11 -1 -15 3t-4 15v43q0 11 4 15t15 4h524q11 0 15 -4t4 -15v-126q0 -11 -4 -15t-15 -4h-48q-11 0 -15 4t-3 15l4 65h-209v-213h149
l-4 47q-1 11 3 15t15 4h48q11 0 15 -4t4 -15v-169q0 -11 -4 -15t-15 -4h-48q-11 0 -15 4t-3 15l3 44h-148v-229h229l-4 66q-1 11 3 15t15 4h48q11 0 15 -4t4 -15v-126q0 -11 -4 -15t-15 -4h-452q-11 0 -15 4t-4 15v42q0 11 4 15t15 3h49v135zM437 289v310l-164 -310h164z
" />
    <glyph glyph-name="Ccedilla" unicode="&#xc7;" horiz-adv-x="629" 
d="M43 336q0 96 28.5 169t75.5 113q92 78 208.5 78t209.5 -51q13 -7 13 -20v-129q0 -15 -15 -15h-56q-15 0 -14 15l3 70q-62 42 -141 42q-192 0 -192 -256q0 -80 19 -139.5t67 -98.5t128 -39t120 32l-4 70q-1 15 14 15h57q15 0 15 -15v-127q0 -14 -10 -19q-78 -38 -177 -42
l-13 -21l16 -14q38 -33 38 -62q0 -41 -96 -105q-5 -3 -10.5 -3t-10.5 6l-8 10q-9 11 1 20q41 36 41 56t-22 37l-9 7q-11 9 -3 21l33 48q-155 5 -230.5 97.5t-75.5 249.5z" />
    <glyph glyph-name="Egrave" unicode="&#xc8;" horiz-adv-x="555" 
d="M220 599v-213h149l-4 51q-1 15 14 15h56q15 0 15 -15v-177q0 -15 -15 -15h-56q-15 0 -14 15l3 48h-148v-230h229l-4 71q-1 15 14 15h56q15 0 15 -15v-134q0 -15 -15 -15h-460q-15 0 -15 15v49q0 15 15 15h53v519h-53q-15 0 -15 15v51q0 15 15 15h440q15 0 15 -15v-134
q0 -15 -15 -15h-56q-15 0 -14 15l4 69h-209zM293 841l41 -92q2 -5 2 -9q0 -8 -13 -8h-40q-19 0 -30 15l-65 96q-4 5 -4 10t12 5h70q12 0 17 -3t10 -14z" />
    <glyph glyph-name="Eacute" unicode="&#xc9;" horiz-adv-x="555" 
d="M220 599v-213h149l-4 51q-1 15 14 15h56q15 0 15 -15v-177q0 -15 -15 -15h-56q-15 0 -14 15l3 48h-148v-230h229l-4 71q-1 15 14 15h56q15 0 15 -15v-134q0 -15 -15 -15h-460q-15 0 -15 15v49q0 15 15 15h53v519h-53q-15 0 -15 15v51q0 15 15 15h440q15 0 15 -15v-134
q0 -15 -15 -15h-56q-15 0 -14 15l4 69h-209zM271 746l45 98q6 14 21 14h78q9 0 9 -4t-3 -8l-70 -102q-7 -12 -23 -12h-48q-11 0 -11 7q0 3 2 7z" />
    <glyph glyph-name="Ecircumflex" unicode="&#xca;" horiz-adv-x="555" 
d="M220 599v-213h149l-4 51q-1 15 14 15h56q15 0 15 -15v-177q0 -15 -15 -15h-56q-15 0 -14 15l3 48h-148v-230h229l-4 71q-1 15 14 15h56q15 0 15 -15v-134q0 -15 -15 -15h-460q-15 0 -15 15v49q0 15 15 15h53v519h-53q-15 0 -15 15v51q0 15 15 15h440q15 0 15 -15v-134
q0 -15 -15 -15h-56q-15 0 -14 15l4 69h-209zM205 732h-55q-9 0 -9 4t3 8l82 107q9 12 24 12h76q15 0 24 -12l82 -107q3 -4 3 -8t-9 -4h-57q-16 0 -25 12l-58 71l-57 -71q-9 -12 -24 -12z" />
    <glyph glyph-name="Edieresis" unicode="&#xcb;" horiz-adv-x="555" 
d="M220 599v-213h149l-4 51q-1 15 14 15h56q15 0 15 -15v-177q0 -15 -15 -15h-56q-15 0 -14 15l3 48h-148v-230h229l-4 71q-1 15 14 15h56q15 0 15 -15v-134q0 -15 -15 -15h-460q-15 0 -15 15v49q0 15 15 15h53v519h-53q-15 0 -15 15v51q0 15 15 15h440q15 0 15 -15v-134
q0 -15 -15 -15h-56q-15 0 -14 15l4 69h-209zM436.5 754.5q-17.5 -16.5 -45 -16.5t-44.5 16.5t-17 45t17 44.5t45 16q62 0 62 -60q0 -29 -17.5 -45.5zM233.5 754.5q-17.5 -16.5 -45 -16.5t-44.5 16.5t-17 45t17 44.5t45 16q62 0 62 -60q0 -29 -17.5 -45.5z" />
    <glyph glyph-name="Igrave" unicode="&#xcc;" horiz-adv-x="328" 
d="M220 598v-519h53q15 0 15 -15v-49q0 -15 -15 -15h-218q-15 0 -15 15v49q0 15 15 15h53v519h-53q-15 0 -15 15v51q0 15 15 15h218q15 0 15 -15v-51q0 -15 -15 -15h-53zM161 841l41 -92q2 -5 2 -9q0 -8 -13 -8h-40q-19 0 -30 15l-65 96q-4 5 -4 10t12 5h70q12 0 17 -3
t10 -14z" />
    <glyph glyph-name="Iacute" unicode="&#xcd;" horiz-adv-x="328" 
d="M220 598v-519h53q15 0 15 -15v-49q0 -15 -15 -15h-218q-15 0 -15 15v49q0 15 15 15h53v519h-53q-15 0 -15 15v51q0 15 15 15h218q15 0 15 -15v-51q0 -15 -15 -15h-53zM116 746l45 98q6 14 21 14h78q9 0 9 -4t-3 -8l-70 -102q-8 -12 -23 -12h-48q-11 0 -11 7q0 3 2 7z" />
    <glyph glyph-name="Icircumflex" unicode="&#xce;" horiz-adv-x="328" 
d="M220 598v-519h53q15 0 15 -15v-49q0 -15 -15 -15h-218q-15 0 -15 15v49q0 15 15 15h53v519h-53q-15 0 -15 15v51q0 15 15 15h218q15 0 15 -15v-51q0 -15 -15 -15h-53zM81 732h-55q-9 0 -9 4t3 8l82 107q9 12 24 12h76q15 0 24 -12l82 -107q3 -4 3 -8t-9 -4h-57
q-16 0 -25 12l-58 71l-57 -71q-9 -12 -24 -12z" />
    <glyph glyph-name="Idieresis" unicode="&#xcf;" horiz-adv-x="328" 
d="M220 598v-519h53q15 0 15 -15v-49q0 -15 -15 -15h-218q-15 0 -15 15v49q0 15 15 15h53v519h-53q-15 0 -15 15v51q0 15 15 15h218q15 0 15 -15v-51q0 -15 -15 -15h-53zM309.5 754.5q-17.5 -16.5 -45 -16.5t-44.5 16.5t-17 45t17 44.5t45 16q62 0 62 -60q0 -29 -17.5 -45.5
zM106.5 754.5q-17.5 -16.5 -45 -16.5t-44.5 16.5t-17 45t17 44.5t45 16q62 0 62 -60q0 -29 -17.5 -45.5z" />
    <glyph glyph-name="Eth" unicode="&#xd0;" horiz-adv-x="692" 
d="M68 679q128 6 190 6t92.5 -2.5t69.5 -10.5t69.5 -21.5t61.5 -38.5t51 -58q47 -76 47 -196q0 -181 -100 -269.5t-273 -88.5h-208q-15 0 -15 15v49q0 15 15 15h52v235h-48q-11 0 -15 4t-4 15v15q0 11 4 15t15 4h48v231h-52q-15 0 -15 15v51q0 15 15 15zM468.5 150
q60.5 72 60.5 197t-56.5 190t-176.5 65h-64v-235h150q11 0 15 -4t4 -15v-15q0 -11 -4 -15t-15 -4h-150v-236h66q110 0 170.5 72z" />
    <glyph glyph-name="Ntilde" unicode="&#xd1;" horiz-adv-x="743" 
d="M645 598v-583q0 -15 -15 -15h-73q-15 0 -23 12l-339 501v-434h83q15 0 15 -15v-49q0 -15 -15 -15h-223q-15 0 -15 15v49q0 15 15 15h53v519h-53q-15 0 -15 15v51q0 15 15 15h147q14 0 23 -13l333 -506v438h-53q-15 0 -15 15v51q0 15 15 15h193q15 0 15 -15v-51
q0 -15 -15 -15h-53zM223 837.5q22 20.5 50 20.5t94 -20.5t89 -20.5q34 0 34 27q0 13 15 13h24q12 0 12 -14q0 -50 -21.5 -74.5t-54.5 -24.5t-99 19t-80 19q-30 0 -30 -22q0 -7 -2 -8.5t-10 -1.5h-31q-12 0 -12 14q0 53 22 73.5z" />
    <glyph glyph-name="Ograve" unicode="&#xd2;" horiz-adv-x="692" 
d="M43 333q0 100 30 174.5t79 113.5q93 75 202 75q37 0 71 -6t77 -26.5t73.5 -55t52 -98.5t21.5 -149q0 -180 -88.5 -276.5t-227 -96.5t-214.5 88t-76 257zM345 82q179 0 179 263t-182 263q-64 0 -105.5 -34.5t-57.5 -86t-16 -119.5q0 -286 182 -286zM364 841l41 -92
q2 -5 2 -9q0 -8 -13 -8h-40q-19 0 -30 15l-65 96q-4 5 -4 10t12 5h70q19 0 27 -17z" />
    <glyph glyph-name="Oacute" unicode="&#xd3;" horiz-adv-x="692" 
d="M43 333q0 100 30 174.5t79 113.5q93 75 202 75q37 0 71 -6t77 -26.5t73.5 -55t52 -98.5t21.5 -149q0 -180 -88.5 -276.5t-227 -96.5t-214.5 88t-76 257zM345 82q179 0 179 263t-182 263q-64 0 -105.5 -34.5t-57.5 -86t-16 -119.5q0 -286 182 -286zM315 746l45 98
q6 14 21 14h78q9 0 9 -4t-3 -8l-70 -102q-7 -12 -23 -12h-48q-11 0 -11 7q0 3 2 7z" />
    <glyph glyph-name="Ocircumflex" unicode="&#xd4;" horiz-adv-x="692" 
d="M43 333q0 100 30 174.5t79 113.5q93 75 202 75q37 0 71 -6t77 -26.5t73.5 -55t52 -98.5t21.5 -149q0 -180 -88.5 -276.5t-227 -96.5t-214.5 88t-76 257zM345 82q179 0 179 263t-182 263q-64 0 -105.5 -34.5t-57.5 -86t-16 -119.5q0 -286 182 -286zM273 732h-55q-9 0 -9 4
t3 8l82 107q9 12 24 12h76q15 0 24 -12l82 -107q3 -4 3 -8t-9 -4h-57q-16 0 -25 12l-58 71l-57 -71q-9 -12 -24 -12z" />
    <glyph glyph-name="Otilde" unicode="&#xd5;" horiz-adv-x="692" 
d="M43 333q0 100 30 174.5t79 113.5q93 75 202 75q37 0 71 -6t77 -26.5t73.5 -55t52 -98.5t21.5 -149q0 -180 -88.5 -276.5t-227 -96.5t-214.5 88t-76 257zM345 82q179 0 179 263t-182 263q-64 0 -105.5 -34.5t-57.5 -86t-16 -119.5q0 -286 182 -286zM198 837.5
q22 20.5 50 20.5t94 -20.5t89 -20.5q34 0 34 27q0 13 15 13h24q12 0 12 -14q0 -50 -21.5 -74.5t-54 -24.5t-98.5 19t-81 19q-30 0 -30 -22q0 -7 -2 -8.5t-10 -1.5h-31q-12 0 -12 14q0 53 22 73.5z" />
    <glyph glyph-name="Odieresis" unicode="&#xd6;" horiz-adv-x="692" 
d="M43 333q0 100 30 174.5t79 113.5q93 75 202 75q37 0 71 -6t77 -26.5t73.5 -55t52 -98.5t21.5 -149q0 -180 -88.5 -276.5t-227 -96.5t-214.5 88t-76 257zM345 82q179 0 179 263t-182 263q-64 0 -105.5 -34.5t-57.5 -86t-16 -119.5q0 -286 182 -286zM491.5 754.5
q-17.5 -16.5 -45 -16.5t-44.5 16.5t-17 45t17 44.5t45 16q62 0 62 -60q0 -29 -17.5 -45.5zM288.5 754.5q-17.5 -16.5 -45 -16.5t-44.5 16.5t-17 45t17 44.5t45 16q62 0 62 -60q0 -29 -17.5 -45.5z" />
    <glyph glyph-name="multiply" unicode="&#xd7;" horiz-adv-x="530" 
d="M88 169l123 122l-123 123q-6 6 -6 13t6 13l26 26q6 6 13 6l13 -6l122 -123l125 125q7 6 13 6l13 -6l20 -20q13 -13 0 -26l-125 -125l134 -133q6 -6 6 -13t-6 -13l-26 -26q-6 -6 -13 -6l-13 6l-133 133l-123 -122q-13 -13 -26 0l-20 20q-6 7 -6 13t6 13z" />
    <glyph glyph-name="Oslash" unicode="&#xd8;" horiz-adv-x="692" 
d="M43 333q0 100 30 174.5t79 113.5q93 75 202 75q41 0 80 -8l21 55q4 11 8.5 14.5t16.5 3.5h31q11 0 14 -3.5t-1 -14.5l-28 -76q153 -73 153 -306q0 -180 -88.5 -276.5t-227.5 -96.5q-47 0 -84 10l-24 -65q-4 -11 -8.5 -14.5t-16.5 -3.5h-30q-11 0 -14 3.5t1 14.5l32 86
q-146 76 -146 314zM345 82q179 0 179 260q0 156 -66 222l-174 -472q28 -10 61 -10zM163 368q0 -174 65 -241l174 472q-27 9 -60 9q-64 0 -105.5 -34.5t-57.5 -86t-16 -119.5z" />
    <glyph glyph-name="Ugrave" unicode="&#xd9;" horiz-adv-x="713" 
d="M205 598v-314q0 -50 5 -82.5t20 -63.5q29 -60 124.5 -60t132.5 52t37 151v317h-53q-15 0 -15 15v51q0 15 15 15h202q15 0 15 -15v-51q0 -15 -15 -15h-53v-338q0 -110 -52 -186q-28 -40 -81.5 -63t-129.5 -23q-148 0 -206 64.5t-58 196.5v349h-53q-15 0 -15 15v51
q0 15 15 15h218q15 0 15 -15v-51q0 -15 -15 -15h-53zM370 841l41 -92q2 -5 2 -9q0 -8 -13 -8h-40q-19 0 -30 15l-65 96q-4 5 -4 10t12 5h70q19 0 27 -17z" />
    <glyph glyph-name="Uacute" unicode="&#xda;" horiz-adv-x="713" 
d="M205 598v-314q0 -50 5 -82.5t20 -63.5q29 -60 124.5 -60t132.5 52t37 151v317h-53q-15 0 -15 15v51q0 15 15 15h202q15 0 15 -15v-51q0 -15 -15 -15h-53v-338q0 -110 -52 -186q-28 -40 -81.5 -63t-129.5 -23q-148 0 -206 64.5t-58 196.5v349h-53q-15 0 -15 15v51
q0 15 15 15h218q15 0 15 -15v-51q0 -15 -15 -15h-53zM337 746l45 98q6 14 21 14h78q9 0 9 -4t-3 -8l-70 -102q-7 -12 -23 -12h-48q-11 0 -11 7q0 3 2 7z" />
    <glyph glyph-name="Ucircumflex" unicode="&#xdb;" horiz-adv-x="713" 
d="M205 598v-314q0 -50 5 -82.5t20 -63.5q29 -60 124.5 -60t132.5 52t37 151v317h-53q-15 0 -15 15v51q0 15 15 15h202q15 0 15 -15v-51q0 -15 -15 -15h-53v-338q0 -110 -52 -186q-28 -40 -81.5 -63t-129.5 -23q-148 0 -206 64.5t-58 196.5v349h-53q-15 0 -15 15v51
q0 15 15 15h218q15 0 15 -15v-51q0 -15 -15 -15h-53zM283 732h-55q-9 0 -9 4t3 8l82 107q9 12 24 12h76q15 0 24 -12l82 -107q3 -4 3 -8t-9 -4h-57q-16 0 -25 12l-58 71l-57 -71q-9 -12 -24 -12z" />
    <glyph glyph-name="Udieresis" unicode="&#xdc;" horiz-adv-x="713" 
d="M205 598v-314q0 -50 5 -82.5t20 -63.5q29 -60 124.5 -60t132.5 52t37 151v317h-53q-15 0 -15 15v51q0 15 15 15h202q15 0 15 -15v-51q0 -15 -15 -15h-53v-338q0 -110 -52 -186q-28 -40 -81.5 -63t-129.5 -23q-148 0 -206 64.5t-58 196.5v349h-53q-15 0 -15 15v51
q0 15 15 15h218q15 0 15 -15v-51q0 -15 -15 -15h-53zM511.5 754.5q-17.5 -16.5 -45 -16.5t-44.5 16.5t-17 45t17 44.5t45 16q62 0 62 -60q0 -29 -17.5 -45.5zM308.5 754.5q-17.5 -16.5 -45 -16.5t-44.5 16.5t-17 45t17 44.5t45 16q62 0 62 -60q0 -29 -17.5 -45.5z" />
    <glyph glyph-name="Yacute" unicode="&#xdd;" horiz-adv-x="664" 
d="M279 257l-202 341h-52q-15 0 -15 15v51q0 15 15 15h254q15 0 15 -15v-51q0 -15 -15 -15h-71l144 -246l143 246h-67q-15 0 -15 15v51q0 15 15 15h211q15 0 15 -15v-51q0 -15 -15 -15h-53l-195 -328v-192h53q15 0 15 -15v-48q0 -15 -15 -15h-218q-15 0 -15 15v48
q0 15 15 15h53v179zM314 746l45 98q6 14 21 14h78q9 0 9 -4t-3 -8l-70 -102q-7 -12 -23 -12h-48q-11 0 -11 7q0 3 2 7z" />
    <glyph glyph-name="Thorn" unicode="&#xde;" horiz-adv-x="565" 
d="M298 0h-239q-11 0 -15 4t-4 15v42q0 11 4 15t15 3h48v520h-48q-11 -1 -15 3t-4 15v43q0 11 4 15t15 4h207q11 0 15 -4t4 -15v-43q0 -11 -4 -15t-15 -3h-47v-31h48q263 0 263 -194q0 -104 -68 -160.5t-179 -56.5q-39 0 -64 3v-81h79q11 1 15 -3t4 -15v-42q0 -11 -4 -15
t-15 -4zM269 483h-50v-246q8 -1 31 -1q83 0 124 29.5t41 98.5t-38.5 94t-107.5 25z" />
    <glyph glyph-name="germandbls" unicode="&#xdf;" horiz-adv-x="636" 
d="M515 120q0 50 -77 82q-32 14 -64 29.5t-54.5 44.5t-22.5 70t19.5 79t43 62.5t43 57t19.5 62.5q0 74 -106 74q-59 0 -84.5 -30.5t-25.5 -87.5v-484h41q11 1 15 -3t4 -15v-42q0 -11 -4 -15t-15 -4h-211q-11 0 -15 4t-4 15v42q0 11 4 15t15 3h58v477q0 93 49.5 148.5
t174.5 55.5q93 0 150 -34.5t57 -107.5q0 -35 -19.5 -70t-43.5 -60q-63 -64 -63 -107q0 -46 77 -83q32 -16 63.5 -34t54 -50.5t22.5 -77.5q0 -69 -48.5 -108.5t-119.5 -39.5t-125 18q-11 4 -13.5 8.5t0.5 15.5l10 38q3 10 7.5 12.5t14.5 -1.5q52 -22 94 -22q79 0 79 63z" />
    <glyph glyph-name="agrave" unicode="&#xe0;" horiz-adv-x="524" 
d="M328 297v35q0 71 -40 89q-19 8 -55 8q-68 0 -82 -64q-3 -15 -15 -15h-64q-16 0 -14 15q4 73 59 107t140 34q179 0 179 -164v-263h43q15 0 15 -15v-49q0 -15 -15 -15h-118q-13 0 -15 15l-7 46q-54 -73 -156 -73q-64 0 -106 33.5t-42 107.5q0 97 81 133q67 31 160 34
q19 0 52 1zM330 151v77q-96 0 -118 -9t-39 -18q-32 -17 -32 -62q0 -69 79 -69q52 0 81 24.5t29 56.5zM155 715q-4 7 -4 12t14 5h72q12 0 16.5 -3.5t8.5 -14.5l43 -116q2 -6 2 -9q0 -9 -15 -9h-44q-20 0 -28 17z" />
    <glyph glyph-name="aacute" unicode="&#xe1;" horiz-adv-x="524" 
d="M328 297v35q0 71 -40 89q-19 8 -55 8q-68 0 -82 -64q-3 -15 -15 -15h-64q-16 0 -14 15q4 73 59 107t140 34q179 0 179 -164v-263h43q15 0 15 -15v-49q0 -15 -15 -15h-118q-13 0 -15 15l-7 46q-54 -73 -156 -73q-64 0 -106 33.5t-42 107.5q0 97 81 133q67 31 160 34
q19 0 52 1zM330 151v77q-96 0 -118 -9t-39 -18q-32 -17 -32 -62q0 -69 79 -69q52 0 81 24.5t29 56.5zM230 580q-15 0 -15 9q0 3 2 9l42 116q4 11 8.5 14.5t16.5 3.5h72q14 0 14 -5t-4 -12l-65 -118q-5 -10 -10.5 -13.5t-17.5 -3.5h-43z" />
    <glyph glyph-name="acircumflex" unicode="&#xe2;" horiz-adv-x="524" 
d="M328 297v35q0 71 -40 89q-19 8 -55 8q-68 0 -82 -64q-3 -15 -15 -15h-64q-16 0 -14 15q4 73 59 107t140 34q179 0 179 -164v-263h43q15 0 15 -15v-49q0 -15 -15 -15h-118q-13 0 -15 15l-7 46q-54 -73 -156 -73q-64 0 -106 33.5t-42 107.5q0 97 81 133q67 31 160 34
q19 0 52 1zM330 151v77q-96 0 -118 -9t-39 -18q-32 -17 -32 -62q0 -69 79 -69q52 0 81 24.5t29 56.5zM177 580h-59q-10 0 -10 4t3 9l84 135q9 13 23 13h76q14 0 23 -13l84 -135q3 -5 3 -9t-10 -4h-59q-15 0 -23 12l-58 85l-54 -84q-9 -13 -23 -13z" />
    <glyph glyph-name="atilde" unicode="&#xe3;" horiz-adv-x="524" 
d="M328 297v35q0 71 -40 89q-19 8 -55 8q-68 0 -82 -64q-3 -15 -15 -15h-64q-16 0 -14 15q4 73 59 107t140 34q179 0 179 -164v-263h43q15 0 15 -15v-49q0 -15 -15 -15h-118q-13 0 -15 15l-7 46q-54 -73 -156 -73q-64 0 -106 33.5t-42 107.5q0 97 81 133q67 31 160 34
q19 0 52 1zM330 151v77q-96 0 -118 -9t-39 -18q-32 -17 -32 -62q0 -69 79 -69q52 0 81 24.5t29 56.5zM102 691.5q22 20.5 50 20.5t94 -20.5t89 -20.5q34 0 34 27q0 13 15 13h24q12 0 12 -14q0 -50 -21.5 -74.5t-54 -24.5t-98.5 19t-81 19q-30 0 -30 -22q0 -7 -2 -8.5
t-10 -1.5h-31q-12 0 -12 14q0 53 22 73.5z" />
    <glyph glyph-name="adieresis" unicode="&#xe4;" horiz-adv-x="524" 
d="M328 297v35q0 71 -40 89q-19 8 -55 8q-68 0 -82 -64q-3 -15 -15 -15h-64q-16 0 -14 15q4 73 59 107t140 34q179 0 179 -164v-263h43q15 0 15 -15v-49q0 -15 -15 -15h-118q-13 0 -15 15l-7 46q-54 -73 -156 -73q-64 0 -106 33.5t-42 107.5q0 97 81 133q67 31 160 34
q19 0 52 1zM330 151v77q-96 0 -118 -9t-39 -18q-32 -17 -32 -62q0 -69 79 -69q52 0 81 24.5t29 56.5zM391.5 611.5q-17.5 -16.5 -45 -16.5t-44.5 16.5t-17 45t17 44.5t45 16q62 0 62 -60q0 -29 -17.5 -45.5zM188.5 611.5q-17.5 -16.5 -45 -16.5t-44.5 16.5t-17 45t17 44.5
t45 16q62 0 62 -60q0 -29 -17.5 -45.5z" />
    <glyph glyph-name="aring" unicode="&#xe5;" horiz-adv-x="524" 
d="M328 297v35q0 71 -40 89q-19 8 -55 8q-68 0 -82 -64q-3 -15 -15 -15h-64q-16 0 -14 15q4 73 59 107t140 34q179 0 179 -164v-263h43q15 0 15 -15v-49q0 -15 -15 -15h-118q-13 0 -15 15l-7 46q-54 -73 -156 -73q-64 0 -106 33.5t-42 107.5q0 97 81 133q67 31 160 34
q19 0 52 1zM330 151v77q-96 0 -118 -9t-39 -18q-32 -17 -32 -62q0 -69 79 -69q52 0 81 24.5t29 56.5zM329 595q-28 -30 -73.5 -30t-71.5 29t-26 71.5t28.5 71.5t72.5 29t71 -28t27 -70.5t-28 -72.5zM258 714q-42 0 -42 -48q0 -21 11 -35t31 -14t31.5 14t11.5 35.5
t-11.5 34.5t-31.5 13z" />
    <glyph glyph-name="ae" unicode="&#xe6;" horiz-adv-x="778" 
d="M716 22q-72 -34 -160 -34q-115 0 -172 63q-88 -63 -190 -63q-72 0 -115.5 35t-43.5 113q0 63 37 107q26 30 93 49q45 14 87.5 15t75.5 2v27q0 49 -20 71t-65 22q-81 0 -92 -60q-2 -12 -6.5 -15.5t-16.5 -3.5h-52q-11 0 -14.5 4t-2.5 15q13 137 193 137q112 0 145 -70
q56 70 160 70q105 0 151 -68q40 -60 40 -153q0 -41 -4.5 -45.5t-16.5 -4.5h-292q0 -163 144 -163q51 0 108 25q11 4 15 2.5t9 -12.5l15 -39q4 -11 2.5 -16t-12.5 -10zM141 145q0 -75 87 -75q35 0 70 13.5t53 29.5q-27 47 -27 122q-27 -1 -42 -1.5t-40 -3.5t-40 -9t-30 -15
q-31 -19 -31 -61zM594 412q-19 10 -49 10t-53 -12t-34 -31q-21 -34 -23 -70h203q0 82 -44 103z" />
    <glyph glyph-name="ccedilla" unicode="&#xe7;" horiz-adv-x="468" 
d="M149 254q0 -182 141 -182q45 0 105 27q15 6 21 -9l18 -44q5 -14 -8 -21q-52 -32 -133 -36l-13 -21l16 -14q38 -33 38 -62q0 -41 -96 -105q-5 -3 -10.5 -3t-10.5 6l-8 10q-9 11 1 20q41 36 41 56t-22 37l-9 7q-10 9 -3 21l33 48q-110 6 -162.5 74t-52.5 182.5t59.5 187.5
t177.5 73q90 0 133 -49t43 -125q0 -13 -17 -13h-60q-16 0 -17 15q-5 88 -89 88q-60 0 -88 -41.5t-28 -126.5z" />
    <glyph glyph-name="egrave" unicode="&#xe8;" horiz-adv-x="489" 
d="M265 -12q-119 0 -174.5 69.5t-55.5 184t59 189.5t170 75q55 0 94.5 -20.5t60.5 -55.5q40 -68 40 -157q0 -42 -4 -46t-15 -4h-294q5 -72 35.5 -111.5t105.5 -39.5q55 0 113 26q14 7 20 -8l19 -46q5 -12 -9 -20q-66 -36 -165 -36zM146 297h208q2 125 -98 125
q-59 0 -83.5 -37.5t-26.5 -87.5zM166 715q-4 7 -4 12t14 5h72q12 0 16.5 -3.5t8.5 -14.5l43 -116q2 -6 2 -9q0 -9 -15 -9h-44q-20 0 -28 17z" />
    <glyph glyph-name="eacute" unicode="&#xe9;" horiz-adv-x="489" 
d="M265 -12q-119 0 -174.5 69.5t-55.5 184t59 189.5t170 75q55 0 94.5 -20.5t60.5 -55.5q40 -68 40 -157q0 -42 -4 -46t-15 -4h-294q5 -72 35.5 -111.5t105.5 -39.5q55 0 113 26q14 7 20 -8l19 -46q5 -12 -9 -20q-66 -36 -165 -36zM146 297h208q2 125 -98 125
q-59 0 -83.5 -37.5t-26.5 -87.5zM247 580q-15 0 -15 9q0 3 2 9l42 116q4 11 8.5 14.5t16.5 3.5h72q14 0 14 -5t-4 -12l-65 -118q-8 -17 -28 -17h-43z" />
    <glyph glyph-name="ecircumflex" unicode="&#xea;" horiz-adv-x="489" 
d="M265 -12q-119 0 -174.5 69.5t-55.5 184t59 189.5t170 75q55 0 94.5 -20.5t60.5 -55.5q40 -68 40 -157q0 -42 -4 -46t-15 -4h-294q5 -72 35.5 -111.5t105.5 -39.5q55 0 113 26q14 7 20 -8l19 -46q5 -12 -9 -20q-66 -36 -165 -36zM146 297h208q2 125 -98 125
q-59 0 -83.5 -37.5t-26.5 -87.5zM182 580h-59q-10 0 -10 4t3 9l84 135q9 13 23 13h76q14 0 23 -13l84 -135q3 -5 3 -9t-10 -4h-59q-15 0 -23 12l-58 85l-54 -84q-9 -13 -23 -13z" />
    <glyph glyph-name="edieresis" unicode="&#xeb;" horiz-adv-x="489" 
d="M265 -12q-119 0 -174.5 69.5t-55.5 184t59 189.5t170 75q55 0 94.5 -20.5t60.5 -55.5q40 -68 40 -157q0 -42 -4 -46t-15 -4h-294q5 -72 35.5 -111.5t105.5 -39.5q55 0 113 26q14 7 20 -8l19 -46q5 -12 -9 -20q-66 -36 -165 -36zM146 297h208q2 125 -98 125
q-59 0 -83.5 -37.5t-26.5 -87.5zM411.5 611.5q-17.5 -16.5 -45 -16.5t-44.5 16.5t-17 45t17 44.5t45 16q62 0 62 -60q0 -29 -17.5 -45.5zM208.5 611.5q-17.5 -16.5 -45 -16.5t-44.5 16.5t-17 45t17 44.5t45 16q62 0 62 -60q0 -29 -17.5 -45.5z" />
    <glyph glyph-name="igrave" unicode="&#xec;" horiz-adv-x="294" 
d="M206 480v-401h63q15 0 15 -15v-49q0 -15 -15 -15h-238q-15 0 -15 15v49q0 15 15 15h63v334h-54q-15 0 -15 15v52q0 15 15 15h151q15 0 15 -15zM40 715q-4 7 -4 12t14 5h72q12 0 16.5 -3.5t8.5 -14.5l43 -116q2 -6 2 -9q0 -9 -15 -9h-44q-20 0 -28 17z" />
    <glyph glyph-name="iacute" unicode="&#xed;" horiz-adv-x="294" 
d="M206 480v-401h63q15 0 15 -15v-49q0 -15 -15 -15h-238q-15 0 -15 15v49q0 15 15 15h63v334h-54q-15 0 -15 15v52q0 15 15 15h151q15 0 15 -15zM114 580q-15 0 -15 9q0 3 2 9l42 116q4 11 8.5 14.5t16.5 3.5h72q14 0 14 -5t-4 -12l-65 -118q-5 -10 -10.5 -13.5t-17.5 -3.5
h-43z" />
    <glyph glyph-name="icircumflex" unicode="&#xee;" horiz-adv-x="294" 
d="M206 480v-401h63q15 0 15 -15v-49q0 -15 -15 -15h-238q-15 0 -15 15v49q0 15 15 15h63v334h-54q-15 0 -15 15v52q0 15 15 15h151q15 0 15 -15zM70 580h-59q-10 0 -10 4t3 9l84 135q9 13 23 13h76q14 0 23 -13l84 -135q3 -5 3 -9t-10 -4h-59q-15 0 -23 12l-58 85l-54 -84
q-9 -13 -23 -13z" />
    <glyph glyph-name="idieresis" unicode="&#xef;" horiz-adv-x="294" 
d="M206 79h63q15 0 15 -15v-49q0 -15 -15 -15h-238q-15 0 -15 15v49q0 15 15 15h63v334h-54q-15 0 -15 15v52q0 15 15 15h151q15 0 15 -15v-401zM270.5 611.5q-17.5 -16.5 -45 -16.5t-44.5 16.5t-17 45t17 44.5t45 16q62 0 62 -60q0 -29 -17.5 -45.5zM67.5 611.5
q-17.5 -16.5 -45 -16.5t-44.5 16.5t-17 45t17 44.5t45 16q62 0 62 -60q0 -29 -17.5 -45.5z" />
    <glyph glyph-name="eth" unicode="&#xf0;" horiz-adv-x="528" 
d="M357 568l-93 -43q-10 -5 -15 -3t-9 12l-6 14q-2 6 -2 10q0 10 12 15l91 43q-43 58 -111 58q-79 0 -86 -76q-2 -11 -6 -15t-15 -4h-46q-11 0 -15 4t-3 15q4 149 175 149q125 0 188 -94l89 42q10 5 15 3t9 -12l7 -16q3 -6 3 -9q0 -9 -13 -14l-86 -40q51 -109 51 -309
q0 -156 -56.5 -233t-170 -77t-171.5 59t-58 159.5t52.5 162.5t149 62t150.5 -75q-2 128 -30 212zM383 259q-16 33 -52 59t-84.5 26t-77 -34t-28.5 -96.5t29 -103t90 -40.5q84 0 107 66q16 47 16 106v17z" />
    <glyph glyph-name="ntilde" unicode="&#xf1;" horiz-adv-x="604" 
d="M25 427v53q0 15 15 15h136q13 0 16 -15l9 -58q56 84 160 84q155 0 155 -170v-257h58q15 0 15 -15v-49q0 -15 -15 -15h-218q-15 0 -15 15v49q0 15 15 15h48v207q0 63 -16 92t-66 29t-83 -30t-33 -68v-230h62q15 0 15 -15v-49q0 -15 -15 -15h-227q-15 0 -15 15v49
q0 15 15 15h53v334h-54q-15 0 -15 14zM154 691.5q22 20.5 50 20.5t94 -20.5t89 -20.5q34 0 34 27q0 13 15 13h24q12 0 12 -14q0 -50 -21.5 -74.5t-54 -24.5t-98.5 19t-81 19q-30 0 -30 -22q0 -7 -2 -8.5t-10 -1.5h-31q-12 0 -12 14q0 53 22 73.5z" />
    <glyph glyph-name="ograve" unicode="&#xf2;" horiz-adv-x="532" 
d="M35 240q0 75 23 130t60 83q71 53 154 53q61 0 103 -19t65.5 -44t40 -72t16.5 -110q0 -134 -67.5 -203.5t-172.5 -69.5t-163.5 63.5t-58.5 188.5zM265 70q60 0 87.5 44.5t27.5 132.5t-27.5 132.5t-89.5 44.5q-115 0 -115 -162q0 -192 117 -192zM176 715q-4 7 -4 12t14 5
h72q12 0 16.5 -3.5t8.5 -14.5l43 -116q2 -6 2 -9q0 -9 -15 -9h-44q-20 0 -28 17z" />
    <glyph glyph-name="oacute" unicode="&#xf3;" horiz-adv-x="532" 
d="M35 240q0 75 23 130t60 83q71 53 154 53q61 0 103 -19t65.5 -44t40 -72t16.5 -110q0 -134 -67.5 -203.5t-172.5 -69.5t-163.5 63.5t-58.5 188.5zM265 70q60 0 87.5 44.5t27.5 132.5t-27.5 132.5t-89.5 44.5q-115 0 -115 -162q0 -192 117 -192zM253 580q-15 0 -15 9
q0 3 2 9l42 116q4 11 8.5 14.5t16.5 3.5h72q14 0 14 -5t-4 -12l-65 -118q-8 -17 -28 -17h-43z" />
    <glyph glyph-name="ocircumflex" unicode="&#xf4;" horiz-adv-x="532" 
d="M35 240q0 75 23 130t60 83q71 53 154 53q61 0 103 -19t65.5 -44t40 -72t16.5 -110q0 -134 -67.5 -203.5t-172.5 -69.5t-163.5 63.5t-58.5 188.5zM265 70q60 0 87.5 44.5t27.5 132.5t-27.5 132.5t-89.5 44.5q-115 0 -115 -162q0 -192 117 -192zM189 580h-59q-10 0 -10 4
t3 9l84 135q9 13 23 13h76q14 0 23 -13l84 -135q3 -5 3 -9t-10 -4h-59q-15 0 -23 12l-58 85l-54 -84q-9 -13 -23 -13z" />
    <glyph glyph-name="otilde" unicode="&#xf5;" horiz-adv-x="532" 
d="M35 240q0 75 23 130t60 83q71 53 154 53q61 0 103 -19t65.5 -44t40 -72t16.5 -110q0 -134 -67.5 -203.5t-172.5 -69.5t-163.5 63.5t-58.5 188.5zM265 70q60 0 87.5 44.5t27.5 132.5t-27.5 132.5t-89.5 44.5q-115 0 -115 -162q0 -192 117 -192zM118 691.5q22 20.5 50 20.5
t94 -20.5t89 -20.5q34 0 34 27q0 13 15 13h24q12 0 12 -14q0 -50 -21.5 -74.5t-54 -24.5t-98.5 19t-81 19q-30 0 -30 -22q0 -7 -2 -8.5t-10 -1.5h-31q-12 0 -12 14q0 53 22 73.5z" />
    <glyph glyph-name="odieresis" unicode="&#xf6;" horiz-adv-x="532" 
d="M35 240q0 75 23 130t60 83q71 53 154 53q61 0 103 -19t65.5 -44t40 -72t16.5 -110q0 -134 -67.5 -203.5t-172.5 -69.5t-163.5 63.5t-58.5 188.5zM265 70q60 0 87.5 44.5t27.5 132.5t-27.5 132.5t-89.5 44.5q-115 0 -115 -162q0 -192 117 -192zM419.5 611.5
q-17.5 -16.5 -45 -16.5t-44.5 16.5t-17 45t17 44.5t45 16q62 0 62 -60q0 -29 -17.5 -45.5zM216.5 611.5q-17.5 -16.5 -45 -16.5t-44.5 16.5t-17 45t17 44.5t45 16q62 0 62 -60q0 -29 -17.5 -45.5z" />
    <glyph glyph-name="divide" unicode="&#xf7;" horiz-adv-x="530" 
d="M264 82q-35 0 -55 19.5t-20 49t21 49.5t54 20t54 -19t21 -49t-20 -50t-55 -20zM264 388q-35 0 -55 19.5t-20 49t21 49.5t54 20t54 -19t21 -49t-20 -50t-55 -20zM35 284v27q0 11 4 15t15 4h422q11 0 15 -4t4 -15v-27q0 -11 -4 -15t-15 -4h-422q-11 0 -15 4t-4 15z" />
    <glyph glyph-name="oslash" unicode="&#xf8;" horiz-adv-x="532" 
d="M35 240q0 75 23 130t60.5 83t75.5 40.5t78 12.5t69 -7l32 74q4 11 8.5 14.5t16.5 3.5h24q11 0 14 -3.5t-1 -14.5l-41 -95q103 -56 103 -217q0 -134 -67.5 -203.5t-173.5 -69.5q-39 0 -72 9l-34 -80q-4 -11 -8.5 -14.5t-16.5 -3.5h-23q-11 0 -14 3.5t1 14.5l44 102
q-98 60 -98 221zM265 70q60 0 87.5 44.5t27.5 133t-29 133.5l-131 -302q20 -9 45 -9zM148 262q0 -97 28 -143l129 298q-21 7 -42 7q-115 0 -115 -162z" />
    <glyph glyph-name="ugrave" unicode="&#xf9;" horiz-adv-x="599" 
d="M510 79h44q15 0 15 -15v-49q0 -15 -15 -15h-112q-12 0 -15 15l-9 56q-64 -83 -168 -83q-162 0 -162 170v255h-53q-15 0 -15 15v52q0 15 15 15h150q15 0 15 -15v-292q0 -60 15.5 -85.5t66 -25.5t83.5 30t33 68v238h-63q-15 0 -15 15v52q0 15 15 15h160q15 0 15 -15v-401z
M208 715q-4 7 -4 12t14 5h72q12 0 16.5 -3.5t8.5 -14.5l43 -116q2 -6 2 -9q0 -9 -15 -9h-44q-20 0 -28 17z" />
    <glyph glyph-name="uacute" unicode="&#xfa;" horiz-adv-x="599" 
d="M510 79h44q15 0 15 -15v-49q0 -15 -15 -15h-112q-12 0 -15 15l-9 56q-64 -83 -168 -83q-162 0 -162 170v255h-53q-15 0 -15 15v52q0 15 15 15h150q15 0 15 -15v-292q0 -60 15.5 -85.5t66 -25.5t83.5 30t33 68v238h-63q-15 0 -15 15v52q0 15 15 15h160q15 0 15 -15v-401z
M261 580q-15 0 -15 9q0 3 2 9l42 116q4 11 8.5 14.5t16.5 3.5h72q14 0 14 -5t-4 -12l-65 -118q-8 -17 -28 -17h-43z" />
    <glyph glyph-name="ucircumflex" unicode="&#xfb;" horiz-adv-x="599" 
d="M510 79h44q15 0 15 -15v-49q0 -15 -15 -15h-112q-12 0 -15 15l-9 56q-64 -83 -168 -83q-162 0 -162 170v255h-53q-15 0 -15 15v52q0 15 15 15h150q15 0 15 -15v-292q0 -60 15.5 -85.5t66 -25.5t83.5 30t33 68v238h-63q-15 0 -15 15v52q0 15 15 15h160q15 0 15 -15v-401z
M216 580h-59q-10 0 -10 4t3 9l84 135q9 13 23 13h76q14 0 23 -13l84 -135q3 -5 3 -9t-10 -4h-59q-15 0 -23 12l-58 85l-54 -84q-9 -13 -23 -13z" />
    <glyph glyph-name="udieresis" unicode="&#xfc;" horiz-adv-x="599" 
d="M510 79h44q15 0 15 -15v-49q0 -15 -15 -15h-112q-12 0 -15 15l-9 56q-64 -83 -168 -83q-162 0 -162 170v255h-53q-15 0 -15 15v52q0 15 15 15h150q15 0 15 -15v-292q0 -60 15.5 -85.5t66 -25.5t83.5 30t33 68v238h-63q-15 0 -15 15v52q0 15 15 15h160q15 0 15 -15v-401z
M432.5 611.5q-17.5 -16.5 -45 -16.5t-44.5 16.5t-17 45t17 44.5t45 16q62 0 62 -60q0 -29 -17.5 -45.5zM229.5 611.5q-17.5 -16.5 -45 -16.5t-44.5 16.5t-17 45t17 44.5t45 16q62 0 62 -60q0 -29 -17.5 -45.5z" />
    <glyph glyph-name="yacute" unicode="&#xfd;" horiz-adv-x="519" 
d="M165 481l117 -364l104 296h-51q-15 0 -15 15v52q0 15 15 15h146q12 0 16 -7t4 -12.5t-2 -10.5l-214 -559q-15 -38 -25.5 -58.5t-29.5 -43.5q-37 -44 -109 -44t-118 22q-8 4 -8 10t1 9l17 49q4 13 19 9q48 -16 78.5 -16t47 15.5t34.5 64.5l25 66l-152 424h-50
q-15 0 -15 15v52q0 15 15 15h131q15 0 19 -14zM264 580q-15 0 -15 9q0 3 2 9l42 116q4 11 8.5 14.5t16.5 3.5h72q14 0 14 -5t-4 -12l-65 -118q-5 -10 -10.5 -13.5t-17.5 -3.5h-43z" />
    <glyph glyph-name="thorn" unicode="&#xfe;" horiz-adv-x="584" 
d="M89 -151v815h-54q-15 0 -15 15v52q0 15 15 15h151q12 0 15 -15v-309q24 37 64 60.5t88 23.5q92 0 144 -60.5t52 -178.5q0 -143 -61 -211t-157 -68q-79 0 -130 42v-180h106q15 0 15 -15v-50q0 -15 -15 -15h-271q-15 0 -15 15v49q0 15 15 15h53zM201 304v-191
q16 -16 49 -29t65 -13q58 0 89.5 39.5t31.5 133.5q0 128 -56 157q-24 13 -66 13t-77.5 -29.5t-35.5 -80.5z" />
    <glyph glyph-name="ydieresis" unicode="&#xff;" horiz-adv-x="519" 
d="M165 481l117 -364l104 296h-51q-15 0 -15 15v52q0 15 15 15h146q12 0 16 -7t4 -12.5t-2 -10.5l-214 -559q-15 -38 -25.5 -58.5t-29.5 -43.5q-37 -44 -109 -44t-118 22q-8 4 -8 10t1 9l17 49q4 13 19 9q48 -16 78.5 -16t47 15.5t34.5 64.5l25 66l-152 424h-50
q-15 0 -15 15v52q0 15 15 15h131q15 0 19 -14zM410.5 611.5q-17.5 -16.5 -45 -16.5t-44.5 16.5t-17 45t17 44.5t45 16q62 0 62 -60q0 -29 -17.5 -45.5zM207.5 611.5q-17.5 -16.5 -45 -16.5t-44.5 16.5t-17 45t17 44.5t45 16q62 0 62 -60q0 -29 -17.5 -45.5z" />
    <glyph glyph-name="Amacron" unicode="&#x100;" horiz-adv-x="696" 
d="M214 214l-46 -135h60q15 0 15 -15v-49q0 -15 -15 -15h-213q-15 0 -15 15v49q0 15 15 15h59l200 586q6 14 20 14h97q14 0 20 -14l202 -586h68q15 0 15 -15v-49q0 -15 -15 -15h-251q-15 0 -15 15v49q0 15 15 15h62l-47 135h-231zM329 583l-95 -294h189zM478 760h-260
q-11 0 -15 4t-4 15v43q0 11 4 15t15 4h260q11 0 15 -4t4 -15v-43q0 -11 -4 -15t-15 -4z" />
    <glyph glyph-name="amacron" unicode="&#x101;" horiz-adv-x="524" 
d="M328 297v35q0 71 -40 89q-19 8 -55 8q-68 0 -82 -64q-3 -15 -15 -15h-64q-16 0 -14 15q4 73 59 107t140 34q179 0 179 -164v-263h43q15 0 15 -15v-49q0 -15 -15 -15h-118q-13 0 -15 15l-7 46q-54 -73 -156 -73q-64 0 -106 33.5t-42 107.5q0 97 81 133q67 31 160 34
q19 0 52 1zM330 151v77q-96 0 -118 -9t-39 -18q-32 -17 -32 -62q0 -69 79 -69q52 0 81 24.5t29 56.5zM381 612h-260q-11 0 -15 4t-4 15v43q0 11 4 15t15 4h260q11 0 15 -4t4 -15v-43q0 -11 -4 -15t-15 -4z" />
    <glyph glyph-name="Abreve" unicode="&#x102;" horiz-adv-x="696" 
d="M214 214l-46 -135h60q15 0 15 -15v-49q0 -15 -15 -15h-213q-15 0 -15 15v49q0 15 15 15h59l200 586q6 14 20 14h97q14 0 20 -14l202 -586h68q15 0 15 -15v-49q0 -15 -15 -15h-251q-15 0 -15 15v49q0 15 15 15h62l-47 135h-231zM329 583l-95 -294h189zM263 853
q11 -42 88.5 -42t90.5 42q4 12 9 15.5t17 3.5h31q18 0 18 -15q0 -57 -46 -89.5t-122 -32.5t-117.5 31t-43.5 87q0 11 4 15t15 4h32q12 0 16.5 -3.5t7.5 -15.5z" />
    <glyph glyph-name="abreve" unicode="&#x103;" horiz-adv-x="524" 
d="M328 297v35q0 71 -40 89q-19 8 -55 8q-68 0 -82 -64q-3 -15 -15 -15h-64q-16 0 -14 15q4 73 59 107t140 34q179 0 179 -164v-263h43q15 0 15 -15v-49q0 -15 -15 -15h-118q-13 0 -15 15l-7 46q-54 -73 -156 -73q-64 0 -106 33.5t-42 107.5q0 97 81 133q67 31 160 34
q19 0 52 1zM330 151v77q-96 0 -118 -9t-39 -18q-32 -17 -32 -62q0 -69 79 -69q52 0 81 24.5t29 56.5zM255 660q77 0 92 47q4 12 9 15.5t17 3.5h27q18 0 18 -15q0 -59 -46.5 -95.5t-121.5 -36.5t-117 34.5t-44 93.5q0 11 4 15t15 4h28q12 0 16.5 -3.5t9.5 -15.5
q10 -27 29.5 -37t63.5 -10z" />
    <glyph glyph-name="Aogonek" unicode="&#x104;" horiz-adv-x="696" 
d="M450 -147q0 66 87 147h-107q-15 0 -15 15v49q0 15 15 15h62l-47 135h-231l-46 -135h60q15 0 15 -15v-49q0 -15 -15 -15h-213q-15 0 -15 15v49q0 15 15 15h59l200 586q6 14 20 14h97q14 0 20 -14l202 -586h68q15 0 15 -15v-49q0 -15 -15 -15h-80q-72 -78 -72 -128
q0 -36 33 -36q18 0 35 8.5t23 -3.5l10 -20q8 -15 -7 -24q-44 -30 -86.5 -30t-64.5 24t-22 62zM329 583l-95 -294h189z" />
    <glyph glyph-name="aogonek" unicode="&#x105;" horiz-adv-x="540" 
d="M308 -147q0 66 87 147h-34q-13 0 -15 15l-7 46q-54 -73 -156 -73q-64 0 -106 33.5t-42 107.5q0 97 81 133q67 31 160 34q19 0 52 1v35q0 71 -40 89q-19 8 -55 8q-68 0 -82 -64q-3 -15 -15 -15h-64q-16 0 -14 15q4 73 59 107t140 34q179 0 179 -164v-263h43q15 0 15 -15
v-49q0 -15 -15 -15h-20q-72 -78 -72 -128q0 -36 33 -36q18 0 35 8.5t23 -3.5l10 -20q8 -15 -7 -24q-44 -30 -86.5 -30t-64.5 24t-22 62zM330 151v77q-96 0 -118 -9t-39 -18q-32 -17 -32 -62q0 -69 79 -69q52 0 81 24.5t29 56.5z" />
    <glyph glyph-name="Cacute" unicode="&#x106;" horiz-adv-x="629" 
d="M43 336q0 96 28.5 169t75.5 113q92 78 208.5 78t209.5 -51q13 -7 13 -20v-129q0 -15 -15 -15h-56q-15 0 -14 15l3 70q-62 42 -141 42q-192 0 -192 -256q0 -80 19 -139.5t67 -98.5t128 -39t120 32l-4 70q-1 15 14 15h57q15 0 15 -15v-127q0 -14 -10 -19q-88 -43 -201 -43
q-164 0 -244.5 93t-80.5 255zM321 746l45 98q6 14 21 14h78q9 0 9 -4t-3 -8l-70 -102q-7 -12 -23 -12h-48q-11 0 -11 7q0 3 2 7z" />
    <glyph glyph-name="cacute" unicode="&#x107;" horiz-adv-x="468" 
d="M149 254q0 -182 141 -182q45 0 105 27q15 6 21 -9l18 -44q5 -14 -8 -21q-61 -37 -154 -37q-121 0 -179 68.5t-58 186t59.5 190.5t177.5 73q90 0 133 -49t43 -125q0 -13 -17 -13h-60q-16 0 -17 15q-5 88 -89 88q-60 0 -88 -41.5t-28 -126.5zM255 580q-15 0 -15 9q0 3 2 9
l42 116q4 11 8.5 14.5t16.5 3.5h72q14 0 14 -5t-4 -12l-65 -118q-5 -10 -10.5 -13.5t-17.5 -3.5h-43z" />
    <glyph glyph-name="Ccircumflex" unicode="&#x108;" horiz-adv-x="629" 
d="M43 336q0 96 28.5 169t75.5 113q92 78 208.5 78t209.5 -51q13 -7 13 -20v-129q0 -15 -15 -15h-56q-15 0 -14 15l3 70q-62 42 -141 42q-192 0 -192 -256q0 -80 19 -139.5t67 -98.5t128 -39t120 32l-4 70q-1 15 14 15h57q15 0 15 -15v-127q0 -14 -10 -19q-88 -43 -201 -43
q-164 0 -244.5 93t-80.5 255zM277 732h-55q-9 0 -9 4t3 8l82 107q9 12 24 12h76q15 0 24 -12l82 -107q3 -4 3 -8t-9 -4h-57q-16 0 -25 12l-58 71l-57 -71q-9 -12 -24 -12z" />
    <glyph glyph-name="ccircumflex" unicode="&#x109;" horiz-adv-x="468" 
d="M149 254q0 -182 141 -182q45 0 105 27q15 6 21 -9l18 -44q5 -14 -8 -21q-61 -37 -154 -37q-121 0 -179 68.5t-58 186t59.5 190.5t177.5 73q90 0 133 -49t43 -125q0 -13 -17 -13h-60q-16 0 -17 15q-5 88 -89 88q-60 0 -88 -41.5t-28 -126.5zM196 580h-59q-10 0 -10 4t3 9
l84 135q9 13 23 13h76q14 0 23 -13l84 -135q3 -5 3 -9t-10 -4h-59q-15 0 -23 12l-58 85l-54 -84q-9 -13 -23 -13z" />
    <glyph glyph-name="Cdotaccent" unicode="&#x10a;" horiz-adv-x="629" 
d="M43 336q0 96 28.5 169t75.5 113q92 78 208.5 78t209.5 -51q13 -7 13 -20v-129q0 -15 -15 -15h-56q-15 0 -14 15l3 70q-62 42 -141 42q-192 0 -192 -256q0 -80 19 -139.5t67 -98.5t128 -39t120 32l-4 70q-1 15 14 15h57q15 0 15 -15v-127q0 -14 -10 -19q-88 -43 -201 -43
q-164 0 -244.5 93t-80.5 255zM282 801q0 31 19.5 51.5t52 20.5t52 -20.5t19.5 -51.5t-20 -51t-52.5 -20t-51.5 20t-19 51z" />
    <glyph glyph-name="cdotaccent" unicode="&#x10b;" horiz-adv-x="468" 
d="M149 254q0 -182 141 -182q45 0 105 27q15 6 21 -9l18 -44q5 -14 -8 -21q-61 -37 -154 -37q-121 0 -179 68.5t-58 186t59.5 190.5t177.5 73q90 0 133 -49t43 -125q0 -13 -17 -13h-60q-16 0 -17 15q-5 88 -89 88q-60 0 -88 -41.5t-28 -126.5zM198 635q0 31 19.5 51.5
t52 20.5t52 -20.5t19.5 -51.5t-20 -51t-52.5 -20t-51.5 20t-19 51z" />
    <glyph glyph-name="Ccaron" unicode="&#x10c;" horiz-adv-x="629" 
d="M43 336q0 96 28.5 169t75.5 113q92 78 208.5 78t209.5 -51q13 -7 13 -20v-129q0 -15 -15 -15h-56q-15 0 -14 15l3 70q-62 42 -141 42q-192 0 -192 -256q0 -80 19 -139.5t67 -98.5t128 -39t120 32l-4 70q-1 15 14 15h57q15 0 15 -15v-127q0 -14 -10 -19q-88 -43 -201 -43
q-164 0 -244.5 93t-80.5 255zM444 863h55q9 0 9 -3.5t-3 -8.5l-82 -107q-9 -12 -24 -12h-76q-15 0 -24 12l-82 107q-3 5 -3 8.5t9 3.5h57q16 0 25 -12l58 -71l57 71q9 12 24 12z" />
    <glyph glyph-name="ccaron" unicode="&#x10d;" horiz-adv-x="468" 
d="M149 254q0 -182 141 -182q45 0 105 27q15 6 21 -9l18 -44q5 -14 -8 -21q-61 -37 -154 -37q-121 0 -179 68.5t-58 186t59.5 190.5t177.5 73q90 0 133 -49t43 -125q0 -13 -17 -13h-60q-16 0 -17 15q-5 88 -89 88q-60 0 -88 -41.5t-28 -126.5zM353 741h59q10 0 10 -4t-3 -9
l-84 -135q-9 -13 -23 -13h-76q-14 0 -23 13l-84 135q-3 5 -3 9t10 4h59q15 0 23 -12l58 -85l54 84q9 13 23 13z" />
    <glyph glyph-name="Dcaron" unicode="&#x10e;" horiz-adv-x="679" 
d="M55 679q128 6 190 6t92.5 -2.5t69.5 -10.5t69.5 -21.5t61.5 -38.5t52 -58q46 -76 46 -196q0 -181 -100 -269.5t-273 -88.5h-208q-15 0 -15 15v49q0 15 15 15h52v519h-52q-15 0 -15 15v51q0 15 15 15zM455.5 150q60.5 72 60.5 197t-56.5 190t-176.5 65h-64v-524h66
q110 0 170.5 72zM369 863h55q9 0 9 -3.5t-3 -8.5l-82 -107q-9 -12 -24 -12h-76q-15 0 -24 12l-82 107q-3 5 -3 8.5t9 3.5h57q16 0 25 -12l58 -71l57 71q9 12 24 12z" />
    <glyph glyph-name="dcaron" unicode="&#x10f;" horiz-adv-x="609" 
d="M495 79h43q15 0 15 -15v-49q0 -15 -15 -15h-113q-13 0 -15 15l-8 59q-51 -86 -163 -86q-98 0 -151 61.5t-53 191t61.5 197.5t158.5 68q44 0 78 -16.5t50 -39.5v213h-53q-15 0 -15 15v53q0 15 15 15h150q15 0 15 -15v-652zM383 188v176q-13 20 -45.5 37t-65.5 17
q-124 0 -124 -168q0 -129 56 -161q24 -14 66 -14t77.5 31t35.5 82zM561 731q0 15 15 15h72q14 0 13 -15l-32 -190q-3 -15 -18 -15h-35q-15 0 -15 15v190z" />
    <glyph glyph-name="Dcroat" unicode="&#x110;" horiz-adv-x="692" 
d="M68 679q128 6 190 6t92.5 -2.5t69.5 -10.5t69.5 -21.5t61.5 -38.5t51 -58q47 -76 47 -196q0 -181 -100 -269.5t-273 -88.5h-208q-15 0 -15 15v49q0 15 15 15h52v235h-48q-11 0 -15 4t-4 15v15q0 11 4 15t15 4h48v231h-52q-15 0 -15 15v51q0 15 15 15zM468.5 150
q60.5 72 60.5 197t-56.5 190t-176.5 65h-64v-235h150q11 0 15 -4t4 -15v-15q0 -11 -4 -15t-15 -4h-150v-236h66q110 0 170.5 72z" />
    <glyph glyph-name="dcroat" unicode="&#x111;" horiz-adv-x="583" 
d="M495 79h43q15 0 15 -15v-49q0 -15 -15 -15h-113q-13 0 -15 15l-8 59q-51 -86 -163 -86q-98 0 -151 61.5t-53 190.5t60.5 192.5t159.5 63.5q44 0 78 -16.5t50 -39.5v118h-143q-11 0 -15 4t-4 15v15q0 11 4 15t15 4h143v52h-53q-15 0 -15 15v53q0 15 15 15h150q15 0 15 -15
v-120h43q11 0 15 -4t4 -15v-15q0 -11 -4 -15t-15 -4h-43v-479zM383 188v166q-13 20 -45.5 37t-65.5 17q-124 0 -124 -161q0 -126 56 -158q24 -14 66 -14t77.5 31t35.5 82z" />
    <glyph glyph-name="Emacron" unicode="&#x112;" horiz-adv-x="555" 
d="M220 599v-213h149l-4 51q-1 15 14 15h56q15 0 15 -15v-177q0 -15 -15 -15h-56q-15 0 -14 15l3 48h-148v-230h229l-4 71q-1 15 14 15h56q15 0 15 -15v-134q0 -15 -15 -15h-460q-15 0 -15 15v49q0 15 15 15h53v519h-53q-15 0 -15 15v51q0 15 15 15h440q15 0 15 -15v-134
q0 -15 -15 -15h-56q-15 0 -14 15l4 69h-209zM424 760h-260q-11 0 -15 4t-4 15v43q0 11 4 15t15 4h260q11 0 15 -4t4 -15v-43q0 -11 -4 -15t-15 -4z" />
    <glyph glyph-name="emacron" unicode="&#x113;" horiz-adv-x="489" 
d="M265 -12q-119 0 -174.5 69.5t-55.5 184t59 189.5t170 75q55 0 94.5 -20.5t60.5 -55.5q40 -68 40 -157q0 -42 -4 -46t-15 -4h-294q5 -72 35.5 -111.5t105.5 -39.5q55 0 113 26q14 7 20 -8l19 -46q5 -12 -9 -20q-66 -36 -165 -36zM146 297h208q2 125 -98 125
q-59 0 -83.5 -37.5t-26.5 -87.5zM400 612h-260q-11 0 -15 4t-4 15v43q0 11 4 15t15 4h260q11 0 15 -4t4 -15v-43q0 -11 -4 -15t-15 -4z" />
    <glyph glyph-name="Ebreve" unicode="&#x114;" horiz-adv-x="555" 
d="M220 599v-213h149l-4 51q-1 15 14 15h56q15 0 15 -15v-177q0 -15 -15 -15h-56q-15 0 -14 15l3 48h-148v-230h229l-4 71q-1 15 14 15h56q15 0 15 -15v-134q0 -15 -15 -15h-460q-15 0 -15 15v49q0 15 15 15h53v519h-53q-15 0 -15 15v51q0 15 15 15h440q15 0 15 -15v-134
q0 -15 -15 -15h-56q-15 0 -14 15l4 69h-209zM200 853q10 -42 88 -42t91 42q4 12 9 15.5t17 3.5h31q18 0 18 -15q0 -57 -46 -89.5t-122 -32.5t-117.5 31t-43.5 87q0 11 4 15t15 4h32q12 0 16.5 -3.5t7.5 -15.5z" />
    <glyph glyph-name="ebreve" unicode="&#x115;" horiz-adv-x="489" 
d="M265 -12q-119 0 -174.5 69.5t-55.5 184t59 189.5t170 75q55 0 94.5 -20.5t60.5 -55.5q40 -68 40 -157q0 -42 -4 -46t-15 -4h-294q5 -72 35.5 -111.5t105.5 -39.5q55 0 113 26q14 7 20 -8l19 -46q5 -12 -9 -20q-66 -36 -165 -36zM146 297h208q2 125 -98 125
q-59 0 -83.5 -37.5t-26.5 -87.5zM268 660q77 0 92 47q4 12 9 15.5t17 3.5h27q18 0 18 -15q0 -59 -46.5 -95.5t-121.5 -36.5t-117 34.5t-44 93.5q0 11 4 15t15 4h28q12 0 16.5 -3.5t9.5 -15.5q10 -27 29.5 -37t63.5 -10z" />
    <glyph glyph-name="Edotaccent" unicode="&#x116;" horiz-adv-x="555" 
d="M220 599v-213h149l-4 51q-1 15 14 15h56q15 0 15 -15v-177q0 -15 -15 -15h-56q-15 0 -14 15l3 48h-148v-230h229l-4 71q-1 15 14 15h56q15 0 15 -15v-134q0 -15 -15 -15h-460q-15 0 -15 15v49q0 15 15 15h53v519h-53q-15 0 -15 15v51q0 15 15 15h440q15 0 15 -15v-134
q0 -15 -15 -15h-56q-15 0 -14 15l4 69h-209zM221 801q0 31 19.5 51.5t52 20.5t52 -20.5t19.5 -51.5t-20 -51t-52.5 -20t-51.5 20t-19 51z" />
    <glyph glyph-name="edotaccent" unicode="&#x117;" horiz-adv-x="489" 
d="M265 -12q-119 0 -174.5 69.5t-55.5 184t59 189.5t170 75q55 0 94.5 -20.5t60.5 -55.5q40 -68 40 -157q0 -42 -4 -46t-15 -4h-294q5 -72 35.5 -111.5t105.5 -39.5q55 0 113 26q14 7 20 -8l19 -46q5 -12 -9 -20q-66 -36 -165 -36zM146 297h208q2 125 -98 125
q-59 0 -83.5 -37.5t-26.5 -87.5zM184 635q0 31 19.5 51.5t52 20.5t52 -20.5t19.5 -51.5t-20 -51t-52.5 -20t-51.5 20t-19 51z" />
    <glyph glyph-name="Eogonek" unicode="&#x118;" horiz-adv-x="555" 
d="M316 -147q0 66 87 147h-348q-15 0 -15 15v49q0 15 15 15h53v519h-53q-15 0 -15 15v51q0 15 15 15h440q15 0 15 -15v-134q0 -15 -15 -15h-56q-15 0 -14 15l4 69h-209v-213h149l-4 51q-1 15 14 15h56q15 0 15 -15v-177q0 -15 -15 -15h-56q-15 0 -14 15l3 48h-148v-230h229
l-4 71q-1 15 14 15h56q15 0 15 -15v-134q0 -15 -15 -15h-48q-72 -78 -72 -128q0 -36 33 -36q18 0 35 8.5t23 -3.5l10 -20q8 -15 -7 -24q-44 -30 -86.5 -30t-64.5 24t-22 62z" />
    <glyph glyph-name="eogonek" unicode="&#x119;" horiz-adv-x="489" 
d="M295 -11l-30 -1q-119 0 -174.5 69.5t-55.5 184t59 189.5t170 75q55 0 94.5 -20.5t60.5 -55.5q40 -68 40 -157q0 -42 -4 -46t-15 -4h-294q5 -72 35.5 -111.5t105.5 -39.5q55 0 113 26q14 7 20 -8l19 -46q5 -12 -9 -20q-41 -22 -50 -28q-41 -28 -61 -62t-20 -62
q0 -36 33 -36q18 0 35 8.5t23 -3.5l10 -20q8 -15 -7 -24q-44 -30 -86.5 -30t-64.5 24t-22 62q0 63 75 136zM146 297h208q2 125 -98 125q-59 0 -83.5 -37.5t-26.5 -87.5z" />
    <glyph glyph-name="Ecaron" unicode="&#x11a;" horiz-adv-x="555" 
d="M220 599v-213h149l-4 51q-1 15 14 15h56q15 0 15 -15v-177q0 -15 -15 -15h-56q-15 0 -14 15l3 48h-148v-230h229l-4 71q-1 15 14 15h56q15 0 15 -15v-134q0 -15 -15 -15h-460q-15 0 -15 15v49q0 15 15 15h53v519h-53q-15 0 -15 15v51q0 15 15 15h440q15 0 15 -15v-134
q0 -15 -15 -15h-56q-15 0 -14 15l4 69h-209zM376 863h55q9 0 9 -3.5t-3 -8.5l-82 -107q-9 -12 -24 -12h-76q-15 0 -24 12l-82 107q-3 5 -3 8.5t9 3.5h57q16 0 25 -12l58 -71l57 71q9 12 24 12z" />
    <glyph glyph-name="ecaron" unicode="&#x11b;" horiz-adv-x="489" 
d="M265 -12q-119 0 -174.5 69.5t-55.5 184t59 189.5t170 75q55 0 94.5 -20.5t60.5 -55.5q40 -68 40 -157q0 -42 -4 -46t-15 -4h-294q5 -72 35.5 -111.5t105.5 -39.5q55 0 113 26q14 7 20 -8l19 -46q5 -12 -9 -20q-66 -36 -165 -36zM146 297h208q2 125 -98 125
q-59 0 -83.5 -37.5t-26.5 -87.5zM339 741h59q10 0 10 -4t-3 -9l-84 -135q-9 -13 -23 -13h-76q-14 0 -23 13l-84 135q-3 5 -3 9t10 4h59q15 0 23 -12l58 -85l54 84q9 13 23 13z" />
    <glyph glyph-name="Gcircumflex" unicode="&#x11c;" horiz-adv-x="695" 
d="M607 234v-170q0 -14 -14 -21q-43 -23 -106.5 -39t-134 -16t-134.5 27t-102 76q-73 96 -73 250q0 94 28.5 165.5t75.5 111.5q92 78 211.5 78t205.5 -53q14 -8 14 -22v-125q0 -15 -15 -15h-57q-15 0 -14 15l3 67q-63 45 -136.5 45t-118 -36.5t-61 -90t-16.5 -129
t18.5 -135.5t67 -100t126 -40t129.5 35v122h-64q-15 0 -15 15v50q0 15 15 15h220q15 0 15 -15v-50q0 -15 -15 -15h-53zM273 732h-55q-9 0 -9 4t3 8l82 107q9 12 24 12h76q15 0 24 -12l82 -107q3 -4 3 -8t-9 -4h-57q-16 0 -25 12l-58 71l-57 -71q-9 -12 -24 -12z" />
    <glyph glyph-name="gcircumflex" unicode="&#x11d;" horiz-adv-x="570" 
d="M490 413v-355q0 -64 -5 -119q-8 -85 -62.5 -132t-154.5 -47t-168 30q-12 5 -8 20l18 53q4 14 20 8q61 -25 123.5 -25t93.5 30t31 106v78q-44 -72 -142 -72t-149.5 63t-51.5 191.5t60.5 196t152 67.5t147.5 -65l10 39q5 15 18 15h122q15 0 15 -15v-52q0 -15 -15 -15h-55z
M378 187v178q-4 6 -12.5 15t-37 23.5t-61.5 14.5q-53 0 -86 -39.5t-33 -126.5t24 -132.5t93 -45.5q44 0 78.5 31t34.5 82zM218 580h-59q-10 0 -10 4t3 9l84 135q9 13 23 13h76q14 0 23 -13l84 -135q3 -5 3 -9t-10 -4h-59q-15 0 -23 12l-58 85l-54 -84q-9 -13 -23 -13z" />
    <glyph glyph-name="Gbreve" unicode="&#x11e;" horiz-adv-x="695" 
d="M607 234v-170q0 -14 -14 -21q-43 -23 -106.5 -39t-134 -16t-134.5 27t-102 76q-73 96 -73 250q0 94 28.5 165.5t75.5 111.5q92 78 211.5 78t205.5 -53q14 -8 14 -22v-125q0 -15 -15 -15h-57q-15 0 -14 15l3 67q-63 45 -136.5 45t-118 -36.5t-61 -90t-16.5 -129
t18.5 -135.5t67 -100t126 -40t129.5 35v122h-64q-15 0 -15 15v50q0 15 15 15h220q15 0 15 -15v-50q0 -15 -15 -15h-53zM279 853q11 -42 88.5 -42t90.5 42q4 12 9 15.5t17 3.5h31q18 0 18 -15q0 -57 -46 -89.5t-122 -32.5t-117.5 31t-43.5 87q0 11 4 15t15 4h32
q12 0 16.5 -3.5t7.5 -15.5z" />
    <glyph glyph-name="gbreve" unicode="&#x11f;" horiz-adv-x="570" 
d="M490 413v-355q0 -64 -5 -119q-8 -85 -62.5 -132t-154.5 -47t-168 30q-12 5 -8 20l18 53q4 14 20 8q61 -25 123.5 -25t93.5 30t31 106v78q-44 -72 -142 -72t-149.5 63t-51.5 191.5t60.5 196t152 67.5t147.5 -65l10 39q5 15 18 15h122q15 0 15 -15v-52q0 -15 -15 -15h-55z
M378 187v178q-4 6 -12.5 15t-37 23.5t-61.5 14.5q-53 0 -86 -39.5t-33 -126.5t24 -132.5t93 -45.5q44 0 78.5 31t34.5 82zM291 660q77 0 92 47q4 12 9 15.5t17 3.5h27q18 0 18 -15q0 -59 -46.5 -95.5t-121.5 -36.5t-117 34.5t-44 93.5q0 11 4 15t15 4h28q12 0 16.5 -3.5
t9.5 -15.5q10 -27 29.5 -37t63.5 -10z" />
    <glyph glyph-name="Gdotaccent" unicode="&#x120;" horiz-adv-x="695" 
d="M607 234v-170q0 -14 -14 -21q-43 -23 -106.5 -39t-134 -16t-134.5 27t-102 76q-73 96 -73 250q0 94 28.5 165.5t75.5 111.5q92 78 211.5 78t205.5 -53q14 -8 14 -22v-125q0 -15 -15 -15h-57q-15 0 -14 15l3 67q-63 45 -136.5 45t-118 -36.5t-61 -90t-16.5 -129
t18.5 -135.5t67 -100t126 -40t129.5 35v122h-64q-15 0 -15 15v50q0 15 15 15h220q15 0 15 -15v-50q0 -15 -15 -15h-53zM292 801q0 31 19.5 51.5t52 20.5t52 -20.5t19.5 -51.5t-20 -51t-52.5 -20t-51.5 20t-19 51z" />
    <glyph glyph-name="gdotaccent" unicode="&#x121;" horiz-adv-x="570" 
d="M490 413v-355q0 -64 -5 -119q-8 -85 -62.5 -132t-154.5 -47t-168 30q-12 5 -8 20l18 53q4 14 20 8q61 -25 123.5 -25t93.5 30t31 106v78q-44 -72 -142 -72t-149.5 63t-51.5 191.5t60.5 196t152 67.5t147.5 -65l10 39q5 15 18 15h122q15 0 15 -15v-52q0 -15 -15 -15h-55z
M378 187v178q-4 6 -12.5 15t-37 23.5t-61.5 14.5q-53 0 -86 -39.5t-33 -126.5t24 -132.5t93 -45.5q44 0 78.5 31t34.5 82zM210 635q0 31 19.5 51.5t52 20.5t52 -20.5t19.5 -51.5t-20 -51t-52.5 -20t-51.5 20t-19 51z" />
    <glyph glyph-name="Gcommaaccent" unicode="&#x122;" horiz-adv-x="695" 
d="M607 234v-170q0 -14 -14 -21q-43 -23 -106.5 -39t-134 -16t-134.5 27t-102 76q-73 96 -73 250q0 94 28.5 165.5t75.5 111.5q92 78 211.5 78t205.5 -53q14 -8 14 -22v-125q0 -15 -15 -15h-57q-15 0 -14 15l3 67q-63 45 -136.5 45t-118 -36.5t-61 -90t-16.5 -129
t18.5 -135.5t67 -100t126 -40t129.5 35v122h-64q-15 0 -15 15v50q0 15 15 15h220q15 0 15 -15v-50q0 -15 -15 -15h-53zM369 -212l-38 -58q-5 -7 -9.5 -7t-7.5 1l-12 5q-11 4 -6 16l22 72q-9 9 -13.5 17t-8.5 15q-8 14 -8 34t14.5 33.5t42.5 13.5q60 0 60 -53q0 -31 -36 -89z
" />
    <glyph glyph-name="gcommaaccent" unicode="&#x123;" horiz-adv-x="570" 
d="M490 413v-355q0 -64 -5 -119q-8 -85 -62.5 -132t-154.5 -47t-168 30q-12 5 -8 20l18 53q4 14 20 8q61 -25 123.5 -25t93.5 30t31 106v78q-44 -72 -142 -72t-149.5 63t-51.5 191.5t60.5 196t152 67.5t147.5 -65l10 39q5 15 18 15h122q15 0 15 -15v-52q0 -15 -15 -15h-55z
M378 187v178q-4 6 -12.5 15t-37 23.5t-61.5 14.5q-53 0 -86 -39.5t-33 -126.5t24 -132.5t93 -45.5q44 0 78.5 31t34.5 82zM254 724l43 68q6 8 10.5 8t7.5 -1l12 -6q9 -4 5 -17l-27 -81q9 -9 13.5 -17t8.5 -15q8 -14 8 -34t-15 -34.5t-42 -14.5q-60 0 -60 55q0 31 36 89z" />
    <glyph glyph-name="Hcircumflex" unicode="&#x124;" horiz-adv-x="743" 
d="M220 598v-206h303v206h-53q-15 0 -15 15v51q0 15 15 15h218q15 0 15 -15v-51q0 -15 -15 -15h-53v-519h53q15 0 15 -15v-49q0 -15 -15 -15h-218q-15 0 -15 15v49q0 15 15 15h53v227h-303v-227h53q15 0 15 -15v-49q0 -15 -15 -15h-218q-15 0 -15 15v49q0 15 15 15h53v519
h-53q-15 0 -15 15v51q0 15 15 15h218q15 0 15 -15v-51q0 -15 -15 -15h-53zM288 732h-55q-9 0 -9 4t3 8l82 107q9 12 24 12h76q15 0 24 -12l82 -107q3 -4 3 -8t-9 -4h-57q-16 0 -25 12l-58 71l-57 -71q-9 -12 -24 -12z" />
    <glyph glyph-name="hcircumflex" unicode="&#x125;" horiz-adv-x="599" 
d="M20 679v52q0 15 15 15h151q15 0 15 -15v-308q56 83 155 83q155 0 155 -170v-257h59q15 0 15 -15v-49q0 -15 -15 -15h-219q-15 0 -15 15v49q0 15 15 15h48v207q0 63 -16 92t-66 29t-83 -30t-33 -68v-230h61q15 0 15 -15v-49q0 -15 -15 -15h-227q-15 0 -15 15v49
q0 15 15 15h54v585h-54q-15 0 -15 15zM33 772h-55q-9 0 -9 4t3 8l82 107q9 12 24 12h76q15 0 24 -12l82 -107q3 -4 3 -8t-9 -4h-57q-16 0 -25 12l-58 71l-57 -71q-9 -12 -24 -12z" />
    <glyph glyph-name="Hbar" unicode="&#x126;" horiz-adv-x="743" 
d="M220 598v-59h303v59h-53q-15 0 -15 15v51q0 15 15 15h218q15 0 15 -15v-51q0 -15 -15 -15h-53v-59h49q11 0 15 -4t4 -15v-15q0 -11 -4 -15t-15 -4h-49v-407h53q15 0 15 -15v-49q0 -15 -15 -15h-218q-15 0 -15 15v49q0 15 15 15h53v227h-303v-227h53q15 0 15 -15v-49
q0 -15 -15 -15h-218q-15 0 -15 15v49q0 15 15 15h53v407h-50q-11 0 -15 4t-4 15v15q0 11 4 15t15 4h50v59h-53q-15 0 -15 15v51q0 15 15 15h218q15 0 15 -15v-51q0 -15 -15 -15h-53zM220 392h303v94h-303v-94z" />
    <glyph glyph-name="hbar" unicode="&#x127;" horiz-adv-x="599" 
d="M20 679v52q0 15 15 15h151q15 0 15 -15v-120h146q11 0 15 -4t4 -15v-15q0 -11 -4 -15t-15 -4h-146v-145q56 83 155 83q155 0 155 -170v-247h59q15 0 15 -15v-49q0 -15 -15 -15h-219q-15 0 -15 15v49q0 15 15 15h48v197q0 63 -16 92t-66 29t-83 -30t-33 -68v-220h61
q15 0 15 -15v-49q0 -15 -15 -15h-227q-15 0 -15 15v49q0 15 15 15h54v479h-50q-11 0 -15 4t-4 15v15q0 11 4 15t15 4h50v53h-54q-15 0 -15 15z" />
    <glyph glyph-name="Itilde" unicode="&#x128;" horiz-adv-x="328" 
d="M220 598v-519h53q15 0 15 -15v-49q0 -15 -15 -15h-218q-15 0 -15 15v49q0 15 15 15h53v519h-53q-15 0 -15 15v51q0 15 15 15h218q15 0 15 -15v-51q0 -15 -15 -15h-53zM16 837.5q22 20.5 50 20.5t94 -20.5t89 -20.5q34 0 34 27q0 13 15 13h24q12 0 12 -14
q0 -50 -21.5 -74.5t-54 -24.5t-98.5 19t-81 19q-30 0 -30 -22q0 -7 -2 -8.5t-10 -1.5h-31q-12 0 -12 14q0 53 22 73.5z" />
    <glyph glyph-name="itilde" unicode="&#x129;" horiz-adv-x="294" 
d="M206 480v-401h63q15 0 15 -15v-49q0 -15 -15 -15h-238q-15 0 -15 15v49q0 15 15 15h63v334h-54q-15 0 -15 15v52q0 15 15 15h151q15 0 15 -15zM-1 691.5q22 20.5 50 20.5t94 -20.5t89 -20.5q34 0 34 27q0 13 15 13h24q12 0 12 -14q0 -50 -21.5 -74.5t-54 -24.5t-98.5 19
t-81 19q-30 0 -30 -22q0 -7 -2 -8.5t-10 -1.5h-31q-12 0 -12 14q0 53 22 73.5z" />
    <glyph glyph-name="Imacron" unicode="&#x12a;" horiz-adv-x="328" 
d="M220 598v-519h53q15 0 15 -15v-49q0 -15 -15 -15h-218q-15 0 -15 15v49q0 15 15 15h53v519h-53q-15 0 -15 15v51q0 15 15 15h218q15 0 15 -15v-51q0 -15 -15 -15h-53zM294 760h-260q-11 0 -15 4t-4 15v43q0 11 4 15t15 4h260q11 0 15 -4t4 -15v-43q0 -11 -4 -15t-15 -4z
" />
    <glyph glyph-name="imacron" unicode="&#x12b;" horiz-adv-x="294" 
d="M206 79h63q15 0 15 -15v-49q0 -15 -15 -15h-238q-15 0 -15 15v49q0 15 15 15h63v334h-54q-15 0 -15 15v52q0 15 15 15h151q15 0 15 -15v-401zM277 612h-260q-11 0 -15 4t-4 15v43q0 11 4 15t15 4h260q11 0 15 -4t4 -15v-43q0 -11 -4 -15t-15 -4z" />
    <glyph glyph-name="Ibreve" unicode="&#x12c;" horiz-adv-x="328" 
d="M220 598v-519h53q15 0 15 -15v-49q0 -15 -15 -15h-218q-15 0 -15 15v49q0 15 15 15h53v519h-53q-15 0 -15 15v51q0 15 15 15h218q15 0 15 -15v-51q0 -15 -15 -15h-53zM79 853q11 -42 88.5 -42t90.5 42q4 12 9 15.5t17 3.5h31q18 0 18 -15q0 -57 -46 -89.5t-122 -32.5
t-117.5 31t-43.5 87q0 11 4 15t15 4h32q12 0 16.5 -3.5t7.5 -15.5z" />
    <glyph glyph-name="ibreve" unicode="&#x12d;" horiz-adv-x="294" 
d="M206 480v-401h63q15 0 15 -15v-49q0 -15 -15 -15h-238q-15 0 -15 15v49q0 15 15 15h63v334h-54q-15 0 -15 15v52q0 15 15 15h151q15 0 15 -15zM148 660q77 0 92 47q4 12 9 15.5t17 3.5h27q18 0 18 -15q0 -59 -46.5 -95.5t-121.5 -36.5t-117 34.5t-44 93.5q0 11 4 15t15 4
h28q12 0 16.5 -3.5t9.5 -15.5q10 -27 29.5 -37t63.5 -10z" />
    <glyph glyph-name="Iogonek" unicode="&#x12e;" horiz-adv-x="328" 
d="M62 -147q0 66 87 147h-94q-15 0 -15 15v49q0 15 15 15h53v519h-53q-15 0 -15 15v51q0 15 15 15h218q15 0 15 -15v-51q0 -15 -15 -15h-53v-519h53q15 0 15 -15v-49q0 -15 -15 -15h-60q-72 -78 -72 -128q0 -36 33 -36q18 0 35 8.5t23 -3.5l10 -20q8 -15 -7 -24
q-44 -30 -86.5 -30t-64.5 24t-22 62z" />
    <glyph glyph-name="iogonek" unicode="&#x12f;" horiz-adv-x="294" 
d="M45 -147q0 66 87 147h-101q-15 0 -15 15v49q0 15 15 15h63v334h-54q-15 0 -15 15v52q0 15 15 15h151q15 0 15 -15v-401h63q15 0 15 -15v-49q0 -15 -15 -15h-73q-72 -78 -72 -128q0 -36 33 -36q18 0 35 8.5t23 -3.5l10 -20q8 -15 -7 -24q-44 -30 -86.5 -30t-64.5 24
t-22 62zM66 635q0 31 19.5 51.5t52 20.5t52 -20.5t19.5 -51.5t-20 -51t-52.5 -20t-51.5 20t-19 51z" />
    <glyph glyph-name="Idotaccent" unicode="&#x130;" horiz-adv-x="328" 
d="M220 598v-519h53q15 0 15 -15v-49q0 -15 -15 -15h-218q-15 0 -15 15v49q0 15 15 15h53v519h-53q-15 0 -15 15v51q0 15 15 15h218q15 0 15 -15v-51q0 -15 -15 -15h-53zM89 801q0 31 19.5 51.5t52 20.5t52 -20.5t19.5 -51.5t-20 -51t-52.5 -20t-51.5 20t-19 51z" />
    <glyph glyph-name="dotlessi" unicode="&#x131;" horiz-adv-x="294" 
d="M206 480v-401h63q15 0 15 -15v-49q0 -15 -15 -15h-238q-15 0 -15 15v49q0 15 15 15h63v334h-54q-15 0 -15 15v52q0 15 15 15h151q15 0 15 -15z" />
    <glyph glyph-name="IJ" unicode="&#x132;" horiz-adv-x="657" 
d="M220 598v-519h53q15 0 15 -15v-49q0 -15 -15 -15h-218q-15 0 -15 15v49q0 15 15 15h53v519h-53q-15 0 -15 15v51q0 15 15 15h218q15 0 15 -15v-51q0 -15 -15 -15h-53zM437 -38v636h-53q-15 0 -15 15v51q0 15 15 15h218q15 0 15 -15v-51q0 -15 -15 -15h-53v-640
q0 -198 -183 -198q-69 0 -113 21q-7 3 -7 8.5t2 10.5l18 52q5 15 18 10q34 -13 73.5 -13t59.5 26t20 87z" />
    <glyph glyph-name="ij" unicode="&#x133;" horiz-adv-x="583" 
d="M206 79h63q15 0 15 -15v-49q0 -15 -15 -15h-238q-15 0 -15 15v49q0 15 15 15h63v334h-54q-15 0 -15 15v52q0 15 15 15h151q15 0 15 -15v-401zM66 635q0 31 19.5 51.5t52 20.5t52 -20.5t19.5 -51.5t-20 -51t-52.5 -20t-51.5 20t-19 51zM500 480v-521q0 -199 -177 -199
q-76 0 -120 21q-9 5 -9 10.5t1 9.5l20 55q5 13 19 8q33 -12 70 -12q84 0 84 117v444h-54q-15 0 -15 15v52q0 15 15 15h151q15 0 15 -15zM360 635q0 31 19.5 51.5t52 20.5t52 -20.5t19.5 -51.5t-20 -51t-52.5 -20t-51.5 20t-19 51z" />
    <glyph glyph-name="Jcircumflex" unicode="&#x134;" horiz-adv-x="329" 
d="M109 -38v636h-53q-15 0 -15 15v51q0 15 15 15h218q15 0 15 -15v-51q0 -15 -15 -15h-53v-640q0 -198 -183 -198q-69 0 -113 21q-7 3 -7 8.5t2 10.5l18 52q5 15 18 10q34 -13 73.5 -13t59.5 26t20 87zM81 732h-55q-9 0 -9 4t3 8l82 107q9 12 24 12h76q15 0 24 -12l82 -107
q3 -4 3 -8t-9 -4h-57q-16 0 -25 12l-58 71l-57 -71q-9 -12 -24 -12z" />
    <glyph glyph-name="jcircumflex" unicode="&#x135;" horiz-adv-x="289" 
d="M206 480v-521q0 -199 -177 -199q-76 0 -120 21q-9 5 -9 10.5t1 9.5l20 55q5 13 19 8q33 -12 70 -12q84 0 84 117v444h-54q-15 0 -15 15v52q0 15 15 15h151q15 0 15 -15zM52 580h-59q-10 0 -10 4t3 9l84 135q9 13 23 13h76q14 0 23 -13l84 -135q3 -5 3 -9t-10 -4h-59
q-16 0 -23 12l-58 85l-54 -84q-9 -13 -23 -13z" />
    <glyph glyph-name="Kcommaaccent" unicode="&#x136;" horiz-adv-x="664" 
d="M220 598v-214h52l186 214h-53q-15 0 -15 15v51q0 15 15 15h204q15 0 15 -15v-53q0 -15 -15 -15h-51l-198 -231l199 -286h65q15 0 15 -15v-49q0 -15 -15 -15h-128q-15 0 -24 12l-201 290h-51v-223h53q15 0 15 -15v-49q0 -15 -15 -15h-218q-15 0 -15 15v49q0 15 15 15h53
v519h-53q-15 0 -15 15v51q0 15 15 15h218q15 0 15 -15v-51q0 -15 -15 -15h-53zM357 -212l-38 -58q-5 -7 -9.5 -7t-7.5 1l-12 5q-11 4 -6 16l22 72q-9 9 -13.5 17t-8.5 15q-8 14 -8 34t14.5 33.5t42.5 13.5q60 0 60 -53q0 -31 -36 -89z" />
    <glyph glyph-name="kcommaaccent" unicode="&#x137;" horiz-adv-x="566" 
d="M206 731v-399h51l155 152q11 11 26 11h78q15 0 15 -15v-52q0 -15 -15 -15h-61l-110 -107l137 -227h59q15 0 15 -15v-49q0 -15 -15 -15h-129q-14 0 -23 13l-150 242h-33v-176h53q15 0 15 -15v-49q0 -15 -15 -15h-218q-15 0 -15 15v49q0 15 15 15h53v586h-54q-15 0 -15 15
v51q0 15 15 15h151q15 0 15 -15zM308 -212l-38 -58q-5 -7 -9.5 -7t-7.5 1l-12 5q-11 4 -6 16l22 72q-9 9 -13.5 17t-8.5 15q-8 14 -8 34t14.5 33.5t42.5 13.5q60 0 60 -53q0 -31 -36 -89z" />
    <glyph glyph-name="kgreenlandic" unicode="&#x138;" horiz-adv-x="566" 
d="M44 495h143q11 0 15 -4t4 -15v-184h51l130 188q11 15 30 15h95q11 0 15 -4t4 -15v-45q0 -11 -4 -15t-15 -3h-66l-98 -136l135 -198h64q11 0 15 -4t4 -15v-41q0 -11 -4 -15t-15 -4h-131q-19 0 -30 16l-134 199h-46v-136h49q11 1 15 -3t4 -15v-42q0 -11 -4 -15t-15 -4h-210
q-11 0 -15 4t-4 15v42q0 11 4 15t15 3h49v335h-50q-11 -1 -15 3t-4 15v44q0 11 4 15t15 4z" />
    <glyph glyph-name="Lacute" unicode="&#x139;" horiz-adv-x="525" 
d="M220 598v-519h209l-4 70q-1 15 14 15h56q15 0 15 -15v-197q0 -15 -15 -15h-56q-15 0 -14 15l3 48h-373q-15 0 -15 15v49q0 15 15 15h53v519h-53q-15 0 -15 15v51q0 15 15 15h238q15 0 15 -15v-51q0 -15 -15 -15h-73zM120 746l45 98q6 14 21 14h78q9 0 9 -4t-3 -8
l-70 -102q-8 -12 -23 -12h-48q-11 0 -11 7q0 3 2 7z" />
    <glyph glyph-name="lacute" unicode="&#x13a;" horiz-adv-x="294" 
d="M206 731v-652h63q15 0 15 -15v-49q0 -15 -15 -15h-238q-15 0 -15 15v49q0 15 15 15h63v585h-54q-15 0 -15 15v52q0 15 15 15h151q15 0 15 -15zM103 794l45 98q6 14 21 14h78q9 0 9 -4t-3 -8l-70 -102q-7 -12 -23 -12h-48q-11 0 -11 7q0 3 2 7z" />
    <glyph glyph-name="Lcommaaccent" unicode="&#x13b;" horiz-adv-x="525" 
d="M220 598v-519h209l-4 70q-1 15 14 15h56q15 0 15 -15v-197q0 -15 -15 -15h-56q-15 0 -14 15l3 48h-373q-15 0 -15 15v49q0 15 15 15h53v519h-53q-15 0 -15 15v51q0 15 15 15h238q15 0 15 -15v-51q0 -15 -15 -15h-73zM287 -212l-38 -58q-5 -7 -9.5 -7t-7.5 1l-12 5
q-11 4 -6 16l22 72q-9 9 -13.5 17t-8.5 15q-8 14 -8 34t14.5 33.5t42.5 13.5q60 0 60 -53q0 -31 -36 -89z" />
    <glyph glyph-name="lcommaaccent" unicode="&#x13c;" horiz-adv-x="294" 
d="M206 731v-652h63q15 0 15 -15v-49q0 -15 -15 -15h-238q-15 0 -15 15v49q0 15 15 15h63v585h-54q-15 0 -15 15v52q0 15 15 15h151q15 0 15 -15zM172 -212l-38 -58q-5 -7 -9.5 -7t-7.5 1l-12 5q-11 4 -6 16l22 72q-9 9 -13.5 17t-8.5 15q-8 14 -8 34t14.5 33.5t42.5 13.5
q60 0 60 -53q0 -31 -36 -89z" />
    <glyph glyph-name="Lcaron" unicode="&#x13d;" horiz-adv-x="525" 
d="M220 598v-519h209l-4 70q-1 15 14 15h56q15 0 15 -15v-197q0 -15 -15 -15h-56q-15 0 -14 15l3 48h-373q-15 0 -15 15v49q0 15 15 15h53v519h-53q-15 0 -15 15v51q0 15 15 15h238q15 0 15 -15v-51q0 -15 -15 -15h-73zM371 664q0 15 15 15h72q14 0 13 -15l-32 -190
q-3 -15 -18 -15h-35q-15 0 -15 15v190z" />
    <glyph glyph-name="lcaron" unicode="&#x13e;" horiz-adv-x="316" 
d="M206 731v-652h63q15 0 15 -15v-49q0 -15 -15 -15h-238q-15 0 -15 15v49q0 15 15 15h63v585h-54q-15 0 -15 15v52q0 15 15 15h151q15 0 15 -15zM268 731q0 15 15 15h72q14 0 13 -15l-32 -190q-3 -15 -18 -15h-35q-15 0 -15 15v190z" />
    <glyph glyph-name="Ldot" unicode="&#x13f;" horiz-adv-x="525" 
d="M220 598v-519h209l-4 70q-1 15 14 15h56q15 0 15 -15v-197q0 -15 -15 -15h-56q-15 0 -14 15l3 48h-373q-15 0 -15 15v49q0 15 15 15h53v519h-53q-15 0 -15 15v51q0 15 15 15h238q15 0 15 -15v-51q0 -15 -15 -15h-73zM344 327q0 31 19.5 51.5t52 20.5t52 -20.5t19.5 -51.5
t-20 -51t-52.5 -20t-51.5 20t-19 51z" />
    <glyph glyph-name="ldot" unicode="&#x140;" horiz-adv-x="401" 
d="M206 731v-652h63q15 0 15 -15v-49q0 -15 -15 -15h-238q-15 0 -15 15v49q0 15 15 15h63v585h-54q-15 0 -15 15v52q0 15 15 15h151q15 0 15 -15zM276 350q0 31 19.5 51.5t52 20.5t52 -20.5t19.5 -51.5t-20 -51t-52.5 -20t-51.5 20t-19 51z" />
    <glyph glyph-name="Lslash" unicode="&#x141;" horiz-adv-x="525" 
d="M220 598v-212l182 54q10 3 14 0t4 -14v-26q0 -12 -3.5 -16.5t-14.5 -7.5l-182 -54v-243h209l-4 70q-1 15 14 15h56q15 0 15 -15v-197q0 -15 -15 -15h-56q-15 0 -14 15l3 48h-373q-15 0 -15 15v49q0 15 15 15h53v217l-51 -15q-11 -3 -14.5 0t-3.5 14v26q0 12 3.5 16.5
t14.5 7.5l51 15v238h-53q-15 0 -15 15v51q0 15 15 15h238q15 0 15 -15v-51q0 -15 -15 -15h-73z" />
    <glyph glyph-name="lslash" unicode="&#x142;" horiz-adv-x="294" 
d="M206 731v-291l76 31q10 4 13.5 1.5t3.5 -13.5v-26q0 -12 -3 -16.5t-14 -9.5l-76 -31v-297h63q15 0 15 -15v-49q0 -15 -15 -15h-238q-15 0 -15 15v49q0 15 15 15h63v258l-67 -27q-10 -4 -13.5 -1.5t-3.5 13.5v26q0 12 3 16.5t14 9.5l67 27v263h-54q-15 0 -15 15v52
q0 15 15 15h151q15 0 15 -15z" />
    <glyph glyph-name="Nacute" unicode="&#x143;" horiz-adv-x="743" 
d="M645 598v-583q0 -15 -15 -15h-73q-15 0 -23 12l-339 501v-434h83q15 0 15 -15v-49q0 -15 -15 -15h-223q-15 0 -15 15v49q0 15 15 15h53v519h-53q-15 0 -15 15v51q0 15 15 15h147q14 0 23 -13l333 -506v438h-53q-15 0 -15 15v51q0 15 15 15h193q15 0 15 -15v-51
q0 -15 -15 -15h-53zM340 746l45 98q6 14 21 14h78q9 0 9 -4t-3 -8l-70 -102q-8 -12 -23 -12h-48q-11 0 -11 7q0 3 2 7z" />
    <glyph glyph-name="nacute" unicode="&#x144;" horiz-adv-x="604" 
d="M25 427v53q0 15 15 15h136q13 0 16 -15l9 -58q56 84 160 84q155 0 155 -170v-257h58q15 0 15 -15v-49q0 -15 -15 -15h-218q-15 0 -15 15v49q0 15 15 15h48v207q0 63 -16 92t-66 29t-83 -30t-33 -68v-230h62q15 0 15 -15v-49q0 -15 -15 -15h-227q-15 0 -15 15v49
q0 15 15 15h53v334h-54q-15 0 -15 14zM300 580q-15 0 -15 9q0 3 2 9l42 116q4 11 8.5 14.5t16.5 3.5h72q14 0 14 -5t-4 -12l-65 -118q-5 -10 -10.5 -13.5t-17.5 -3.5h-43z" />
    <glyph glyph-name="Ncommaaccent" unicode="&#x145;" horiz-adv-x="743" 
d="M645 598v-583q0 -15 -15 -15h-73q-15 0 -23 12l-339 501v-434h83q15 0 15 -15v-49q0 -15 -15 -15h-223q-15 0 -15 15v49q0 15 15 15h53v519h-53q-15 0 -15 15v51q0 15 15 15h147q14 0 23 -13l333 -506v438h-53q-15 0 -15 15v51q0 15 15 15h193q15 0 15 -15v-51
q0 -15 -15 -15h-53zM407 -212l-38 -58q-5 -7 -9.5 -7t-7.5 1l-12 5q-11 4 -6 16l22 72q-9 9 -13.5 17t-8.5 15q-8 14 -8 34t14.5 33.5t42.5 13.5q60 0 60 -53q0 -31 -36 -89z" />
    <glyph glyph-name="ncommaaccent" unicode="&#x146;" horiz-adv-x="604" 
d="M25 427v53q0 15 15 15h136q13 0 16 -15l9 -58q56 84 160 84q155 0 155 -170v-257h58q15 0 15 -15v-49q0 -15 -15 -15h-218q-15 0 -15 15v49q0 15 15 15h48v207q0 63 -16 92t-66 29t-83 -30t-33 -68v-230h62q15 0 15 -15v-49q0 -15 -15 -15h-227q-15 0 -15 15v49
q0 15 15 15h53v334h-54q-15 0 -15 14zM327 -212l-38 -58q-5 -7 -9.5 -7t-7.5 1l-12 5q-11 4 -6 16l22 72q-9 9 -13.5 17t-8.5 15q-8 14 -8 34t14.5 33.5t42.5 13.5q60 0 60 -53q0 -31 -36 -89z" />
    <glyph glyph-name="Ncaron" unicode="&#x147;" horiz-adv-x="743" 
d="M645 598v-583q0 -15 -15 -15h-73q-15 0 -23 12l-339 501v-434h83q15 0 15 -15v-49q0 -15 -15 -15h-223q-15 0 -15 15v49q0 15 15 15h53v519h-53q-15 0 -15 15v51q0 15 15 15h147q14 0 23 -13l333 -506v438h-53q-15 0 -15 15v51q0 15 15 15h193q15 0 15 -15v-51
q0 -15 -15 -15h-53zM464 863h55q9 0 9 -3.5t-3 -8.5l-82 -107q-9 -12 -24 -12h-76q-15 0 -24 12l-82 107q-3 5 -3 8.5t9 3.5h57q16 0 25 -12l58 -71l57 71q9 12 24 12z" />
    <glyph glyph-name="ncaron" unicode="&#x148;" horiz-adv-x="604" 
d="M25 427v53q0 15 15 15h136q13 0 16 -15l9 -58q56 84 160 84q155 0 155 -170v-257h58q15 0 15 -15v-49q0 -15 -15 -15h-218q-15 0 -15 15v49q0 15 15 15h48v207q0 63 -16 92t-66 29t-83 -30t-33 -68v-230h62q15 0 15 -15v-49q0 -15 -15 -15h-227q-15 0 -15 15v49
q0 15 15 15h53v334h-54q-15 0 -15 14zM396 741h59q10 0 10 -4t-3 -9l-84 -135q-9 -13 -23 -13h-76q-14 0 -23 13l-84 135q-3 5 -3 9t10 4h59q15 0 23 -12l58 -85l54 84q9 13 23 13z" />
    <glyph glyph-name="napostrophe" unicode="&#x149;" horiz-adv-x="604" 
d="M25 427v53q0 15 15 15h136q13 0 16 -15l9 -58q56 84 160 84q155 0 155 -170v-257h58q15 0 15 -15v-49q0 -15 -15 -15h-218q-15 0 -15 15v49q0 15 15 15h48v207q0 63 -16 92t-66 29t-83 -30t-33 -68v-230h62q15 0 15 -15v-49q0 -15 -15 -15h-227q-15 0 -15 15v49
q0 15 15 15h53v334h-54q-15 0 -15 14zM48 546q-14 6 -14 11.5t3 12.5l29 90q-31 41 -31 67.5t16.5 42.5t43.5 16t45 -16t18 -37.5t-6 -40.5q-8 -24 -33 -64l-44 -74q-6 -10 -13.5 -10t-12.5 2h-1z" />
    <glyph glyph-name="Eng" unicode="&#x14a;" horiz-adv-x="743" 
d="M645 598v-639q0 -199 -177 -199q-59 0 -113 19q-17 7 -11 25l15 45q4 10 9 12.5t25 -4t60 -6.5t60 25.5t20 89.5v47l-338 500v-434h83q15 0 15 -15v-49q0 -15 -15 -15h-223q-15 0 -15 15v49q0 15 15 15h53v519h-53q-15 0 -15 15v51q0 15 15 15h147q14 0 23 -13l333 -506
v438h-53q-15 0 -15 15v51q0 15 15 15h193q15 0 15 -15v-51q0 -15 -15 -15h-53z" />
    <glyph glyph-name="eng" unicode="&#x14b;" horiz-adv-x="604" 
d="M320 -120q84 0 84 117v289q0 63 -16 92t-66 29t-83 -30t-33 -68v-230h62q15 0 15 -15v-49q0 -15 -15 -15h-227q-15 0 -15 15v49q0 15 15 15h53v334h-54q-15 0 -15 14v53q0 15 15 15h136q13 0 16 -15l9 -58q56 84 160 84q155 0 155 -170v-349q0 -199 -177 -199
q-76 0 -120 21q-13 7 -8 20l20 55q5 13 19 8q33 -12 70 -12z" />
    <glyph glyph-name="Omacron" unicode="&#x14c;" horiz-adv-x="692" 
d="M43 333q0 100 30 174.5t79 113.5q93 75 202 75q37 0 71 -6t77 -26.5t73.5 -55t52 -98.5t21.5 -149q0 -180 -88.5 -276.5t-227 -96.5t-214.5 88t-76 257zM345 82q179 0 179 263t-182 263q-64 0 -105.5 -34.5t-57.5 -86t-16 -119.5q0 -286 182 -286zM476 760h-260
q-11 0 -15 4t-4 15v43q0 11 4 15t15 4h260q11 0 15 -4t4 -15v-43q0 -11 -4 -15t-15 -4z" />
    <glyph glyph-name="omacron" unicode="&#x14d;" horiz-adv-x="532" 
d="M35 240q0 75 23 130t60 83q71 53 154 53q61 0 103 -19t65.5 -44t40 -72t16.5 -110q0 -134 -67.5 -203.5t-172.5 -69.5t-163.5 63.5t-58.5 188.5zM265 70q60 0 87.5 44.5t27.5 132.5t-27.5 132.5t-89.5 44.5q-115 0 -115 -162q0 -192 117 -192zM400 612h-260q-11 0 -15 4
t-4 15v43q0 11 4 15t15 4h260q11 0 15 -4t4 -15v-43q0 -11 -4 -15t-15 -4z" />
    <glyph glyph-name="Obreve" unicode="&#x14e;" horiz-adv-x="692" 
d="M43 333q0 100 30 174.5t79 113.5q93 75 202 75q37 0 71 -6t77 -26.5t73.5 -55t52 -98.5t21.5 -149q0 -180 -88.5 -276.5t-227 -96.5t-214.5 88t-76 257zM345 82q179 0 179 263t-182 263q-64 0 -105.5 -34.5t-57.5 -86t-16 -119.5q0 -286 182 -286zM270 853q10 -42 88 -42
t91 42q4 12 9 15.5t17 3.5h31q18 0 18 -15q0 -57 -46 -89.5t-122 -32.5t-117.5 31t-43.5 87q0 11 4 15t15 4h32q12 0 16.5 -3.5t7.5 -15.5z" />
    <glyph glyph-name="obreve" unicode="&#x14f;" horiz-adv-x="532" 
d="M35 240q0 75 23 130t60 83q71 53 154 53q61 0 103 -19t65.5 -44t40 -72t16.5 -110q0 -134 -67.5 -203.5t-172.5 -69.5t-163.5 63.5t-58.5 188.5zM265 70q60 0 87.5 44.5t27.5 132.5t-27.5 132.5t-89.5 44.5q-115 0 -115 -162q0 -192 117 -192zM267 660q77 0 92 47
q4 12 9 15.5t17 3.5h27q18 0 18 -15q0 -59 -46.5 -95.5t-121.5 -36.5t-117 34.5t-44 93.5q0 11 4 15t15 4h28q12 0 16.5 -3.5t9.5 -15.5q10 -27 29.5 -37t63.5 -10z" />
    <glyph glyph-name="Ohungarumlaut" unicode="&#x150;" horiz-adv-x="692" 
d="M43 333q0 100 30 174.5t79 113.5q93 75 202 75q37 0 71 -6t77 -26.5t73.5 -55t52 -98.5t21.5 -149q0 -180 -88.5 -276.5t-227 -96.5t-214.5 88t-76 257zM345 82q179 0 179 263t-182 263q-64 0 -105.5 -34.5t-57.5 -86t-16 -119.5q0 -286 182 -286zM395 746l45 98
q6 14 21 14h68q9 0 9 -4t-3 -8l-70 -102q-7 -12 -23 -12h-38q-15 0 -9 14zM261 746l45 98q6 14 21 14h68q9 0 9 -4t-3 -8l-70 -102q-7 -12 -23 -12h-38q-11 0 -11 7q0 3 2 7z" />
    <glyph glyph-name="ohungarumlaut" unicode="&#x151;" horiz-adv-x="532" 
d="M35 240q0 75 23 130t60 83q71 53 154 53q61 0 103 -19t65.5 -44t40 -72t16.5 -110q0 -134 -67.5 -203.5t-172.5 -69.5t-163.5 63.5t-58.5 188.5zM265 70q60 0 87.5 44.5t27.5 132.5t-27.5 132.5t-89.5 44.5q-115 0 -115 -162q0 -192 117 -192zM305 594l45 124q4 14 20 14
h68q10 0 10 -6q0 -3 -2 -7l-69 -126q-7 -13 -22 -13h-40q-14 0 -10 14zM167 594l45 124q4 14 20 14h68q10 0 10 -6q0 -3 -2 -7l-69 -126q-7 -13 -22 -13h-40q-11 0 -11 8q0 3 1 6z" />
    <glyph glyph-name="OE" unicode="&#x152;" horiz-adv-x="976" 
d="M855 599h-209v-213h149l-4 47q-1 11 3 15t15 4h48q11 0 15 -4t4 -15v-169q0 -11 -4 -15t-15 -4h-48q-11 0 -15 4t-3 15l3 44h-148v-226h229l-4 63q-1 11 3 15t15 4h48q11 0 15 -4t4 -15v-126q0 -11 -4 -15t-15 -4h-384q-11 0 -15 4t-4 15v36q-70 -67 -201.5 -67
t-207 86.5t-75.5 255.5q0 81 20.5 146t52 105t73.5 67q76 48 173.5 48t164.5 -55v19q0 11 4 15t15 4h364q11 0 15 -4t4 -15v-126q0 -11 -4 -15t-15 -4h-48q-11 0 -15 4t-3 15zM170 368q0 -286 182 -286q93 0 136 69.5t43 189.5t-43 193.5t-137.5 73.5t-137.5 -68t-43 -172z
" />
    <glyph glyph-name="oe" unicode="&#x153;" horiz-adv-x="830" 
d="M606 -12q-122 0 -176 79q-59 -79 -168.5 -79t-168 63.5t-58.5 188.5q0 75 23 130t60 83q71 53 154 53q115 0 168 -75q58 75 165 75q55 0 94.5 -20.5t60.5 -55.5q40 -68 40 -157q0 -42 -4 -46t-15 -4h-294q5 -72 35.5 -111.5t105.5 -39.5q54 0 113 26q14 7 20 -8l19 -46
q5 -12 -9 -20q-66 -36 -165 -36zM265 70q60 0 87.5 44.5t27.5 132.5t-27.5 132.5t-89.5 44.5q-115 0 -115 -162q0 -192 117 -192zM487 297h208q2 125 -98 125q-59 0 -83.5 -37.5t-26.5 -87.5z" />
    <glyph glyph-name="Racute" unicode="&#x154;" horiz-adv-x="616" 
d="M40 15v49q0 15 15 15h52v520h-52q-15 0 -15 15v50q0 15 15 15q128 6 213 6q260 0 260 -186q0 -65 -33 -114.5t-88 -75.5l117 -230h62q15 0 15 -15v-49q0 -15 -15 -15h-132q-15 0 -22 13l-136 269h-20q-32 0 -57 3v-206h63q15 0 15 -15v-49q0 -15 -15 -15h-227
q-15 0 -15 15zM219 602v-241q8 -1 23 -1q81 0 126 32t45 96q0 114 -158 114h-36zM212 746l45 98q6 14 21 14h78q9 0 9 -4t-3 -8l-70 -102q-8 -12 -23 -12h-48q-11 0 -11 7q0 3 2 7z" />
    <glyph glyph-name="racute" unicode="&#x155;" horiz-adv-x="451" 
d="M255 477.5q38 28.5 83 28.5t69 -8q12 -4 12 -18v-135q0 -15 -15 -15h-65q-15 0 -14 15l4 58q-5 1 -17 1q-46 0 -76 -37.5t-30 -100.5v-187h110q15 0 15 -15v-49q0 -15 -15 -15h-275q-15 0 -15 15v49q0 15 15 15h53v334h-54q-15 0 -15 15v52q0 15 15 15h132q14 0 17 -15
l11 -71q17 40 55 68.5zM210 580q-15 0 -15 9q0 3 2 9l42 116q4 11 8.5 14.5t16.5 3.5h72q14 0 14 -5t-4 -12l-65 -118q-5 -10 -10.5 -13.5t-17.5 -3.5h-43z" />
    <glyph glyph-name="Rcommaaccent" unicode="&#x156;" horiz-adv-x="616" 
d="M40 15v49q0 15 15 15h52v520h-52q-15 0 -15 15v50q0 15 15 15q128 6 213 6q260 0 260 -186q0 -65 -33 -114.5t-88 -75.5l117 -230h62q15 0 15 -15v-49q0 -15 -15 -15h-132q-15 0 -22 13l-136 269h-20q-32 0 -57 3v-206h63q15 0 15 -15v-49q0 -15 -15 -15h-227
q-15 0 -15 15zM219 602v-241q8 -1 23 -1q81 0 126 32t45 96q0 114 -158 114h-36zM333 -212l-38 -58q-5 -7 -9.5 -7t-7.5 1l-12 5q-11 4 -6 16l22 72q-9 9 -13.5 17t-8.5 15q-8 14 -8 34t14.5 33.5t42.5 13.5q60 0 60 -53q0 -31 -36 -89z" />
    <glyph glyph-name="rcommaaccent" unicode="&#x157;" horiz-adv-x="451" 
d="M255 477.5q38 28.5 83 28.5t69 -8q12 -4 12 -18v-135q0 -15 -15 -15h-65q-15 0 -14 15l4 58q-5 1 -17 1q-46 0 -76 -37.5t-30 -100.5v-187h110q15 0 15 -15v-49q0 -15 -15 -15h-275q-15 0 -15 15v49q0 15 15 15h53v334h-54q-15 0 -15 15v52q0 15 15 15h132q14 0 17 -15
l11 -71q17 40 55 68.5zM173 -212l-38 -58q-5 -7 -9.5 -7t-7.5 1l-12 5q-11 4 -6 16l22 72q-9 9 -13.5 17t-8.5 15q-8 14 -8 34t14.5 33.5t42.5 13.5q60 0 60 -53q0 -31 -36 -89z" />
    <glyph glyph-name="Rcaron" unicode="&#x158;" horiz-adv-x="616" 
d="M40 15v49q0 15 15 15h52v520h-52q-15 0 -15 15v50q0 15 15 15q128 6 213 6q260 0 260 -186q0 -65 -33 -114.5t-88 -75.5l117 -230h62q15 0 15 -15v-49q0 -15 -15 -15h-132q-15 0 -22 13l-136 269h-20q-32 0 -57 3v-206h63q15 0 15 -15v-49q0 -15 -15 -15h-227
q-15 0 -15 15zM219 602v-241q8 -1 23 -1q81 0 126 32t45 96q0 114 -158 114h-36zM348 863h55q9 0 9 -3.5t-3 -8.5l-82 -107q-9 -12 -24 -12h-76q-15 0 -24 12l-82 107q-3 5 -3 8.5t9 3.5h57q16 0 25 -12l58 -71l57 71q9 12 24 12z" />
    <glyph glyph-name="rcaron" unicode="&#x159;" horiz-adv-x="451" 
d="M255 477.5q38 28.5 83 28.5t69 -8q12 -4 12 -18v-135q0 -15 -15 -15h-65q-15 0 -14 15l4 58q-5 1 -17 1q-46 0 -76 -37.5t-30 -100.5v-187h110q15 0 15 -15v-49q0 -15 -15 -15h-275q-15 0 -15 15v49q0 15 15 15h53v334h-54q-15 0 -15 15v52q0 15 15 15h132q14 0 17 -15
l11 -71q17 40 55 68.5zM315 741h59q10 0 10 -4t-3 -9l-84 -135q-9 -13 -23 -13h-76q-14 0 -23 13l-84 135q-3 5 -3 9t10 4h59q15 0 23 -12l58 -85l54 84q9 13 23 13z" />
    <glyph glyph-name="Sacute" unicode="&#x15a;" horiz-adv-x="517" 
d="M283 696q74 0 148 -22q14 -4 14 -18v-138q0 -15 -15 -15h-56q-15 0 -14 15l3 67q-40 24 -89 24t-78.5 -23.5t-29.5 -65.5t27 -68.5t77 -45.5t67 -26t49.5 -26t48 -37.5t29 -49.5t13.5 -69q0 -99 -62.5 -154.5t-177.5 -55.5q-85 0 -168 26q-14 4 -14 18v159q0 15 15 15h56
q15 0 14 -15l-4 -83q13 -12 43.5 -22.5t62.5 -10.5q124 0 124 101q0 49 -33 77.5t-85.5 46t-79.5 31t-55 35.5q-56 42 -56 129t60 144t166 57zM237 746l45 98q6 14 21 14h78q9 0 9 -4t-3 -8l-70 -102q-7 -12 -23 -12h-48q-11 0 -11 7q0 3 2 7z" />
    <glyph glyph-name="sacute" unicode="&#x15b;" horiz-adv-x="431" 
d="M92 462q51 44 129 44t135 -18q14 -4 14 -18v-106q0 -15 -15 -15h-58q-16 0 -13 15l5 51q-30 16 -66 16q-80 0 -80 -56q0 -47 65 -65q71 -20 122 -45q29 -14 47.5 -43.5t18.5 -72.5q0 -76 -53 -118.5t-149 -42.5q-67 0 -141 20q-13 4 -13 19v106q0 15 15 15h58
q15 0 14 -15l-3 -52q27 -20 77 -20q89 0 89 63q0 32 -25.5 50.5t-62 28.5t-73.5 22.5t-62.5 44t-25.5 82.5q0 66 51 110zM197 580q-15 0 -15 9q0 3 2 9l42 116q4 11 8.5 14.5t16.5 3.5h72q14 0 14 -5t-4 -12l-65 -118q-8 -17 -28 -17h-43z" />
    <glyph glyph-name="Scircumflex" unicode="&#x15c;" horiz-adv-x="517" 
d="M283 696q74 0 148 -22q14 -4 14 -18v-138q0 -15 -15 -15h-56q-15 0 -14 15l3 67q-40 24 -89 24t-78.5 -23.5t-29.5 -65.5t27 -68.5t77 -45.5t67 -26t49.5 -26t48 -37.5t29 -49.5t13.5 -69q0 -99 -62.5 -154.5t-177.5 -55.5q-85 0 -168 26q-14 4 -14 18v159q0 15 15 15h56
q15 0 14 -15l-4 -83q13 -12 43.5 -22.5t62.5 -10.5q124 0 124 101q0 49 -33 77.5t-85.5 46t-79.5 31t-55 35.5q-56 42 -56 129t60 144t166 57zM192 732h-55q-9 0 -9 4t3 8l82 107q9 12 24 12h76q15 0 24 -12l82 -107q3 -4 3 -8t-9 -4h-57q-16 0 -25 12l-58 71l-57 -71
q-9 -12 -24 -12z" />
    <glyph glyph-name="scircumflex" unicode="&#x15d;" horiz-adv-x="431" 
d="M92 462q51 44 129 44t135 -18q14 -4 14 -18v-106q0 -15 -15 -15h-58q-16 0 -13 15l5 51q-30 16 -66 16q-80 0 -80 -56q0 -47 65 -65q71 -20 122 -45q29 -14 47.5 -43.5t18.5 -72.5q0 -76 -53 -118.5t-149 -42.5q-67 0 -141 20q-13 4 -13 19v106q0 15 15 15h58
q15 0 14 -15l-3 -52q27 -20 77 -20q89 0 89 63q0 32 -25.5 50.5t-62 28.5t-73.5 22.5t-62.5 44t-25.5 82.5q0 66 51 110zM138 580h-59q-10 0 -10 4t3 9l84 135q9 13 23 13h76q14 0 23 -13l84 -135q3 -5 3 -9t-10 -4h-59q-16 0 -23 12l-58 85l-54 -84q-9 -13 -23 -13z" />
    <glyph glyph-name="Scedilla" unicode="&#x15e;" horiz-adv-x="517" 
d="M283 696q74 0 148 -22q14 -4 14 -18v-138q0 -15 -15 -15h-56q-15 0 -14 15l3 67q-40 24 -88.5 24t-77.5 -23.5t-29 -65t26 -67t73 -43t61.5 -24t42 -20t42.5 -27.5t32 -35q32 -38 32 -106q0 -89 -51.5 -143t-146.5 -64l-14 -23l16 -14q38 -33 38 -62q0 -41 -96 -105
q-5 -3 -10.5 -3t-10.5 6l-8 10q-9 11 1 20q41 36 41 56t-22 37l-9 7q-11 9 -3 21l32 47q-88 1 -165 26q-14 4 -14 18v159q0 15 15 15h56q15 0 14 -15l-4 -83q13 -12 43.5 -22.5t62.5 -10.5q122 0 122 95q0 53 -32 81.5t-85 46t-79.5 30.5t-54.5 34q-56 44 -56 130t60 145
t166 59z" />
    <glyph glyph-name="scedilla" unicode="&#x15f;" horiz-adv-x="431" 
d="M92 462q51 44 129 44t135 -18q14 -4 14 -18v-106q0 -15 -15 -15h-58q-16 0 -13 15l5 51q-30 16 -66 16q-80 0 -80 -56q0 -47 65 -65q71 -20 122 -45q29 -14 47.5 -43.5t18.5 -72.5q0 -66 -41.5 -107.5t-117.5 -50.5l-14 -23l16 -14q38 -33 38 -62q0 -41 -96 -105
q-5 -3 -10.5 -3t-10.5 6l-8 10q-9 11 1 20q41 36 41 56t-22 37l-9 7q-11 9 -3 21l32 47q-65 0 -139 20q-13 4 -13 19v106q0 15 15 15h58q15 0 14 -15l-3 -52q27 -20 77 -20q89 0 89 63q0 32 -25.5 50.5t-62 28.5t-73.5 22.5t-62.5 44t-25.5 82.5q0 66 51 110z" />
    <glyph glyph-name="Scaron" unicode="&#x160;" horiz-adv-x="517" 
d="M283 696q74 0 148 -22q14 -4 14 -18v-138q0 -15 -15 -15h-56q-15 0 -14 15l3 67q-40 24 -89 24t-78.5 -23.5t-29.5 -65.5t27 -68.5t77 -45.5t67 -26t49.5 -26t48 -37.5t29 -49.5t13.5 -69q0 -99 -62.5 -154.5t-177.5 -55.5q-85 0 -168 26q-14 4 -14 18v159q0 15 15 15h56
q15 0 14 -15l-4 -83q13 -12 43.5 -22.5t62.5 -10.5q124 0 124 101q0 49 -33 77.5t-85.5 46t-79.5 31t-55 35.5q-56 42 -56 129t60 144t166 57zM355 863h55q9 0 9 -3.5t-3 -8.5l-82 -107q-9 -12 -24 -12h-76q-15 0 -24 12l-82 107q-3 5 -3 8.5t9 3.5h57q16 0 25 -12l58 -71
l57 71q9 12 24 12z" />
    <glyph glyph-name="scaron" unicode="&#x161;" horiz-adv-x="431" 
d="M92 462q51 44 129 44t135 -18q14 -4 14 -18v-106q0 -15 -15 -15h-58q-16 0 -13 15l5 51q-30 16 -66 16q-80 0 -80 -56q0 -47 65 -65q71 -20 122 -45q29 -14 47.5 -43.5t18.5 -72.5q0 -76 -53 -118.5t-149 -42.5q-67 0 -141 20q-13 4 -13 19v106q0 15 15 15h58
q15 0 14 -15l-3 -52q27 -20 77 -20q89 0 89 63q0 32 -25.5 50.5t-62 28.5t-73.5 22.5t-62.5 44t-25.5 82.5q0 66 51 110zM304 741h59q10 0 10 -4t-3 -9l-84 -135q-9 -13 -23 -13h-76q-14 0 -23 13l-84 135q-3 5 -3 9t10 4h59q16 0 23 -12l58 -85l54 84q9 13 23 13z" />
    <glyph glyph-name="uni0162" unicode="&#x162;" horiz-adv-x="593" 
d="M436 0h-107l-20 -32l16 -14q38 -33 38 -62q0 -41 -96 -105q-5 -3 -10.5 -3t-10.5 6l-8 10q-9 11 1 20q41 36 41 56t-22 37l-9 7q-11 9 -3 21l41 59h-129q-15 0 -15 15v49q0 15 15 15h82v520h-135l5 -78q1 -15 -14 -15h-61q-15 0 -15 15v143q0 15 15 15h523q15 0 15 -15
v-143q0 -15 -15 -15h-61q-15 0 -14 15l5 78h-135v-520h83q15 0 15 -15v-49q0 -15 -15 -15z" />
    <glyph glyph-name="uni0163" unicode="&#x163;" horiz-adv-x="369" 
d="M199 413v-252q0 -47 12 -68t45 -21t64 14q11 4 16 -8l18 -46q1 -3 1 -8.5t-10 -11.5q-39 -20 -97 -23l-13 -21l16 -14q38 -33 38 -62q0 -41 -96 -105q-5 -3 -10.5 -3t-10.5 6l-8 10q-9 11 1 20q41 36 41 56t-22 37l-9 7q-11 9 -3 21l33 48q-34 3 -57.5 16.5t-35 28
t-17.5 42.5q-8 37 -8 96v241h-57q-15 0 -15 15v52q0 15 15 15h57v135q0 15 15 15h82q15 0 15 -15v-135h101q15 0 15 -15v-52q0 -15 -15 -15h-101z" />
    <glyph glyph-name="Tcaron" unicode="&#x164;" horiz-adv-x="593" 
d="M436 0h-278q-15 0 -15 15v49q0 15 15 15h82v520h-135l5 -78q1 -15 -14 -15h-61q-15 0 -15 15v143q0 15 15 15h523q15 0 15 -15v-143q0 -15 -15 -15h-61q-15 0 -14 15l5 78h-135v-520h83q15 0 15 -15v-49q0 -15 -15 -15zM379 863h55q9 0 9 -3.5t-3 -8.5l-82 -107
q-9 -12 -24 -12h-76q-15 0 -24 12l-82 107q-3 5 -3 8.5t9 3.5h57q16 0 25 -12l58 -71l57 71q9 12 24 12z" />
    <glyph glyph-name="tcaron" unicode="&#x165;" horiz-adv-x="369" 
d="M199 413v-252q0 -47 12 -68t45 -21t64 14q11 4 16 -8l18 -46q5 -12 -9 -20q-48 -24 -114 -24q-89 0 -117 46q-20 30 -23 58q-4 38 -4 80v241h-57q-15 0 -15 15v52q0 15 15 15h57v135q0 15 15 15h82q15 0 15 -15v-135h101q15 0 15 -15v-52q0 -15 -15 -15h-101zM271 559
v190q0 15 15 15h72q14 0 13 -15l-32 -190q-3 -15 -18 -15h-35q-15 0 -15 15z" />
    <glyph glyph-name="Tbar" unicode="&#x166;" horiz-adv-x="593" 
d="M240 345v254h-135l5 -78q1 -15 -14 -15h-61q-15 0 -15 15v143q0 15 15 15h523q15 0 15 -15v-143q0 -15 -15 -15h-61q-15 0 -14 15l5 78h-135v-254h94q11 0 15 -4t4 -15v-20q0 -11 -4 -15t-15 -4h-94v-208h83q15 0 15 -15v-49q0 -15 -15 -15h-278q-15 0 -15 15v49
q0 15 15 15h82v208h-91q-11 0 -15 4t-4 15v20q0 11 4 15t15 4h91z" />
    <glyph glyph-name="tbar" unicode="&#x167;" horiz-adv-x="369" 
d="M199 413v-113h97q11 0 15 -4t4 -15v-20q0 -11 -4 -15t-15 -4h-97v-81q0 -47 12 -68t45 -21t64 14q11 4 16 -8l18 -46q1 -3 1 -8.5t-10 -11.5q-48 -24 -114 -24q-89 0 -117 46q-20 30 -23 58q-4 38 -4 80v70h-49q-11 0 -15 4t-4 15v20q0 11 4 15t15 4h49v113h-57
q-15 0 -15 15v52q0 15 15 15h57v135q0 15 15 15h82q15 0 15 -15v-135h101q15 0 15 -15v-52q0 -15 -15 -15h-101z" />
    <glyph glyph-name="Utilde" unicode="&#x168;" horiz-adv-x="713" 
d="M205 598v-314q0 -50 5 -82.5t20 -63.5q29 -60 124.5 -60t132.5 52t37 151v317h-53q-15 0 -15 15v51q0 15 15 15h202q15 0 15 -15v-51q0 -15 -15 -15h-53v-338q0 -110 -52 -186q-28 -40 -81.5 -63t-129.5 -23q-148 0 -206 64.5t-58 196.5v349h-53q-15 0 -15 15v51
q0 15 15 15h218q15 0 15 -15v-51q0 -15 -15 -15h-53zM208 837.5q22 20.5 50 20.5t94 -20.5t89 -20.5q34 0 34 27q0 13 15 13h24q12 0 12 -14q0 -50 -21.5 -74.5t-54 -24.5t-98.5 19t-81 19q-30 0 -30 -22q0 -7 -2 -8.5t-10 -1.5h-31q-12 0 -12 14q0 53 22 73.5z" />
    <glyph glyph-name="utilde" unicode="&#x169;" horiz-adv-x="599" 
d="M510 79h44q15 0 15 -15v-49q0 -15 -15 -15h-112q-12 0 -15 15l-9 56q-64 -83 -168 -83q-162 0 -162 170v255h-53q-15 0 -15 15v52q0 15 15 15h150q15 0 15 -15v-292q0 -60 15.5 -85.5t66 -25.5t83.5 30t33 68v238h-63q-15 0 -15 15v52q0 15 15 15h160q15 0 15 -15v-401z
M151 691.5q22 20.5 50 20.5t94 -20.5t89 -20.5q34 0 34 27q0 13 15 13h24q12 0 12 -14q0 -50 -21.5 -74.5t-54 -24.5t-98.5 19t-81 19q-30 0 -30 -22q0 -7 -2 -8.5t-10 -1.5h-31q-12 0 -12 14q0 53 22 73.5z" />
    <glyph glyph-name="Umacron" unicode="&#x16a;" horiz-adv-x="713" 
d="M205 598v-314q0 -50 5 -82.5t20 -63.5q29 -60 124.5 -60t132.5 52t37 151v317h-53q-15 0 -15 15v51q0 15 15 15h202q15 0 15 -15v-51q0 -15 -15 -15h-53v-338q0 -110 -52 -186q-28 -40 -81.5 -63t-129.5 -23q-148 0 -206 64.5t-58 196.5v349h-53q-15 0 -15 15v51
q0 15 15 15h218q15 0 15 -15v-51q0 -15 -15 -15h-53zM486 760h-260q-11 0 -15 4t-4 15v43q0 11 4 15t15 4h260q11 0 15 -4t4 -15v-43q0 -11 -4 -15t-15 -4z" />
    <glyph glyph-name="umacron" unicode="&#x16b;" horiz-adv-x="599" 
d="M510 79h44q15 0 15 -15v-49q0 -15 -15 -15h-112q-12 0 -15 15l-9 56q-64 -83 -168 -83q-162 0 -162 170v255h-53q-15 0 -15 15v52q0 15 15 15h150q15 0 15 -15v-292q0 -60 15.5 -85.5t66 -25.5t83.5 30t33 68v238h-63q-15 0 -15 15v52q0 15 15 15h160q15 0 15 -15v-401z
M429 612h-260q-11 0 -15 4t-4 15v43q0 11 4 15t15 4h260q11 0 15 -4t4 -15v-43q0 -11 -4 -15t-15 -4z" />
    <glyph glyph-name="Ubreve" unicode="&#x16c;" horiz-adv-x="713" 
d="M205 598v-314q0 -50 5 -82.5t20 -63.5q29 -60 124.5 -60t132.5 52t37 151v317h-53q-15 0 -15 15v51q0 15 15 15h202q15 0 15 -15v-51q0 -15 -15 -15h-53v-338q0 -110 -52 -186q-28 -40 -81.5 -63t-129.5 -23q-148 0 -206 64.5t-58 196.5v349h-53q-15 0 -15 15v51
q0 15 15 15h218q15 0 15 -15v-51q0 -15 -15 -15h-53zM291 853q11 -42 88.5 -42t90.5 42q4 12 9 15.5t17 3.5h31q18 0 18 -15q0 -57 -46 -89.5t-122 -32.5t-117.5 31t-43.5 87q0 11 4 15t15 4h32q12 0 16.5 -3.5t7.5 -15.5z" />
    <glyph glyph-name="ubreve" unicode="&#x16d;" horiz-adv-x="599" 
d="M510 79h44q15 0 15 -15v-49q0 -15 -15 -15h-112q-12 0 -15 15l-9 56q-64 -83 -168 -83q-162 0 -162 170v255h-53q-15 0 -15 15v52q0 15 15 15h150q15 0 15 -15v-292q0 -60 15.5 -85.5t66 -25.5t83.5 30t33 68v238h-63q-15 0 -15 15v52q0 15 15 15h160q15 0 15 -15v-401z
M300 660q77 0 92 47q4 12 9 15.5t17 3.5h27q18 0 18 -15q0 -59 -46.5 -95.5t-121.5 -36.5t-117 34.5t-44 93.5q0 11 4 15t15 4h28q12 0 16.5 -3.5t9.5 -15.5q10 -27 29.5 -37t63.5 -10z" />
    <glyph glyph-name="Uring" unicode="&#x16e;" horiz-adv-x="713" 
d="M205 598v-314q0 -50 5 -82.5t20 -63.5q29 -60 124.5 -60t132.5 52t37 151v317h-53q-15 0 -15 15v51q0 15 15 15h202q15 0 15 -15v-51q0 -15 -15 -15h-53v-338q0 -110 -52 -186q-28 -40 -81.5 -63t-129.5 -23q-148 0 -206 64.5t-58 196.5v349h-53q-15 0 -15 15v51
q0 15 15 15h218q15 0 15 -15v-51q0 -15 -15 -15h-53zM445 748q-28 -30 -73.5 -30t-71.5 29t-26 71.5t28.5 71.5t72.5 29t71 -28t27 -70.5t-28 -72.5zM374 867q-42 0 -42 -48q0 -21 11 -35t31 -14t31.5 14t11.5 35.5t-11.5 34.5t-31.5 13z" />
    <glyph glyph-name="uring" unicode="&#x16f;" horiz-adv-x="599" 
d="M510 79h44q15 0 15 -15v-49q0 -15 -15 -15h-112q-12 0 -15 15l-9 56q-64 -83 -168 -83q-162 0 -162 170v255h-53q-15 0 -15 15v52q0 15 15 15h150q15 0 15 -15v-292q0 -60 15.5 -85.5t66 -25.5t83.5 30t33 68v238h-63q-15 0 -15 15v52q0 15 15 15h160q15 0 15 -15v-401z
M364 595q-28 -30 -73.5 -30t-71.5 29t-26 71.5t28.5 71.5t72.5 29t71 -28t27 -70.5t-28 -72.5zM293 714q-42 0 -42 -48q0 -21 11 -35t31 -14t31.5 14t11.5 35.5t-11.5 34.5t-31.5 13z" />
    <glyph glyph-name="Uhungarumlaut" unicode="&#x170;" horiz-adv-x="713" 
d="M205 598v-314q0 -50 5 -82.5t20 -63.5q29 -60 124.5 -60t132.5 52t37 151v317h-53q-15 0 -15 15v51q0 15 15 15h202q15 0 15 -15v-51q0 -15 -15 -15h-53v-338q0 -110 -52 -186q-28 -40 -81.5 -63t-129.5 -23q-148 0 -206 64.5t-58 196.5v349h-53q-15 0 -15 15v51
q0 15 15 15h218q15 0 15 -15v-51q0 -15 -15 -15h-53zM402 746l45 98q6 14 21 14h68q9 0 9 -4t-3 -8l-70 -102q-8 -12 -23 -12h-38q-15 0 -9 14zM268 746l45 98q6 14 21 14h68q9 0 9 -4t-3 -8l-70 -102q-8 -12 -23 -12h-38q-11 0 -11 7q0 3 2 7z" />
    <glyph glyph-name="uhungarumlaut" unicode="&#x171;" horiz-adv-x="599" 
d="M510 79h44q15 0 15 -15v-49q0 -15 -15 -15h-112q-12 0 -15 15l-9 56q-64 -83 -168 -83q-162 0 -162 170v255h-53q-15 0 -15 15v52q0 15 15 15h150q15 0 15 -15v-292q0 -60 15.5 -85.5t66 -25.5t83.5 30t33 68v238h-63q-15 0 -15 15v52q0 15 15 15h160q15 0 15 -15v-401z
M323 594l45 124q4 14 20 14h68q10 0 10 -6q0 -3 -2 -7l-69 -126q-7 -13 -22 -13h-40q-14 0 -10 14zM185 594l45 124q4 14 20 14h68q10 0 10 -6q0 -3 -2 -7l-69 -126q-7 -13 -22 -13h-40q-11 0 -11 8q0 3 1 6z" />
    <glyph glyph-name="Uogonek" unicode="&#x172;" horiz-adv-x="713" 
d="M329 -147q0 66 78 138q-24 -3 -50 -3q-148 0 -206 64.5t-58 196.5v349h-53q-15 0 -15 15v51q0 15 15 15h218q15 0 15 -15v-51q0 -15 -15 -15h-53v-314q0 -50 5 -82.5t20 -63.5q29 -60 124.5 -60t132.5 52t37 151v317h-53q-15 0 -15 15v51q0 15 15 15h202q15 0 15 -15v-51
q0 -15 -15 -15h-53v-338q0 -164 -118 -249q-94 -68 -94 -139q0 -36 33 -36q18 0 35 8.5t23 -3.5l10 -20q8 -15 -7 -24q-44 -30 -86.5 -30t-64.5 24t-22 62z" />
    <glyph glyph-name="uogonek" unicode="&#x173;" horiz-adv-x="599" 
d="M383 -147q0 66 87 147h-28q-12 0 -15 15l-9 56q-64 -83 -168 -83q-162 0 -162 170v255h-53q-15 0 -15 15v52q0 15 15 15h150q15 0 15 -15v-292q0 -60 15.5 -85.5t66 -25.5t83.5 30t33 68v238h-63q-15 0 -15 15v52q0 15 15 15h160q15 0 15 -15v-401h44q15 0 15 -15v-49
q0 -15 -15 -15h-20q-72 -78 -72 -128q0 -36 33 -36q18 0 35 8.5t23 -3.5l10 -20q8 -15 -7 -24q-44 -30 -86.5 -30t-64.5 24t-22 62z" />
    <glyph glyph-name="Wcircumflex" unicode="&#x174;" horiz-adv-x="997" 
d="M216 15l-144 583h-52q-15 0 -15 15v51q0 15 15 15h250q15 0 15 -15v-51q0 -15 -15 -15h-71l107 -465l146 532q4 14 19 14h82q15 0 19 -14l145 -535l115 468h-66q-15 0 -15 15v51q0 15 15 15h211q15 0 15 -15v-51q0 -15 -15 -15h-53l-154 -583q-4 -15 -19 -15h-94
q-15 0 -19 14l-140 498l-134 -498q-4 -14 -19 -14h-110q-15 0 -19 15zM425 732h-55q-9 0 -9 4t3 8l82 107q9 12 24 12h76q15 0 24 -12l82 -107q3 -4 3 -8t-9 -4h-57q-16 0 -25 12l-58 71l-57 -71q-9 -12 -24 -12z" />
    <glyph glyph-name="wcircumflex" unicode="&#x175;" horiz-adv-x="781" 
d="M165 480l91 -357l99 358q4 14 19 14h80q15 0 19 -14l102 -360l89 292h-48q-15 0 -15 15v52q0 15 15 15h128q12 0 16.5 -6.5t4.5 -11.5t-1 -9l-138 -454q-4 -14 -19 -14h-90q-15 0 -19 15l-95 353l-99 -354q-4 -14 -19 -14h-90q-15 0 -19 14l-109 399h-52q-15 0 -15 15v52
q0 15 15 15h131q15 0 19 -15zM341 580h-59q-10 0 -10 4t3 9l84 135q9 13 23 13h76q14 0 23 -13l84 -135q3 -5 3 -9t-10 -4h-59q-15 0 -23 12l-58 85l-54 -84q-9 -13 -23 -13z" />
    <glyph glyph-name="Ycircumflex" unicode="&#x176;" horiz-adv-x="664" 
d="M279 257l-202 341h-52q-15 0 -15 15v51q0 15 15 15h254q15 0 15 -15v-51q0 -15 -15 -15h-71l144 -246l143 246h-67q-15 0 -15 15v51q0 15 15 15h211q15 0 15 -15v-51q0 -15 -15 -15h-53l-195 -328v-192h53q15 0 15 -15v-48q0 -15 -15 -15h-218q-15 0 -15 15v48
q0 15 15 15h53v179zM269 732h-55q-9 0 -9 4t3 8l82 107q9 12 24 12h76q15 0 24 -12l82 -107q3 -4 3 -8t-9 -4h-57q-16 0 -25 12l-58 71l-57 -71q-9 -12 -24 -12z" />
    <glyph glyph-name="ycircumflex" unicode="&#x177;" horiz-adv-x="519" 
d="M165 481l117 -364l104 296h-51q-15 0 -15 15v52q0 15 15 15h146q12 0 16 -7t4 -12.5t-2 -10.5l-214 -559q-15 -38 -25.5 -58.5t-29.5 -43.5q-37 -44 -109 -44t-118 22q-8 4 -8 10t1 9l17 49q4 13 19 9q48 -16 78.5 -16t47 15.5t34.5 64.5l25 66l-152 424h-50
q-15 0 -15 15v52q0 15 15 15h131q15 0 19 -14zM181 580h-59q-10 0 -10 4t3 9l84 135q9 13 23 13h76q14 0 23 -13l84 -135q3 -5 3 -9t-10 -4h-59q-15 0 -23 12l-58 85l-54 -84q-9 -13 -23 -13z" />
    <glyph glyph-name="Ydieresis" unicode="&#x178;" horiz-adv-x="664" 
d="M279 257l-202 341h-52q-15 0 -15 15v51q0 15 15 15h254q15 0 15 -15v-51q0 -15 -15 -15h-71l144 -246l143 246h-67q-15 0 -15 15v51q0 15 15 15h211q15 0 15 -15v-51q0 -15 -15 -15h-53l-195 -328v-192h53q15 0 15 -15v-48q0 -15 -15 -15h-218q-15 0 -15 15v48
q0 15 15 15h53v179zM491.5 754.5q-17.5 -16.5 -45 -16.5t-44.5 16.5t-17 45t17 44.5t45 16q62 0 62 -60q0 -29 -17.5 -45.5zM288.5 754.5q-17.5 -16.5 -45 -16.5t-44.5 16.5t-17 45t17 44.5t45 16q62 0 62 -60q0 -29 -17.5 -45.5z" />
    <glyph glyph-name="Zacute" unicode="&#x179;" horiz-adv-x="588" 
d="M63 679h472q15 0 15 -15v-48q0 -15 -9 -27l-376 -511h306l-6 71q-1 15 14 15h59q15 0 15 -15v-197q0 -15 -15 -15h-56q-15 0 -14 15l3 48h-425q-15 0 -15 15v48q0 15 9 27l372 511h-279l5 -80q1 -15 -14 -15h-61q-15 0 -15 15v143q0 15 15 15zM267 746l45 98q6 14 21 14
h78q9 0 9 -4t-3 -8l-70 -102q-7 -12 -23 -12h-48q-11 0 -11 7q0 3 2 7z" />
    <glyph glyph-name="zacute" unicode="&#x17a;" horiz-adv-x="452" 
d="M422 141l-1 -126q0 -15 -15 -15h-356q-15 0 -15 15v58q0 15 9 27l249 315h-166l2 -53q1 -15 -14 -15h-55q-15 0 -15 15v118q0 15 15 15h343q15 0 15 -15v-56q0 -15 -9 -27l-255 -319h185l-2 63q-1 15 14 15h56q15 0 15 -15zM208 580q-15 0 -15 9q0 3 2 9l42 116
q4 11 8.5 14.5t16.5 3.5h72q14 0 14 -5t-4 -12l-65 -118q-5 -10 -10.5 -13.5t-17.5 -3.5h-43z" />
    <glyph glyph-name="Zdotaccent" unicode="&#x17b;" horiz-adv-x="588" 
d="M63 679h472q15 0 15 -15v-48q0 -15 -9 -27l-376 -511h306l-6 71q-1 15 14 15h59q15 0 15 -15v-197q0 -15 -15 -15h-56q-15 0 -14 15l3 48h-425q-15 0 -15 15v48q0 15 9 27l372 511h-279l5 -80q1 -15 -14 -15h-61q-15 0 -15 15v143q0 15 15 15zM219 801q0 31 19.5 51.5
t52 20.5t52 -20.5t19.5 -51.5t-20 -51t-52.5 -20t-51.5 20t-19 51z" />
    <glyph glyph-name="zdotaccent" unicode="&#x17c;" horiz-adv-x="452" 
d="M422 141l-1 -126q0 -15 -15 -15h-356q-15 0 -15 15v58q0 15 9 27l249 315h-166l2 -53q1 -15 -14 -15h-55q-15 0 -15 15v118q0 15 15 15h343q15 0 15 -15v-56q0 -15 -9 -27l-255 -319h185l-2 63q-1 15 14 15h56q15 0 15 -15zM151 635q0 31 19.5 51.5t52 20.5t52 -20.5
t19.5 -51.5t-20 -51t-52.5 -20t-51.5 20t-19 51z" />
    <glyph glyph-name="Zcaron" unicode="&#x17d;" horiz-adv-x="588" 
d="M63 679h472q15 0 15 -15v-48q0 -15 -9 -27l-376 -511h306l-6 71q-1 15 14 15h59q15 0 15 -15v-197q0 -15 -15 -15h-56q-15 0 -14 15l3 48h-425q-15 0 -15 15v48q0 15 9 27l372 511h-279l5 -80q1 -15 -14 -15h-61q-15 0 -15 15v143q0 15 15 15zM377 863h55q9 0 9 -3.5
t-3 -8.5l-82 -107q-9 -12 -24 -12h-76q-15 0 -24 12l-82 107q-3 5 -3 8.5t9 3.5h57q16 0 25 -12l58 -71l57 71q9 12 24 12z" />
    <glyph glyph-name="zcaron" unicode="&#x17e;" horiz-adv-x="452" 
d="M422 141l-1 -126q0 -15 -15 -15h-356q-15 0 -15 15v58q0 15 9 27l249 315h-166l2 -53q1 -15 -14 -15h-55q-15 0 -15 15v118q0 15 15 15h343q15 0 15 -15v-56q0 -15 -9 -27l-255 -319h185l-2 63q-1 15 14 15h56q15 0 15 -15zM311 741h59q10 0 10 -4t-3 -9l-84 -135
q-9 -13 -23 -13h-76q-14 0 -23 13l-84 135q-3 5 -3 9t10 4h59q15 0 23 -12l58 -85l54 84q9 13 23 13z" />
    <glyph glyph-name="longs" unicode="&#x17f;" horiz-adv-x="358" 
d="M209 568v-489h106q15 0 15 -15v-49q0 -15 -15 -15h-280q-15 0 -15 15v49q0 15 15 15h62v513q0 120 75 153q31 14 85 14t110 -25q9 -4 9 -10t-1 -9l-15 -50q-5 -12 -17 -7q-40 18 -76 18t-47 -23.5t-11 -84.5z" />
    <glyph glyph-name="florin" unicode="&#x192;" 
d="M111 269h58l17 95q7 38 15.5 62t26.5 51q36 54 137 54q59 0 105 -22q11 -5 11 -12t-3 -13l-19 -38q-5 -11 -10 -12.5t-25.5 7t-54 8.5t-49 -23.5t-26.5 -84.5l-13 -72h117q11 0 14.5 -4t1.5 -15l-7 -43q-1 -11 -6 -15t-16 -3h-117l-49 -264q-7 -37 -15.5 -61t-27.5 -50
q-36 -53 -135 -53q-59 0 -105 22q-11 5 -11 12t3 13l18 39q5 11 10 12.5t16 -2.5q28 -13 63 -13t50 23t26 83l44 241h-57q-11 -1 -14.5 3t-1.5 15l7 41q1 12 5.5 15.5t16.5 3.5z" />
    <glyph glyph-name="Aringacute" unicode="&#x1fa;" horiz-adv-x="696" 
d="M214 214l-46 -135h60q15 0 15 -15v-49q0 -15 -15 -15h-213q-15 0 -15 15v49q0 15 15 15h59l200 586q-32 34 -32 79t28.5 74t72.5 29t71 -28t27 -70t-30 -84l202 -586h68q15 0 15 -15v-49q0 -15 -15 -15h-251q-15 0 -15 15v49q0 15 15 15h62l-47 135h-231zM329 583
l-95 -294h189zM292 878l45 98q6 14 21 14h78q9 0 9 -4t-3 -8l-70 -102q-8 -12 -23 -12h-48q-11 0 -11 7q0 3 2 7zM342 795q-42 0 -42 -48q0 -21 11 -35t31 -14t31.5 14t11.5 35.5t-11.5 34.5t-31.5 13z" />
    <glyph glyph-name="aringacute" unicode="&#x1fb;" horiz-adv-x="524" 
d="M328 297v35q0 71 -40 89q-19 8 -55 8q-68 0 -82 -64q-3 -15 -15 -15h-64q-16 0 -14 15q4 73 59 107t140 34q179 0 179 -164v-263h43q15 0 15 -15v-49q0 -15 -15 -15h-118q-13 0 -15 15l-7 46q-54 -73 -156 -73q-64 0 -106 33.5t-42 107.5q0 97 81 133q67 31 160 34
q19 0 52 1zM330 151v77q-96 0 -118 -9t-39 -18q-32 -17 -32 -62q0 -69 79 -69q52 0 81 24.5t29 56.5zM329 564q-28 -30 -73.5 -30t-71.5 29t-26 71.5t28.5 71.5t72.5 29t71 -28t27 -70.5t-28 -72.5zM258 683q-42 0 -42 -48q0 -21 11 -35t31 -14t31.5 14t11.5 35.5
t-11.5 34.5t-31.5 13zM217 772l45 98q6 14 21 14h78q9 0 9 -4t-3 -8l-70 -102q-7 -12 -23 -12h-48q-11 0 -11 7q0 3 2 7z" />
    <glyph glyph-name="AEacute" unicode="&#x1fc;" horiz-adv-x="879" 
d="M437 214h-198l-71 -135h52q11 1 15 -3t4 -15v-42q0 -11 -4 -15t-15 -4h-201q-11 0 -15 4t-4 15v42q0 11 4 15t15 3h48l277 520h-48q-11 -1 -15 3t-4 15v43q0 11 4 15t15 4h524q11 0 15 -4t4 -15v-126q0 -11 -4 -15t-15 -4h-48q-11 0 -15 4t-3 15l4 65h-209v-213h149
l-4 47q-1 11 3 15t15 4h48q11 0 15 -4t4 -15v-169q0 -11 -4 -15t-15 -4h-48q-11 0 -15 4t-3 15l3 44h-148v-229h229l-4 66q-1 11 3 15t15 4h48q11 0 15 -4t4 -15v-126q0 -11 -4 -15t-15 -4h-452q-11 0 -15 4t-4 15v42q0 11 4 15t15 3h49v135zM437 289v310l-164 -310h164z
M512 746l45 98q6 14 21 14h78q9 0 9 -4t-3 -8l-70 -102q-8 -12 -23 -12h-48q-11 0 -11 7q0 3 2 7z" />
    <glyph glyph-name="aeacute" unicode="&#x1fd;" horiz-adv-x="778" 
d="M716 22q-72 -34 -160 -34q-115 0 -172 63q-88 -63 -190 -63q-72 0 -115.5 35t-43.5 113q0 63 37 107q26 30 93 49q45 14 87.5 15t75.5 2v27q0 49 -20 71t-65 22q-81 0 -92 -60q-2 -12 -6.5 -15.5t-16.5 -3.5h-52q-11 0 -14.5 4t-2.5 15q13 137 193 137q112 0 145 -70
q56 70 160 70q105 0 151 -68q40 -60 40 -153q0 -41 -4.5 -45.5t-16.5 -4.5h-292q0 -163 144 -163q51 0 108 25q11 4 15 2.5t9 -12.5l15 -39q4 -11 2.5 -16t-12.5 -10zM141 145q0 -75 87 -75q35 0 70 13.5t53 29.5q-27 47 -27 122q-27 -1 -42 -1.5t-40 -3.5t-40 -9t-30 -15
q-31 -19 -31 -61zM594 412q-19 10 -49 10t-53 -12t-34 -31q-21 -34 -23 -70h203q0 82 -44 103zM373 580q-15 0 -15 9q0 3 2 9l42 116q4 11 8.5 14.5t16.5 3.5h72q14 0 14 -5t-4 -12l-65 -118q-5 -10 -10.5 -13.5t-17.5 -3.5h-43z" />
    <glyph glyph-name="Oslashacute" unicode="&#x1fe;" horiz-adv-x="692" 
d="M43 333q0 100 30 174.5t79 113.5q93 75 202 75q41 0 80 -8l21 55q4 11 8.5 14.5t16.5 3.5h31q11 0 14 -3.5t-1 -14.5l-28 -76q153 -73 153 -306q0 -180 -88.5 -276.5t-227.5 -96.5q-47 0 -84 10l-24 -65q-4 -11 -8.5 -14.5t-16.5 -3.5h-30q-11 0 -14 3.5t1 14.5l32 86
q-146 76 -146 314zM345 82q179 0 179 260q0 156 -66 222l-174 -472q28 -10 61 -10zM163 368q0 -174 65 -241l174 472q-27 9 -60 9q-64 0 -105.5 -34.5t-57.5 -86t-16 -119.5zM301 746l45 98q6 14 21 14h78q9 0 9 -4t-3 -8l-70 -102q-7 -12 -23 -12h-48q-11 0 -11 7q0 3 2 7z
" />
    <glyph glyph-name="oslashacute" unicode="&#x1ff;" horiz-adv-x="532" 
d="M35 240q0 75 23 130t60.5 83t75.5 40.5t78 12.5t69 -7l32 74q4 11 8.5 14.5t16.5 3.5h24q11 0 14 -3.5t-1 -14.5l-41 -95q103 -56 103 -217q0 -134 -67.5 -203.5t-173.5 -69.5q-39 0 -72 9l-34 -80q-4 -11 -8.5 -14.5t-16.5 -3.5h-23q-11 0 -14 3.5t1 14.5l44 102
q-98 60 -98 221zM265 70q60 0 87.5 44.5t27.5 133t-29 133.5l-131 -302q20 -9 45 -9zM148 262q0 -97 28 -143l129 298q-21 7 -42 7q-115 0 -115 -162zM236 580q-15 0 -15 9q0 3 2 9l42 116q4 11 8.5 14.5t16.5 3.5h72q14 0 14 -5t-4 -12l-65 -118q-5 -10 -10.5 -13.5
t-17.5 -3.5h-43z" />
    <glyph glyph-name="Scommaaccent" unicode="&#x218;" horiz-adv-x="517" 
d="M283 696q74 0 148 -22q14 -4 14 -18v-138q0 -15 -15 -15h-56q-15 0 -14 15l3 67q-40 24 -89 24t-78.5 -23.5t-29.5 -65.5t27 -68.5t77 -45.5t67 -26t49.5 -26t48 -37.5t29 -49.5t13.5 -69q0 -99 -62.5 -154.5t-177.5 -55.5q-85 0 -168 26q-14 4 -14 18v159q0 15 15 15h56
q15 0 14 -15l-4 -83q13 -12 43.5 -22.5t62.5 -10.5q124 0 124 101q0 49 -33 77.5t-85.5 46t-79.5 31t-55 35.5q-56 42 -56 129t60 144t166 57zM277 -212l-38 -58q-5 -7 -9.5 -7t-7.5 1l-12 5q-11 4 -6 16l22 72q-9 9 -13.5 17t-8.5 15q-8 14 -8 34t14.5 33.5t42.5 13.5
q60 0 60 -53q0 -31 -36 -89z" />
    <glyph glyph-name="scommaaccent" unicode="&#x219;" horiz-adv-x="431" 
d="M92 462q51 44 129 44t135 -18q14 -4 14 -18v-106q0 -15 -15 -15h-58q-16 0 -13 15l5 51q-30 16 -66 16q-80 0 -80 -56q0 -47 65 -65q71 -20 122 -45q29 -14 47.5 -43.5t18.5 -72.5q0 -76 -53 -118.5t-149 -42.5q-67 0 -141 20q-13 4 -13 19v106q0 15 15 15h58
q15 0 14 -15l-3 -52q27 -20 77 -20q89 0 89 63q0 32 -25.5 50.5t-62 28.5t-73.5 22.5t-62.5 44t-25.5 82.5q0 66 51 110zM233 -212l-38 -58q-5 -7 -9.5 -7t-7.5 1l-12 5q-11 4 -6 16l22 72q-9 9 -13.5 17t-8.5 15q-8 14 -8 34t14.5 33.5t42.5 13.5q60 0 60 -53
q0 -31 -36 -89z" />
    <glyph glyph-name="uni021A" unicode="&#x21a;" horiz-adv-x="593" 
d="M436 0h-278q-15 0 -15 15v49q0 15 15 15h82v520h-135l5 -78q1 -15 -14 -15h-61q-15 0 -15 15v143q0 15 15 15h523q15 0 15 -15v-143q0 -15 -15 -15h-61q-15 0 -14 15l5 78h-135v-520h83q15 0 15 -15v-49q0 -15 -15 -15zM321 -212l-38 -58q-5 -7 -9.5 -7t-7.5 1l-12 5
q-11 4 -6 16l22 72q-9 9 -13.5 17t-8.5 15q-8 14 -8 34t14.5 33.5t42.5 13.5q60 0 60 -53q0 -31 -36 -89z" />
    <glyph glyph-name="uni021B" unicode="&#x21b;" horiz-adv-x="369" 
d="M199 413v-252q0 -47 12 -68t45 -21t64 14q11 4 16 -8l18 -46q1 -3 1 -8.5t-10 -11.5q-48 -24 -114 -24q-89 0 -117 46q-20 30 -23 58q-4 38 -4 80v241h-57q-15 0 -15 15v52q0 15 15 15h57v135q0 15 15 15h82q15 0 15 -15v-135h101q15 0 15 -15v-52q0 -15 -15 -15h-101z
M209 -212l-38 -58q-5 -7 -9.5 -7t-7.5 1l-12 5q-11 4 -6 16l22 72q-9 9 -13.5 17t-8.5 15q-8 14 -8 34t14.5 33.5t42.5 13.5q60 0 60 -53q0 -31 -36 -89z" />
    <glyph glyph-name="dotlessj" unicode="&#x237;" horiz-adv-x="289" 
d="M206 480v-521q0 -199 -177 -199q-76 0 -120 21q-9 5 -9 10.5t1 9.5l20 55q5 13 19 8q33 -12 70 -12q84 0 84 117v444h-54q-15 0 -15 15v52q0 15 15 15h151q15 0 15 -15z" />
    <glyph glyph-name="apostrophe" unicode="&#x2bc;" 
d="M203 513q-14 6 -14 11.5t3 12.5l29 90q-31 41 -31 67.5t16.5 42.5t43.5 16t45 -16t18 -37.5t-6 -39.5q-8 -25 -33 -65l-44 -74q-6 -10 -13.5 -10t-12.5 2h-1z" />
    <glyph glyph-name="circumflex" unicode="&#x2c6;" 
d="M173 580h-59q-10 0 -10 4t3 9l84 135q9 13 23 13h76q14 0 23 -13l84 -135q3 -5 3 -9t-10 -4h-59q-15 0 -23 12l-58 85l-54 -84q-9 -13 -23 -13z" />
    <glyph glyph-name="caron" unicode="&#x2c7;" 
d="M331 741h59q10 0 10 -4t-3 -9l-84 -135q-9 -13 -23 -13h-76q-14 0 -23 13l-84 135q-3 5 -3 9t10 4h59q15 0 23 -12l58 -85l54 84q9 13 23 13z" />
    <glyph glyph-name="uni02C9" unicode="&#x2c9;" 
d="M380 612h-260q-11 0 -15 4t-4 15v43q0 11 4 15t15 4h260q11 0 15 -4t4 -15v-43q0 -11 -4 -15t-15 -4z" />
    <glyph glyph-name="breve" unicode="&#x2d8;" 
d="M251 660q77 0 92 47q4 12 9 15.5t17 3.5h27q18 0 18 -15q0 -59 -46.5 -95.5t-121.5 -36.5t-117 34.5t-44 93.5q0 11 4 15t15 4h28q12 0 16.5 -3.5t9.5 -15.5q10 -27 29.5 -37t63.5 -10z" />
    <glyph glyph-name="dotaccent" unicode="&#x2d9;" 
d="M175 635q0 31 19.5 51.5t52 20.5t52 -20.5t19.5 -51.5t-20 -51t-52.5 -20t-51.5 20t-19 51z" />
    <glyph glyph-name="ring" unicode="&#x2da;" 
d="M321 595q-28 -30 -73.5 -30t-71.5 29t-26 71.5t28.5 71.5t72.5 29t71 -28t27 -70.5t-28 -72.5zM250 714q-42 0 -42 -48q0 -21 11 -35t31 -14t31.5 14t11.5 35.5t-11.5 34.5t-31.5 13z" />
    <glyph glyph-name="ogonek" unicode="&#x2db;" 
d="M142 -147q0 67 93 152l62 -1q-76 -80 -76 -132q0 -36 33 -36q18 0 35 8.5t23 -3.5l10 -20q3 -5 3 -11.5t-10 -12.5q-44 -30 -86.5 -30t-64.5 24t-22 62z" />
    <glyph glyph-name="tilde" unicode="&#x2dc;" 
d="M102 691.5q22 20.5 50 20.5t94 -20.5t89 -20.5q34 0 34 27q0 13 15 13h24q12 0 12 -14q0 -50 -21.5 -74.5t-54 -24.5t-98.5 19t-81 19q-30 0 -30 -22q0 -7 -2 -8.5t-10 -1.5h-31q-12 0 -12 14q0 53 22 73.5z" />
    <glyph glyph-name="hungarumlaut" unicode="&#x2dd;" 
d="M224 594l45 124q4 14 20 14h68q10 0 10 -6q0 -3 -2 -7l-69 -126q-7 -13 -22 -13h-40q-14 0 -10 14zM86 594l45 124q4 14 20 14h68q10 0 10 -6q0 -3 -2 -7l-69 -126q-7 -13 -22 -13h-40q-11 0 -11 8q0 3 1 6z" />
    <glyph glyph-name="uni0394" unicode="&#x394;" horiz-adv-x="713" 
d="M668 15q0 -15 -15 -15h-602q-14 0 -14 10q0 4 1 8l243 647q6 14 20 14h103q14 0 20 -14l242 -642q2 -4 2 -8zM349 583l-181 -504h364z" />
    <glyph glyph-name="uni03A9" unicode="&#x3a9;" horiz-adv-x="782" 
d="M344 79q15 -6 15 -20v-44q0 -15 -15 -15h-257q-15 0 -15 15v49q0 15 15 15h131q-60 40 -96 113t-36 158q0 162 86.5 254.5t222.5 92.5t217 -89t81 -245q0 -88 -36 -163.5t-97 -120.5h146q15 0 15 -15v-49q0 -15 -15 -15h-257q-15 0 -15 15v44q0 11 13 19q62 39 96 102
t34 172q0 256 -187 256q-89 0 -138.5 -63.5t-49.5 -197.5q0 -99 40.5 -171.5t101.5 -96.5z" />
    <glyph glyph-name="uni03BC" unicode="&#x3bc;" horiz-adv-x="599" 
d="M510 79h44q15 0 15 -15v-49q0 -15 -15 -15h-112q-12 0 -15 15l-9 56q-58 -78 -154 -78q-41 0 -71 10v-190q0 -15 -15 -15h-75q-15 0 -15 15v667q0 15 15 15h82q15 0 15 -15v-294q0 -60 15.5 -85.5t66 -25.5t83.5 31t33 69v305q0 15 15 15h82q15 0 15 -15v-401z" />
    <glyph glyph-name="pi" unicode="&#x3c0;" horiz-adv-x="640" 
d="M58 495h523q15 0 15 -15v-52q0 -15 -15 -15h-58v-398q0 -15 -15 -15h-82q-15 0 -15 15v398h-176v-398q0 -15 -15 -15h-82q-15 0 -15 15v398h-65q-15 0 -15 15v52q0 15 15 15z" />
    <glyph glyph-name="Wgrave" unicode="&#x1e80;" horiz-adv-x="997" 
d="M216 15l-144 583h-52q-15 0 -15 15v51q0 15 15 15h250q15 0 15 -15v-51q0 -15 -15 -15h-71l107 -465l146 532q4 14 19 14h82q15 0 19 -14l145 -535l115 468h-66q-15 0 -15 15v51q0 15 15 15h211q15 0 15 -15v-51q0 -15 -15 -15h-53l-154 -583q-4 -15 -19 -15h-94
q-15 0 -19 14l-140 498l-134 -498q-4 -14 -19 -14h-110q-15 0 -19 15zM513 841l41 -92q2 -5 2 -9q0 -8 -13 -8h-40q-19 0 -30 15l-65 96q-4 5 -4 10t12 5h70q12 0 17 -3t10 -14z" />
    <glyph glyph-name="wgrave" unicode="&#x1e81;" horiz-adv-x="781" 
d="M165 480l91 -357l99 358q4 14 19 14h80q15 0 19 -14l102 -360l89 292h-48q-15 0 -15 15v52q0 15 15 15h128q12 0 16.5 -6.5t4.5 -11.5t-1 -9l-138 -454q-4 -14 -19 -14h-90q-15 0 -19 15l-95 353l-99 -354q-4 -14 -19 -14h-90q-15 0 -19 14l-109 399h-52q-15 0 -15 15v52
q0 15 15 15h131q15 0 19 -15zM314 715q-4 7 -4 12t14 5h72q12 0 16.5 -3.5t8.5 -14.5l43 -116q2 -6 2 -9q0 -9 -15 -9h-44q-20 0 -28 17z" />
    <glyph glyph-name="Wacute" unicode="&#x1e82;" horiz-adv-x="997" 
d="M216 15l-144 583h-52q-15 0 -15 15v51q0 15 15 15h250q15 0 15 -15v-51q0 -15 -15 -15h-71l107 -465l146 532q4 14 19 14h82q15 0 19 -14l145 -535l115 468h-66q-15 0 -15 15v51q0 15 15 15h211q15 0 15 -15v-51q0 -15 -15 -15h-53l-154 -583q-4 -15 -19 -15h-94
q-15 0 -19 14l-140 498l-134 -498q-4 -14 -19 -14h-110q-15 0 -19 15zM477 746l45 98q6 14 21 14h78q9 0 9 -4t-3 -8l-70 -102q-7 -12 -23 -12h-48q-11 0 -11 7q0 3 2 7z" />
    <glyph glyph-name="wacute" unicode="&#x1e83;" horiz-adv-x="781" 
d="M165 480l91 -357l99 358q4 14 19 14h80q15 0 19 -14l102 -360l89 292h-48q-15 0 -15 15v52q0 15 15 15h128q12 0 16.5 -6.5t4.5 -11.5t-1 -9l-138 -454q-4 -14 -19 -14h-90q-15 0 -19 15l-95 353l-99 -354q-4 -14 -19 -14h-90q-15 0 -19 14l-109 399h-52q-15 0 -15 15v52
q0 15 15 15h131q15 0 19 -15zM395 580q-15 0 -15 9q0 3 2 9l42 116q4 11 8.5 14.5t16.5 3.5h72q14 0 14 -5t-4 -12l-65 -118q-5 -10 -10.5 -13.5t-17.5 -3.5h-43z" />
    <glyph glyph-name="Wdieresis" unicode="&#x1e84;" horiz-adv-x="997" 
d="M216 15l-144 583h-52q-15 0 -15 15v51q0 15 15 15h250q15 0 15 -15v-51q0 -15 -15 -15h-71l107 -465l146 532q4 14 19 14h82q15 0 19 -14l145 -535l115 468h-66q-15 0 -15 15v51q0 15 15 15h211q15 0 15 -15v-51q0 -15 -15 -15h-53l-154 -583q-4 -15 -19 -15h-94
q-15 0 -19 14l-140 498l-134 -498q-4 -14 -19 -14h-110q-15 0 -19 15zM653.5 754.5q-17.5 -16.5 -45 -16.5t-44.5 16.5t-17 45t17 44.5t45 16q62 0 62 -60q0 -29 -17.5 -45.5zM450.5 754.5q-17.5 -16.5 -45 -16.5t-44.5 16.5t-17 45t17 44.5t45 16q62 0 62 -60
q0 -29 -17.5 -45.5z" />
    <glyph glyph-name="wdieresis" unicode="&#x1e85;" horiz-adv-x="781" 
d="M165 480l91 -357l99 358q4 14 19 14h80q15 0 19 -14l102 -360l89 292h-48q-15 0 -15 15v52q0 15 15 15h128q12 0 16.5 -6.5t4.5 -11.5t-1 -9l-138 -454q-4 -14 -19 -14h-90q-15 0 -19 15l-95 353l-99 -354q-4 -14 -19 -14h-90q-15 0 -19 14l-109 399h-52q-15 0 -15 15v52
q0 15 15 15h131q15 0 19 -15zM565.5 611.5q-17.5 -16.5 -45 -16.5t-44.5 16.5t-17 45t17 44.5t45 16q62 0 62 -60q0 -29 -17.5 -45.5zM362.5 611.5q-17.5 -16.5 -45 -16.5t-44.5 16.5t-17 45t17 44.5t45 16q62 0 62 -60q0 -29 -17.5 -45.5z" />
    <glyph glyph-name="Ygrave" unicode="&#x1ef2;" horiz-adv-x="664" 
d="M279 257l-202 341h-52q-15 0 -15 15v51q0 15 15 15h254q15 0 15 -15v-51q0 -15 -15 -15h-71l144 -246l143 246h-67q-15 0 -15 15v51q0 15 15 15h211q15 0 15 -15v-51q0 -15 -15 -15h-53l-195 -328v-192h53q15 0 15 -15v-48q0 -15 -15 -15h-218q-15 0 -15 15v48
q0 15 15 15h53v179zM340 841l41 -92q2 -5 2 -9q0 -8 -13 -8h-40q-19 0 -30 15l-65 96q-4 5 -4 10t12 5h70q19 0 27 -17z" />
    <glyph glyph-name="ygrave" unicode="&#x1ef3;" horiz-adv-x="519" 
d="M165 481l117 -364l104 296h-51q-15 0 -15 15v52q0 15 15 15h146q12 0 16 -7t4 -12.5t-2 -10.5l-214 -559q-15 -38 -25.5 -58.5t-29.5 -43.5q-37 -44 -109 -44t-118 22q-8 4 -8 10t1 9l17 49q4 13 19 9q48 -16 78.5 -16t47 15.5t34.5 64.5l25 66l-152 424h-50
q-15 0 -15 15v52q0 15 15 15h131q15 0 19 -14zM166 715q-4 7 -4 12t14 5h72q12 0 16.5 -3.5t8.5 -14.5l43 -116q2 -6 2 -9q0 -9 -15 -9h-44q-20 0 -28 17z" />
    <glyph glyph-name="thinspace" unicode="&#x2009;" horiz-adv-x="50" 
 />
    <glyph glyph-name="endash" unicode="&#x2013;" 
d="M481 248h-462q-11 0 -15 4t-4 15v39q0 11 4 15t15 4h462q11 0 15 -4t4 -15v-39q0 -11 -4 -15t-15 -4z" />
    <glyph glyph-name="emdash" unicode="&#x2014;" horiz-adv-x="999" 
d="M980 248h-961q-11 0 -15 4t-4 15v39q0 11 4 15t15 4h961q11 0 15 -4t4 -15v-39q0 -11 -4 -15t-15 -4z" />
    <glyph glyph-name="quoteleft" unicode="&#x2018;" horiz-adv-x="254" 
d="M176 746q14 -6 14 -11.5t-3 -12.5l-29 -90q31 -41 31 -67.5t-16.5 -42.5t-43.5 -16t-45 16t-18 37.5t6 40.5q8 24 33 64l44 74q6 10 13.5 10t12.5 -2h1z" />
    <glyph glyph-name="quoteright" unicode="&#x2019;" horiz-adv-x="254" 
d="M86 513q-14 6 -14 11.5t3 12.5l29 90q-31 41 -31 67.5t16.5 42.5t43.5 16t45 -16t18 -37.5t-6 -39.5q-8 -25 -33 -65l-44 -74q-6 -10 -13.5 -10t-12.5 2h-1z" />
    <glyph glyph-name="quotesinglbase" unicode="&#x201a;" horiz-adv-x="254" 
d="M86 -148q-14 6 -14 11.5t3 12.5l29 90q-31 41 -31 67.5t16.5 42.5t43.5 16t45 -16t18 -37.5t-6 -40.5q-8 -24 -33 -64l-44 -74q-6 -10 -13.5 -10t-12.5 2h-1z" />
    <glyph glyph-name="quotedblleft" unicode="&#x201c;" horiz-adv-x="404" 
d="M105 664l44 74q6 10 13.5 10t12.5 -2h1q11 -5 13 -9t-2 -15l-29 -90q31 -41 31 -67.5t-16.5 -42.5t-43.5 -16t-45 16t-18 37.5t6 40.5q8 24 33 64zM326 746q14 -6 14 -11.5t-3 -12.5l-29 -90q31 -41 31 -67.5t-16.5 -42.5t-43.5 -16t-45 16t-18 37.5t6 40.5q8 24 33 64
l44 74q6 10 13.5 10t12.5 -2h1z" />
    <glyph glyph-name="quotedblright" unicode="&#x201d;" horiz-adv-x="404" 
d="M86 513q-14 6 -14 11.5t3 12.5l29 90q-31 41 -31 67.5t16.5 42.5t43.5 16t45 -16t18 -37.5t-6 -39.5q-8 -25 -33 -65l-44 -74q-6 -10 -13.5 -10t-12.5 2h-1zM236 513q-14 6 -14 11.5t3 12.5l29 90q-31 41 -31 67.5t16.5 42.5t43.5 16t45 -16t18 -37.5t-6 -39.5
q-8 -25 -33 -65l-44 -74q-6 -10 -13.5 -10t-12.5 2h-1z" />
    <glyph glyph-name="quotedblbase" unicode="&#x201e;" horiz-adv-x="394" 
d="M86 -148q-14 6 -14 11.5t3 12.5l29 90q-31 41 -31 67.5t16.5 42.5t43.5 16t45 -16t18 -37.5t-6 -40.5q-8 -24 -33 -64l-44 -74q-6 -10 -13.5 -10t-12.5 2h-1zM236 -148q-14 6 -14 11.5t3 12.5l29 90q-31 41 -31 67.5t16.5 42.5t43.5 16t45 -16t18 -37.5t-6 -40.5
q-8 -24 -33 -64l-44 -74q-6 -10 -13.5 -10t-12.5 2h-1z" />
    <glyph glyph-name="dagger" unicode="&#x2020;" horiz-adv-x="491" 
d="M212 -53l-19 464l-122 16q-11 2 -15 6t-4 15v17q0 11 4 15t15 6l123 15l23 159q1 12 5.5 15.5t16.5 3.5h16q11 0 15 -4t6 -15l21 -158l123 -16q11 -2 15 -6t4 -15v-17q0 -11 -4 -15t-15 -6l-124 -16l-17 -464q-1 -11 -5 -15t-15 -4h-27q-11 0 -15 4t-5 15z" />
    <glyph glyph-name="daggerdbl" unicode="&#x2021;" horiz-adv-x="491" 
d="M209 303l-16 108l-122 16q-11 2 -15 6t-4 15v17q0 11 4 15t15 6l123 15l23 159q1 12 5.5 15.5t16.5 3.5h16q11 0 15 -4t6 -15l21 -158l123 -16q11 -2 15 -6t4 -15v-17q0 -11 -4 -15t-15 -6l-124 -16l-14 -108l14 -107l124 -16q11 -2 15 -6t4 -15v-17q0 -11 -4 -15t-15 -6
l-123 -16l-21 -158q-2 -11 -6 -15t-15 -4h-16q-12 0 -16.5 3.5t-5.5 15.5l-23 159l-123 15q-11 2 -15 6t-4 15v17q0 11 4 15t15 6l122 16z" />
    <glyph glyph-name="bullet" unicode="&#x2022;" horiz-adv-x="361" 
d="M254.5 275q-26.5 -27 -74 -27t-74 26.5t-26.5 66t27.5 67t72.5 27.5t73 -26t28 -66.5t-26.5 -67.5z" />
    <glyph glyph-name="ellipsis" unicode="&#x2026;" horiz-adv-x="773" 
d="M126 -19q-35 0 -55 19.5t-20 49t21 49.5t54 20t54 -19t21 -49t-20 -50t-55 -20zM373 -19q-35 0 -55 19.5t-20 49t21 49.5t54 20t54 -19t21 -49t-20 -50t-55 -20zM628 -19q-35 0 -55 19.5t-20 49t21 49.5t54 20t54 -19t21 -49t-20 -50t-55 -20z" />
    <glyph glyph-name="perthousand" unicode="&#x2030;" horiz-adv-x="1068" 
d="M777 28.5q-41 45.5 -41 124t44 121.5t106.5 43t102 -41.5t39.5 -121.5t-41 -125.5t-105 -45.5t-105 45.5zM834 229.5q-15 -26.5 -15 -80.5t15 -79t48.5 -25t48 25t14.5 80.5t-13.5 80.5t-48 25t-49.5 -26.5zM446 28.5q-41 45.5 -41 124t44 121.5t106.5 43t102 -41.5
t39.5 -121.5t-41 -125.5t-105 -45.5t-105 45.5zM503 229.5q-15 -26.5 -15 -80.5t15 -79t48.5 -25t48 25t14.5 80.5t-13.5 80.5t-48 25t-49.5 -26.5zM79.5 368q-39.5 45 -39.5 124t44 122t106.5 43t102 -41.5t39.5 -121.5t-41 -125.5t-106.5 -45.5t-105 45zM138 569.5
q-15 -26.5 -15 -80.5t15 -79t48.5 -25t48 25t14.5 80.5t-13.5 80.5t-48 25t-49.5 -26.5zM558 638l-308 -638q-8 -17 -27 -17h-39q-13 0 -13 8q0 4 2 9l307 638q8 17 27 17h40q13 0 13 -8q0 -4 -2 -9z" />
    <glyph glyph-name="guilsinglleft" unicode="&#x2039;" horiz-adv-x="327" 
d="M190 492h58q13 0 13 -8q0 -4 -2 -9l-95 -187l92 -187q8 -17 -11 -17h-60q-20 0 -27 17l-85 169q-3 8 -3 16.5t4 17.5l88 171q8 17 28 17z" />
    <glyph glyph-name="guilsinglright" unicode="&#x203a;" horiz-adv-x="327" 
d="M79 84q-14 0 -14 5t4 12l95 188l-93 186q-8 17 11 17h60q20 0 27 -17l85 -169q3 -8 3 -16.5t-4 -17.5l-88 -171q-5 -10 -10.5 -13.5t-17.5 -3.5h-58z" />
    <glyph glyph-name="fraction" unicode="&#x2044;" horiz-adv-x="123" 
d="M265 662l-320 -662q-5 -11 -10 -14t-17 -3h-39q-13 0 -13 8q0 4 2 9l319 662q5 11 10 14t17 3h40q13 0 13 -8q0 -4 -2 -9z" />
    <glyph glyph-name="foursuperior" unicode="&#x2074;" horiz-adv-x="349" 
d="M254 388h-50q-15 0 -15 15v58h-146q-11 0 -15 4t-4 15v19q0 17 11 34l137 201q11 15 30 15h48q11 0 15 -4t4 -15v-211h44q11 0 15 -4t4 -15v-20q0 -11 -4 -15t-15 -4h-44v-58q0 -15 -15 -15zM189 669l-102 -150h102v150z" />
    <glyph glyph-name="Euro" unicode="&#x20ac;" horiz-adv-x="527" 
d="M31 293l2 15q1 12 5.5 15.5t16.5 3.5h37q12 72 51.5 120t85.5 66t99 18q92 0 155 -37q16 -9 16 -27v-88q0 -11 -4 -15t-15 -4h-43q-11 0 -15 4t-3 15l4 50q-36 32 -97.5 32t-95.5 -37t-40 -97h192q11 0 14.5 -3.5t1.5 -14.5l-3 -17q-1 -11 -5.5 -14.5t-16.5 -3.5h-185
v-17t1 -22h179q11 0 14.5 -4t1.5 -15l-2 -15q-1 -12 -5.5 -15.5t-16.5 -3.5h-165q25 -121 146 -121q51 0 82 19l-4 53q-1 11 2.5 15t14.5 4h45q11 0 15 -4t4 -15v-86q0 -19 -17 -27q-68 -32 -146 -32q-213 0 -245 194h-53q-11 0 -14.5 4t-2.5 15l2 15q2 11 6 15t15 4h42
q-1 9 -1 19t1 20h-40q-11 0 -14.5 4t-1.5 15z" />
    <glyph glyph-name="trademark" unicode="&#x2122;" horiz-adv-x="844" 
d="M270 344h-125q-15 0 -15 15v13q0 15 15 15h31v256h-63l2 -34q1 -15 -14 -15h-16q-15 0 -15 15v55q0 15 15 15h243q15 0 15 -15v-55q0 -15 -15 -15h-14q-15 0 -14 15l2 34h-64v-256h32q15 0 15 -15v-13q0 -15 -15 -15zM575 344h-20q-16 0 -20 14l-92 238v-209h28
q15 0 15 -15v-13q0 -15 -15 -15h-89q-15 0 -15 15v12q0 15 15 15h18v251h-18q-15 0 -15 15v12q0 15 15 15h75q16 0 20 -14l96 -254l99 254q4 14 20 14h67q15 0 15 -15v-12q0 -15 -15 -15h-17v-251h17q15 0 15 -15v-12q0 -15 -15 -15h-96q-15 0 -15 15v13q0 15 15 15h20v200
l-88 -229q-4 -14 -20 -14z" />
    <glyph glyph-name="Omega" unicode="&#x2126;" horiz-adv-x="782" 
d="M344 79q15 -6 15 -20v-44q0 -15 -15 -15h-257q-15 0 -15 15v49q0 15 15 15h131q-60 40 -96 113t-36 158q0 162 86.5 254.5t222.5 92.5t217 -89t81 -245q0 -88 -36 -163.5t-97 -120.5h146q15 0 15 -15v-49q0 -15 -15 -15h-257q-15 0 -15 15v44q0 11 13 19q62 39 96 102
t34 172q0 256 -187 256q-89 0 -138.5 -63.5t-49.5 -197.5q0 -99 40.5 -171.5t101.5 -96.5z" />
    <glyph glyph-name="partialdiff" unicode="&#x2202;" horiz-adv-x="596" 
d="M474 599.5q54 -96.5 54 -271.5t-56.5 -257.5t-172 -82.5t-171 67t-55.5 178.5t57.5 178t154.5 66.5q42 0 76 -17t52 -41q-8 99 -37.5 146t-88.5 47t-109 -55q-10 -10 -21 0l-35 34q-13 13 -1 25q79 79 174 79q125 0 179 -96.5zM302 71q73 0 94 75q19 63 19 151
q0 10 -2 26q-14 31 -43.5 51.5t-70.5 20.5q-108 0 -108 -163q0 -69 26 -115t85 -46z" />
    <glyph glyph-name="Delta" unicode="&#x2206;" horiz-adv-x="713" 
d="M668 15q0 -15 -15 -15h-602q-14 0 -14 10q0 4 1 8l243 647q6 14 20 14h103q14 0 20 -14l242 -642q2 -4 2 -8zM349 583l-181 -504h364z" />
    <glyph glyph-name="product" unicode="&#x220f;" horiz-adv-x="749" 
d="M55 -59h53v723q0 15 15 15h497q15 0 15 -15v-723h53q15 0 15 -15v-49q0 -15 -15 -15h-218q-15 0 -15 15v49q0 15 15 15h53v652h-303v-652h53q15 0 15 -15v-49q0 -15 -15 -15h-218q-15 0 -15 15v49q0 15 15 15z" />
    <glyph glyph-name="summation" unicode="&#x2211;" horiz-adv-x="587" 
d="M417 277l-255 -317h343q15 0 15 -15v-52q0 -15 -15 -15h-460q-15 0 -15 15v48q0 10 10 23l247 310q9 12 1 21l-242 300q-6 8 -6 17v52q0 15 15 15h440q15 0 15 -15v-54q0 -15 -15 -15h-321l242 -297q9 -11 1 -21z" />
    <glyph glyph-name="minus" unicode="&#x2212;" horiz-adv-x="530" 
d="M35 284v27q0 11 4 15t15 4h422q11 0 15 -4t4 -15v-27q0 -11 -4 -15t-15 -4h-422q-11 0 -15 4t-4 15z" />
    <glyph glyph-name="uni2215" unicode="&#x2215;" horiz-adv-x="434" 
d="M385 745q15 0 15 -8q0 -4 -2 -10l-295 -810q-4 -11 -8.5 -14.5t-16.5 -3.5h-19q-15 0 -15 8q0 4 2 10l294 810q4 11 8.5 14.5t16.5 3.5h20z" />
    <glyph glyph-name="uni2219" unicode="&#x2219;" horiz-adv-x="253" 
d="M126 339q-35 0 -55 19.5t-20 49t21 49.5t54 20t54 -19t21 -49t-20 -50t-55 -20z" />
    <glyph glyph-name="radical" unicode="&#x221a;" horiz-adv-x="662" 
d="M652 790q10 0 10 -10q0 -2 -1 -5l-269 -762q-5 -13 -16 -13h-67q-11 0 -15 13l-140 386l-83 -46q-13 -7 -20 7l-23 47q-2 4 -2 10t11 12l168 87q15 7 20 -6l123 -357l217 624q5 13 16 13h71z" />
    <glyph glyph-name="infinity" unicode="&#x221e;" horiz-adv-x="739" 
d="M660.5 462.5q41.5 -45.5 41.5 -113t-40 -111.5q-46 -51 -121 -51q-17 0 -36 3q-83 16 -137 86q-78 -92 -168 -92q-73 0 -119 43t-46 114t47.5 118.5t120.5 47.5q55 0 94 -24.5t76 -74.5q43 51 82 75.5t101.5 24.5t104 -45.5zM595 288.5q19 24.5 19 60t-19.5 56.5
t-57.5 21q-55 0 -114 -84q61 -78 120 -78q33 0 52 24.5zM319 340q-32 46 -58 66t-60 20t-54.5 -23.5t-20.5 -59t22 -58.5t58 -23q56 0 113 78z" />
    <glyph glyph-name="integral" unicode="&#x222b;" horiz-adv-x="390" 
d="M359 662l-10 -47q-3 -12 -23.5 -5t-44.5 7q-52 0 -52 -54q0 -19 2 -43l29 -533q3 -75 3 -76q0 -62 -34.5 -94.5t-87 -32.5t-103.5 17q-10 3 -10 10t1 11l10 47q3 12 23.5 5t44.5 -7q52 0 52 54q0 13 -2 53l-29 519q-3 78 -3 80q0 62 34.5 94.5t87 32.5t103.5 -17
q10 -3 10 -10t-1 -11z" />
    <glyph glyph-name="approxequal" unicode="&#x2248;" horiz-adv-x="636" 
d="M114.5 242.5q32.5 32.5 70.5 32.5t134.5 -27.5t125.5 -27.5t41.5 7.5t12.5 27t15 19.5h37q15 0 15 -19q0 -68 -30 -100t-77 -32t-144.5 27t-120 27t-31 -9.5t-8.5 -32.5q0 -13 -14 -13h-44q-15 0 -15 16q0 72 32.5 104.5zM108.5 445.5q32.5 32.5 70.5 32.5t134.5 -27.5
t125.5 -27.5t41.5 7.5t12.5 27t15 19.5h37q15 0 15 -19q0 -68 -30 -100t-77 -32t-144.5 27t-120 27t-31 -9.5t-8.5 -32.5q0 -13 -14 -13h-44q-15 0 -15 16q0 72 32.5 104.5z" />
    <glyph glyph-name="notequal" unicode="&#x2260;" horiz-adv-x="530" 
d="M35 339v27q0 11 4 15t15 4h229l31 71q5 11 9.5 14t16.5 3h17q19 0 12 -17l-31 -71h138q11 0 15 -4t4 -15v-27q0 -11 -4 -15t-15 -4h-167l-49 -114h216q11 0 15 -4t4 -15v-27q0 -11 -4 -15t-15 -4h-244l-34 -78q-5 -11 -9.5 -14t-16.5 -3h-17q-19 0 -12 17l34 78h-123
q-11 0 -15 4t-4 15v27q0 11 4 15t15 4h151l49 114h-200q-11 0 -15 4t-4 15z" />
    <glyph glyph-name="lessequal" unicode="&#x2264;" horiz-adv-x="530" 
d="M477 516v-40q0 -12 -3 -16.5t-14 -9.5l-321 -131l321 -139q17 -8 17 -27v-42q0 -19 -17 -11l-390 175q-11 5 -14 10t-3 17v30q0 12 3 16.5t14 9.5l390 170q5 2 8 2q9 0 9 -14zM53 19v27q0 11 4 15t15 4h386q11 0 15 -4t4 -15v-27q0 -11 -4 -15t-15 -4h-386q-11 0 -15 4
t-4 15z" />
    <glyph glyph-name="greaterequal" unicode="&#x2265;" horiz-adv-x="530" 
d="M53 111v40q0 12 3 16.5t14 9.5l321 131l-321 139q-11 5 -14 10t-3 17v42q0 13 8 13q4 0 9 -2l390 -175q17 -8 17 -27v-30q0 -12 -3 -16.5t-14 -9.5l-390 -170q-17 -7 -17 12zM477 0h-424v65h424v-65z" />
    <glyph glyph-name="lozenge" unicode="&#x25ca;" horiz-adv-x="596" 
d="M231 14l-168 313q-3 4 -3 10t5 14l171 314q6 14 20 14h95q14 0 20 -14l162 -313q2 -4 2 -10t-5 -16l-164 -312q-6 -14 -20 -14h-95q-14 0 -20 14zM300 593l-133 -254l135 -253l133 253z" />
    <glyph glyph-name="commaaccent" unicode="&#xf6c3;" 
d="M275 -212l-38 -58q-5 -7 -9.5 -7t-7.5 1l-12 5q-11 4 -6 16l22 72q-9 9 -13.5 17t-8.5 15q-8 14 -8 34t14.5 33.5t42.5 13.5q60 0 60 -53q0 -31 -36 -89z" />
    <glyph glyph-name="ff" unicode="&#xfb00;" horiz-adv-x="684" 
d="M209 414v-335h83q15 0 15 -15v-49q0 -15 -15 -15h-257q-15 0 -15 15v49q0 15 15 15h62v335h-62q-15 0 -15 15v51q0 15 15 15h62v87q0 120 75 153q31 14 85 14t110 -25q12 -5 8 -19l-15 -50q-5 -12 -17 -7q-40 18 -76 18t-47 -23.5t-11 -84.5v-63h214v97q0 120 75 153
q31 14 85 14t110 -25q9 -4 9 -10t-1 -9l-15 -50q-5 -12 -17 -7q-41 18 -76.5 18t-46.5 -23.5t-11 -84.5v-73h121q15 0 15 -15v-51q0 -15 -15 -15h-121v-335h106q15 0 15 -15v-49q0 -15 -15 -15h-270q-15 0 -15 15v49q0 15 15 15h52v335h-214z" />
    <glyph glyph-name="fi" unicode="&#xfb01;" horiz-adv-x="612" 
d="M209 414v-335h76q15 0 15 -15v-49q0 -15 -15 -15h-250q-15 0 -15 15v49q0 15 15 15h62v335h-62q-15 0 -15 15v51q0 15 15 15h62v97q0 70 43 118.5t134 48.5t163 -35q12 -5 8 -19l-17 -50q-5 -12 -17 -7q-66 28 -114.5 28t-68 -25.5t-19.5 -82.5v-73h300q15 0 15 -15v-401
h63q15 0 15 -15v-49q0 -15 -15 -15h-228q-15 0 -15 15v49q0 15 15 15h53v335h-203z" />
    <glyph glyph-name="fl" unicode="&#xfb02;" horiz-adv-x="622" 
d="M534 729v-650h63q15 0 15 -15v-49q0 -15 -15 -15h-238q-15 0 -15 15v49q0 15 15 15h63v564q-68 33 -120.5 33t-72.5 -25t-20 -83v-73h121q15 0 15 -15v-51q0 -15 -15 -15h-121v-335h76q15 0 15 -15v-49q0 -15 -15 -15h-250q-15 0 -15 15v49q0 15 15 15h62v335h-62
q-15 0 -15 15v51q0 15 15 15h62v97q0 70 43 118.5t133 48.5t160 -33l80 17q21 5 21 -14z" />
    <glyph glyph-name="ffi" unicode="&#xfb03;" horiz-adv-x="938" 
d="M209 414v-335h83q15 0 15 -15v-49q0 -15 -15 -15h-257q-15 0 -15 15v49q0 15 15 15h62v335h-62q-15 0 -15 15v51q0 15 15 15h62v87q0 120 75 153q31 14 85 14t110 -25q12 -5 8 -19l-15 -50q-5 -12 -17 -7q-40 18 -76 18t-47 -23.5t-11 -84.5v-63h214v97q0 70 43 118.5
t134 48.5t163 -35q12 -5 8 -19l-17 -50q-5 -12 -17 -7q-66 28 -114.5 28t-68 -25.5t-19.5 -82.5v-73h300q15 0 15 -15v-401h63q15 0 15 -15v-49q0 -15 -15 -15h-228q-15 0 -15 15v49q0 15 15 15h53v335h-203v-335h76q15 0 15 -15v-49q0 -15 -15 -15h-250q-15 0 -15 15v49
q0 15 15 15h62v335h-214z" />
    <glyph glyph-name="ffl" unicode="&#xfb04;" horiz-adv-x="950" 
d="M209 414v-335h83q15 0 15 -15v-49q0 -15 -15 -15h-257q-15 0 -15 15v49q0 15 15 15h62v335h-62q-15 0 -15 15v51q0 15 15 15h62v87q0 120 75 153q31 14 85 14t110 -25q12 -5 8 -19l-15 -50q-5 -12 -17 -7q-40 18 -76 18t-47 -23.5t-11 -84.5v-63h216v97q0 70 43 118.5
t133 48.5t160 -33l80 17q21 5 21 -14v-650h63q15 0 15 -15v-49q0 -15 -15 -15h-238q-15 0 -15 15v49q0 15 15 15h63v564q-68 33 -120.5 33t-72.5 -25t-20 -83v-73h121q15 0 15 -15v-51q0 -15 -15 -15h-121v-335h76q15 0 15 -15v-49q0 -15 -15 -15h-250q-15 0 -15 15v49
q0 15 15 15h62v335h-216z" />
    <glyph glyph-name="hyphen.case" horiz-adv-x="282" 
d="M233 278h-184q-11 0 -15 4t-4 15v39q0 11 4 15t15 4h184q11 0 15 -4t4 -15v-39q0 -11 -4 -15t-15 -4z" />
    <glyph glyph-name="idotaccent" horiz-adv-x="294" 
d="M206 79h63q15 0 15 -15v-49q0 -15 -15 -15h-238q-15 0 -15 15v49q0 15 15 15h63v334h-54q-15 0 -15 15v52q0 15 15 15h151q15 0 15 -15v-401zM66 635q0 31 19.5 51.5t52 20.5t52 -20.5t19.5 -51.5t-20 -51t-52.5 -20t-51.5 20t-19 51z" />
    <glyph glyph-name="t_t" horiz-adv-x="677" 
d="M507 413v-252q0 -47 12 -68t44.5 -21t64.5 14q11 4 16 -8l18 -46q1 -3 1 -8.5t-10 -11.5q-48 -24 -114 -24q-89 0 -117 46q-20 30 -23 58q-4 38 -4 80v241h-196v-252q0 -47 12 -68t45 -21t64 14q11 4 16 -8l18 -46q5 -12 -9 -20q-48 -24 -114 -24q-89 0 -117 46
q-20 30 -23 58q-4 38 -4 80v241h-57q-15 0 -15 15v52q0 15 15 15h57v135q0 15 15 15h82q15 0 15 -15v-135h196v135q0 15 15 15h82q15 0 15 -15v-135h101q15 0 15 -15v-52q0 -15 -15 -15h-101z" />
    <glyph glyph-name="revcommaaccent" 
d="M224 724l43 68q6 8 10.5 8t7.5 -1l12 -6q9 -4 5 -17l-27 -81q9 -9 13.5 -17t8.5 -15q8 -14 8 -34t-15 -34.5t-42 -14.5q-60 0 -60 55q0 31 36 89z" />
    <glyph glyph-name="tilde.cap" 
d="M102 837.5q22 20.5 50 20.5t94 -20.5t89 -20.5q34 0 34 27q0 13 15 13h24q12 0 12 -14q0 -50 -21.5 -74.5t-54 -24.5t-98.5 19t-81 19q-30 0 -30 -22q0 -7 -2 -8.5t-10 -1.5h-31q-12 0 -12 14q0 53 22 73.5z" />
    <glyph glyph-name="ring.cap" 
d="M321 748q-28 -30 -73.5 -30t-71.5 29t-26 71.5t28.5 71.5t72.5 29t71 -28t27 -70.5t-28 -72.5zM250 867q-42 0 -42 -48q0 -21 11 -35t31 -14t31.5 14t11.5 35.5t-11.5 34.5t-31.5 13z" />
    <glyph glyph-name="circumflex.cap" 
d="M167 732h-55q-9 0 -9 4t3 8l82 107q9 12 24 12h76q15 0 24 -12l82 -107q3 -4 3 -8t-9 -4h-57q-16 0 -25 12l-58 71l-57 -71q-9 -12 -24 -12z" />
    <glyph glyph-name="acute.cap" 
d="M147 746l45 98q6 14 21 14h78q9 0 9 -4t-3 -8l-70 -102q-7 -12 -23 -12h-48q-11 0 -11 7q0 3 2 7z" />
    <glyph glyph-name="grave.cap" 
d="M303 841l41 -92q2 -5 2 -9q0 -8 -13 -8h-40q-19 0 -30 15l-65 96q-4 5 -4 10t12 5h70q12 0 17 -3t10 -14z" />
    <glyph glyph-name="dieresis.cap" 
d="M395.5 754.5q-17.5 -16.5 -45 -16.5t-44.5 16.5t-17 45t17 44.5t45 16q62 0 62 -60q0 -29 -17.5 -45.5zM192.5 754.5q-17.5 -16.5 -45 -16.5t-44.5 16.5t-17 45t17 44.5t45 16q62 0 62 -60q0 -29 -17.5 -45.5z" />
    <glyph glyph-name="caron.cap" 
d="M333 863h55q9 0 9 -3.5t-3 -8.5l-82 -107q-9 -12 -24 -12h-76q-15 0 -24 12l-82 107q-3 5 -3 8.5t9 3.5h57q16 0 25 -12l58 -71l57 71q9 12 24 12z" />
    <glyph glyph-name="macron.cap" 
d="M380 760h-260q-11 0 -15 4t-4 15v43q0 11 4 15t15 4h260q11 0 15 -4t4 -15v-43q0 -11 -4 -15t-15 -4z" />
    <glyph glyph-name="dotaccent.cap" 
d="M175 801q0 31 19.5 51.5t52 20.5t52 -20.5t19.5 -51.5t-20 -51t-52.5 -20t-51.5 20t-19 51z" />
    <glyph glyph-name="cedilla.cap" 
d="M240 3h42l-22 -35l16 -14q38 -33 38 -62q0 -41 -96 -105q-5 -3 -10.5 -3t-10.5 6l-8 10q-4 5 -4 10t5 10q41 36 41 56t-22 37l-9 7q-10 9 -3 21z" />
    <glyph glyph-name="hungarumlaut.cap" 
d="M256 746l45 98q6 14 21 14h68q9 0 9 -4t-3 -8l-70 -102q-8 -12 -23 -12h-38q-15 0 -9 14zM122 746l45 98q6 14 21 14h68q9 0 9 -4t-3 -8l-70 -102q-7 -12 -23 -12h-38q-11 0 -11 7q0 3 2 7z" />
    <glyph glyph-name="commaaccent.cap" 
d="M275 -212l-38 -58q-5 -7 -9.5 -7t-7.5 1l-12 5q-11 4 -6 16l22 72q-9 9 -13.5 17t-8.5 15q-8 14 -8 34t14.5 33.5t42.5 13.5q60 0 60 -53q0 -31 -36 -89z" />
    <glyph glyph-name="breve.cap" 
d="M165 853q11 -42 88.5 -42t90.5 42q4 12 9 15.5t17 3.5h31q18 0 18 -15q0 -57 -46 -89.5t-122 -32.5t-117.5 31t-43.5 87q0 11 4 15t15 4h32q12 0 16.5 -3.5t7.5 -15.5z" />
    <glyph glyph-name="caron.alt" 
d="M201 541v190q0 15 15 15h72q14 0 13 -15l-32 -190q-3 -15 -18 -15h-35q-15 0 -15 15z" />
    <glyph glyph-name="ogonek.cap" 
d="M142 -147q0 67 93 152l62 -1q-76 -80 -76 -132q0 -36 33 -36q18 0 35 8.5t23 -3.5l10 -20q3 -5 3 -11.5t-10 -12.5q-44 -30 -86.5 -30t-64.5 24t-22 62z" />
    </font>
</defs>
</svg>
